{"glyphs":{"0":{"ha":935,"x_min":28,"x_max":907,"o":"m 467 -14 q 130 106 232 -14 q 28 447 28 225 q 130 790 28 671 q 467 908 232 908 q 805 790 703 908 q 907 447 907 671 q 805 106 907 225 q 467 -14 703 -14 m 467 240 q 572 292 542 240 q 601 447 601 343 q 572 602 601 550 q 467 654 542 654 q 362 602 392 654 q 332 447 332 550 q 362 292 332 343 q 467 240 392 240 z "},"1":{"ha":532,"x_min":28,"x_max":476,"o":"m 178 0 l 178 617 l 28 594 l 28 843 l 476 908 l 476 0 l 178 0 z "},"2":{"ha":733,"x_min":28,"x_max":706,"o":"m 28 0 l 28 133 q 120 259 68 203 q 239 375 172 315 q 327 454 293 422 q 377 513 361 486 q 393 572 393 540 q 281 654 393 654 q 163 640 221 654 q 56 604 106 626 l 56 856 q 194 894 114 879 q 358 908 274 908 q 615 828 531 908 q 699 618 699 749 q 685 515 699 558 q 642 434 671 471 q 564 354 613 397 q 491 290 529 324 q 433 228 453 257 l 706 228 l 706 0 l 28 0 z "},"3":{"ha":753,"x_min":28,"x_max":725,"o":"m 333 -14 q 237 -8 294 -14 q 122 10 179 -1 q 28 38 65 22 l 28 268 q 159 228 89 240 q 285 215 229 215 q 386 231 353 215 q 419 290 419 247 q 318 353 419 353 l 161 353 l 179 546 l 310 546 q 383 562 361 546 q 404 613 404 578 q 374 661 404 644 q 276 678 343 678 q 149 663 213 678 q 40 625 85 649 l 40 856 q 175 893 96 878 q 335 908 254 908 q 536 874 453 908 q 664 780 619 839 q 708 644 708 721 q 625 449 708 517 q 699 381 672 426 q 725 267 725 336 q 674 107 725 169 q 534 15 622 44 q 333 -14 446 -14 z "},"4":{"ha":769,"x_min":0,"x_max":769,"o":"m 393 0 l 393 158 l 0 158 l 0 350 l 435 894 l 692 894 l 692 399 l 769 399 l 769 158 l 692 158 l 692 0 l 393 0 m 288 386 l 447 386 l 447 572 l 288 386 z "},"5":{"ha":735,"x_min":28,"x_max":707,"o":"m 325 -14 q 233 -9 286 -14 q 126 7 179 -4 q 32 36 72 18 l 32 268 q 111 242 65 253 q 202 224 157 231 q 276 218 247 218 q 373 238 343 218 q 403 299 403 257 q 381 356 403 339 q 301 374 358 374 l 28 374 l 28 499 l 51 894 l 654 894 l 635 667 l 307 667 l 301 574 l 386 574 q 628 501 549 574 q 707 288 707 428 q 613 70 707 154 q 325 -14 519 -14 z "},"6":{"ha":828,"x_min":28,"x_max":800,"o":"m 417 -14 q 124 79 219 -14 q 28 354 28 172 l 28 517 q 79 717 28 628 q 228 857 131 806 q 464 908 326 908 q 598 899 540 908 q 711 868 656 890 l 711 646 q 609 677 661 668 q 494 686 557 686 q 353 653 401 686 q 306 579 306 621 l 306 563 q 388 593 338 582 q 481 604 438 604 q 724 528 649 604 q 800 306 800 451 q 762 142 800 214 q 640 28 724 69 q 417 -14 556 -14 m 418 193 q 535 294 535 193 q 510 371 535 344 q 421 397 485 397 q 363 388 393 397 q 306 364 333 379 l 306 308 q 334 220 306 247 q 418 193 363 193 z "},"7":{"ha":696,"x_min":14,"x_max":682,"o":"m 63 0 l 344 667 l 14 667 l 14 894 l 682 894 l 682 726 l 374 0 l 63 0 z "},"8":{"ha":860,"x_min":28,"x_max":832,"o":"m 428 -14 q 124 56 219 -14 q 28 265 28 126 q 56 381 28 326 q 131 463 83 435 q 70 538 92 493 q 49 629 49 582 q 137 833 49 757 q 428 908 225 908 q 651 874 567 908 q 772 776 735 839 q 810 629 810 714 q 789 535 810 582 q 728 457 768 488 q 804 378 776 426 q 832 265 832 329 q 735 56 832 126 q 428 -14 639 -14 m 461 536 q 512 569 497 550 q 526 622 526 589 q 503 678 526 658 q 428 699 481 699 q 332 622 332 699 q 390 550 332 563 l 461 536 m 428 194 q 520 215 492 194 q 549 272 549 236 q 531 323 549 304 q 469 350 513 342 l 382 368 q 329 340 349 360 q 310 282 310 319 q 338 217 310 239 q 428 194 367 194 z "},"9":{"ha":828,"x_min":28,"x_max":800,"o":"m 364 -14 q 231 -7 288 -14 q 118 22 174 0 l 118 244 q 220 215 169 222 q 333 207 271 207 q 476 240 431 207 q 522 314 522 274 l 522 331 q 442 301 492 313 q 347 289 392 289 q 103 366 179 289 q 28 588 28 443 q 66 753 28 681 q 188 867 104 825 q 411 908 272 908 q 708 815 617 908 q 800 540 800 722 l 800 378 q 749 178 800 267 q 599 38 697 89 q 364 -14 501 -14 m 406 496 q 465 506 435 496 q 522 531 494 515 l 522 585 q 495 673 522 646 q 408 700 468 700 q 293 599 293 700 q 318 523 293 550 q 406 496 343 496 z "},"A":{"ha":1056,"x_min":28,"x_max":1028,"o":"m 28 0 l 371 894 l 683 894 l 1028 0 l 717 0 l 647 178 l 407 178 l 339 0 l 28 0 m 443 386 l 611 386 l 526 603 l 443 386 z "},"Á":{"ha":1056,"x_min":28,"x_max":1028,"o":"m 413 956 l 540 1256 l 771 1256 l 631 956 l 413 956 m 28 0 l 371 894 l 683 894 l 1028 0 l 717 0 l 647 178 l 407 178 l 339 0 l 28 0 m 443 386 l 611 386 l 526 603 l 443 386 z "},"Ă":{"ha":1056,"x_min":28,"x_max":1028,"o":"m 525 956 q 319 1028 397 956 q 242 1239 242 1101 l 433 1239 q 453 1155 433 1190 q 525 1119 474 1119 q 598 1155 578 1119 q 618 1239 618 1190 l 811 1239 q 733 1028 811 1101 q 525 956 654 956 m 28 0 l 371 894 l 683 894 l 1028 0 l 717 0 l 647 178 l 407 178 l 339 0 l 28 0 m 443 386 l 611 386 l 526 603 l 443 386 z "},"Ắ":{"ha":1056,"x_min":28,"x_max":1028,"o":"m 438 1239 l 531 1444 l 726 1444 l 615 1239 l 438 1239 m 528 956 q 337 1015 410 956 q 264 1206 264 1075 l 431 1206 q 454 1130 431 1160 q 528 1100 478 1100 q 603 1130 579 1100 q 626 1206 626 1160 l 792 1206 q 719 1015 792 1075 q 528 956 647 956 m 28 0 l 371 894 l 683 894 l 1028 0 l 717 0 l 647 178 l 407 178 l 339 0 l 28 0 m 443 386 l 611 386 l 526 603 l 443 386 z "},"Ặ":{"ha":1056,"x_min":28,"x_max":1028,"o":"m 526 956 q 321 1028 399 956 q 243 1239 243 1101 l 435 1239 q 455 1155 435 1190 q 526 1119 475 1119 q 599 1155 579 1119 q 619 1239 619 1190 l 813 1239 q 734 1028 813 1101 q 526 956 656 956 m 28 0 l 371 894 l 683 894 l 1028 0 l 717 0 l 647 178 l 407 178 l 339 0 l 28 0 m 443 386 l 611 386 l 526 603 l 443 386 m 428 -244 l 428 -64 l 626 -64 l 626 -244 l 428 -244 z "},"Ằ":{"ha":1056,"x_min":28,"x_max":1028,"o":"m 439 1239 l 328 1444 l 524 1444 l 617 1239 l 439 1239 m 526 956 q 335 1015 408 956 q 263 1206 263 1075 l 428 1206 q 451 1130 428 1160 q 526 1100 475 1100 q 600 1130 576 1100 q 624 1206 624 1160 l 790 1206 q 717 1015 790 1075 q 526 956 644 956 m 28 0 l 371 894 l 683 894 l 1028 0 l 717 0 l 647 178 l 407 178 l 339 0 l 28 0 m 443 386 l 611 386 l 526 603 l 443 386 z "},"Ẳ":{"ha":1056,"x_min":28,"x_max":1028,"o":"m 433 1225 l 433 1310 q 510 1324 488 1313 q 533 1356 533 1336 q 518 1383 533 1376 q 472 1390 503 1390 q 437 1386 454 1390 q 407 1376 419 1382 l 407 1476 q 472 1489 432 1483 q 551 1494 511 1494 q 673 1460 631 1494 q 715 1375 715 1425 q 693 1303 715 1329 q 618 1264 671 1278 l 618 1225 l 433 1225 m 526 956 q 335 1015 408 956 q 263 1206 263 1075 l 428 1206 q 451 1130 428 1160 q 526 1100 475 1100 q 600 1130 576 1100 q 624 1206 624 1160 l 790 1206 q 717 1015 790 1075 q 526 956 644 956 m 28 0 l 371 894 l 683 894 l 1028 0 l 717 0 l 647 178 l 407 178 l 339 0 l 28 0 m 443 386 l 611 386 l 526 603 l 443 386 z "},"Ẵ":{"ha":1056,"x_min":28,"x_max":1028,"o":"m 657 1235 q 572 1249 614 1235 q 490 1278 529 1264 q 413 1292 450 1292 q 337 1278 369 1292 q 281 1239 304 1264 l 281 1385 q 335 1417 300 1404 q 408 1429 369 1429 q 494 1415 454 1429 q 572 1387 533 1401 q 653 1372 611 1372 q 728 1388 696 1372 q 776 1426 760 1403 l 776 1279 q 730 1248 763 1261 q 657 1235 697 1235 m 526 956 q 335 1015 408 956 q 263 1206 263 1075 l 428 1206 q 451 1130 428 1160 q 526 1100 475 1100 q 600 1130 576 1100 q 624 1206 624 1160 l 790 1206 q 717 1015 790 1075 q 526 956 644 956 m 28 0 l 371 894 l 683 894 l 1028 0 l 717 0 l 647 178 l 407 178 l 339 0 l 28 0 m 443 386 l 611 386 l 526 603 l 443 386 z "},"Ǎ":{"ha":1056,"x_min":28,"x_max":1028,"o":"m 439 956 l 210 1244 l 426 1244 l 528 1094 l 633 1244 l 844 1244 l 615 956 l 439 956 m 28 0 l 371 894 l 683 894 l 1028 0 l 717 0 l 647 178 l 407 178 l 339 0 l 28 0 m 443 386 l 611 386 l 526 603 l 443 386 z "},"Â":{"ha":1056,"x_min":28,"x_max":1028,"o":"m 210 956 l 439 1244 l 615 1244 l 844 956 l 633 956 l 528 1106 l 426 956 l 210 956 m 28 0 l 371 894 l 683 894 l 1028 0 l 717 0 l 647 178 l 407 178 l 339 0 l 28 0 m 443 386 l 611 386 l 526 603 l 443 386 z "},"Ấ":{"ha":1056,"x_min":28,"x_max":1028,"o":"m 706 1133 l 807 1361 l 1025 1361 l 914 1133 l 706 1133 m 204 956 l 413 1178 l 629 1178 l 838 956 l 603 956 l 521 1063 l 442 956 l 204 956 m 28 0 l 371 894 l 683 894 l 1028 0 l 717 0 l 647 178 l 407 178 l 339 0 l 28 0 m 443 386 l 611 386 l 526 603 l 443 386 z "},"Ậ":{"ha":1056,"x_min":28,"x_max":1028,"o":"m 211 956 l 440 1244 l 617 1244 l 846 956 l 635 956 l 529 1106 l 428 956 l 211 956 m 28 0 l 371 894 l 683 894 l 1028 0 l 717 0 l 647 178 l 407 178 l 339 0 l 28 0 m 443 386 l 611 386 l 526 603 l 443 386 m 428 -244 l 428 -64 l 626 -64 l 626 -244 l 428 -244 z "},"Ầ":{"ha":1056,"x_min":25,"x_max":1028,"o":"m 138 1133 l 25 1361 l 244 1361 l 346 1133 l 138 1133 m 213 956 l 421 1178 l 639 1178 l 847 956 l 610 956 l 529 1063 l 447 956 l 213 956 m 28 0 l 371 894 l 683 894 l 1028 0 l 717 0 l 647 178 l 407 178 l 339 0 l 28 0 m 443 386 l 611 386 l 526 603 l 443 386 z "},"Ẩ":{"ha":1056,"x_min":28,"x_max":1028,"o":"m 724 1101 l 724 1208 q 799 1220 781 1210 q 818 1246 818 1231 q 765 1271 818 1271 q 729 1267 747 1271 q 696 1260 711 1264 l 696 1374 q 761 1385 724 1381 q 846 1390 799 1390 q 975 1356 932 1390 q 1018 1267 1018 1321 q 994 1188 1018 1219 q 919 1146 971 1156 l 919 1101 l 724 1101 m 207 956 l 415 1178 l 633 1178 l 842 956 l 607 956 l 525 1063 l 444 956 l 207 956 m 28 0 l 371 894 l 683 894 l 1028 0 l 717 0 l 647 178 l 407 178 l 339 0 l 28 0 m 443 386 l 611 386 l 526 603 l 443 386 z "},"Ẫ":{"ha":1056,"x_min":28,"x_max":1028,"o":"m 656 1192 q 570 1206 613 1192 q 488 1235 528 1221 q 411 1249 449 1249 q 335 1235 368 1249 q 279 1196 303 1221 l 279 1342 q 333 1374 299 1361 q 407 1386 368 1386 q 492 1372 453 1386 q 571 1344 532 1358 q 651 1329 610 1329 q 726 1344 694 1329 q 775 1383 758 1360 l 775 1236 q 728 1205 761 1218 q 656 1192 696 1192 m 210 956 l 418 1178 l 636 1178 l 844 956 l 610 956 l 528 1063 l 447 956 l 210 956 m 28 0 l 371 894 l 683 894 l 1028 0 l 717 0 l 647 178 l 407 178 l 339 0 l 28 0 m 443 386 l 611 386 l 526 603 l 443 386 z "},"Ä":{"ha":1056,"x_min":28,"x_max":1028,"o":"m 271 993 l 271 1175 l 471 1175 l 471 993 l 271 993 m 585 993 l 585 1175 l 783 1175 l 783 993 l 585 993 m 28 0 l 371 894 l 683 894 l 1028 0 l 717 0 l 647 178 l 407 178 l 339 0 l 28 0 m 443 386 l 611 386 l 526 603 l 443 386 z "},"Ạ":{"ha":1056,"x_min":28,"x_max":1028,"o":"m 28 0 l 371 894 l 683 894 l 1028 0 l 717 0 l 647 178 l 407 178 l 339 0 l 28 0 m 443 386 l 611 386 l 526 603 l 443 386 m 428 -244 l 428 -64 l 626 -64 l 626 -244 l 428 -244 z "},"À":{"ha":1056,"x_min":28,"x_max":1028,"o":"m 414 956 l 274 1256 l 506 1256 l 633 956 l 414 956 m 28 0 l 371 894 l 683 894 l 1028 0 l 717 0 l 647 178 l 407 178 l 339 0 l 28 0 m 443 386 l 611 386 l 526 603 l 443 386 z "},"Ả":{"ha":1056,"x_min":28,"x_max":1028,"o":"m 418 956 l 418 1068 q 513 1088 488 1072 q 539 1125 539 1103 q 463 1168 539 1168 q 420 1165 442 1168 q 382 1156 399 1161 l 382 1275 q 456 1290 414 1285 q 553 1294 497 1294 q 703 1253 651 1294 q 756 1150 756 1213 q 727 1058 756 1089 q 640 1008 699 1026 l 640 956 l 418 956 m 28 0 l 371 894 l 683 894 l 1028 0 l 717 0 l 647 178 l 407 178 l 339 0 l 28 0 m 443 386 l 611 386 l 526 603 l 443 386 z "},"Ā":{"ha":1056,"x_min":28,"x_max":1028,"o":"m 292 971 l 292 1146 l 763 1146 l 763 971 l 292 971 m 28 0 l 371 894 l 683 894 l 1028 0 l 717 0 l 647 178 l 407 178 l 339 0 l 28 0 m 443 386 l 611 386 l 526 603 l 443 386 z "},"Ą":{"ha":1056,"x_min":28,"x_max":1028,"o":"m 28 0 l 371 894 l 683 894 l 1028 0 l 936 0 q 883 -53 904 -25 q 863 -115 863 -82 q 925 -164 863 -164 q 963 -160 943 -164 q 994 -149 982 -156 l 994 -282 q 931 -298 972 -290 q 840 -306 889 -306 q 700 -272 754 -306 q 646 -167 646 -239 q 676 -69 646 -112 q 750 0 706 -26 l 717 0 l 647 178 l 407 178 l 339 0 l 28 0 m 443 386 l 611 386 l 526 603 l 443 386 z "},"Å":{"ha":1056,"x_min":28,"x_max":1028,"o":"m 28 0 l 367 883 q 324 1008 324 933 q 376 1145 324 1090 q 526 1200 429 1200 q 678 1145 625 1200 q 731 1008 731 1090 q 688 883 731 933 l 1028 0 l 717 0 l 647 178 l 407 178 l 339 0 l 28 0 m 526 936 q 584 958 565 936 q 603 1008 603 979 q 584 1060 603 1038 q 526 1082 565 1082 q 469 1060 489 1082 q 450 1008 450 1038 q 469 958 450 979 q 526 936 489 936 m 443 386 l 611 386 l 526 603 l 443 386 z "},"Ǻ":{"ha":1056,"x_min":28,"x_max":1028,"o":"m 406 1240 l 533 1494 l 764 1494 l 624 1240 l 406 1240 m 28 0 l 367 883 q 324 1008 324 933 q 376 1145 324 1090 q 526 1200 429 1200 q 678 1145 625 1200 q 731 1008 731 1090 q 688 883 731 933 l 1028 0 l 717 0 l 647 178 l 407 178 l 339 0 l 28 0 m 526 936 q 584 958 565 936 q 603 1008 603 979 q 584 1060 603 1038 q 526 1082 565 1082 q 469 1060 489 1082 q 450 1008 450 1038 q 469 958 450 979 q 526 936 489 936 m 443 386 l 611 386 l 526 603 l 443 386 z "},"Ã":{"ha":1056,"x_min":28,"x_max":1028,"o":"m 667 961 q 574 976 619 961 q 485 1006 528 992 q 401 1021 442 1021 q 321 1006 356 1021 q 261 965 286 990 l 261 1144 q 318 1178 281 1164 q 397 1192 356 1192 q 489 1177 446 1192 q 574 1147 532 1163 q 663 1132 617 1132 q 742 1149 708 1132 q 793 1189 776 1165 l 793 1008 q 744 976 779 990 q 667 961 710 961 m 28 0 l 371 894 l 683 894 l 1028 0 l 717 0 l 647 178 l 407 178 l 339 0 l 28 0 m 443 386 l 611 386 l 526 603 l 443 386 z "},"Æ":{"ha":1203,"x_min":28,"x_max":1175,"o":"m 28 0 l 371 894 l 1175 894 l 1175 674 l 849 674 l 849 560 l 1124 560 l 1124 333 l 849 333 l 849 221 l 1175 221 l 1175 0 l 560 0 l 560 179 l 410 179 l 340 0 l 28 0 m 453 394 l 560 394 l 560 674 l 551 674 l 453 394 z "},"Ǽ":{"ha":1203,"x_min":28,"x_max":1175,"o":"m 572 956 l 700 1256 l 931 1256 l 790 956 l 572 956 m 28 0 l 371 894 l 1175 894 l 1175 674 l 849 674 l 849 560 l 1124 560 l 1124 333 l 849 333 l 849 221 l 1175 221 l 1175 0 l 560 0 l 560 179 l 410 179 l 340 0 l 28 0 m 453 394 l 560 394 l 560 674 l 551 674 l 453 394 z "},"B":{"ha":908,"x_min":56,"x_max":881,"o":"m 56 0 l 56 894 l 567 894 q 776 829 703 894 q 850 644 850 764 q 826 529 850 576 q 761 454 801 482 q 849 390 817 431 q 881 268 881 349 q 800 71 881 142 q 575 0 719 0 l 56 0 m 339 544 l 486 544 q 567 617 567 544 q 547 670 567 651 q 482 689 526 689 l 339 689 l 339 544 m 339 204 l 492 204 q 576 282 576 204 q 489 354 576 354 l 339 354 l 339 204 z "},"C":{"ha":850,"x_min":28,"x_max":822,"o":"m 544 -14 q 159 104 290 -14 q 28 444 28 222 q 157 790 28 672 q 542 908 286 908 q 693 896 628 908 q 819 860 758 883 l 819 600 q 694 642 756 628 q 563 656 632 656 q 391 608 450 656 q 332 444 332 560 q 394 285 332 332 q 565 239 456 239 q 696 252 633 239 q 822 293 758 265 l 822 32 q 695 -2 761 10 q 544 -14 629 -14 z "},"Ć":{"ha":850,"x_min":28,"x_max":822,"o":"m 407 956 l 535 1256 l 765 1256 l 625 956 l 407 956 m 544 -14 q 159 104 290 -14 q 28 444 28 222 q 157 790 28 672 q 542 908 286 908 q 693 896 628 908 q 819 860 758 883 l 819 600 q 694 642 756 628 q 563 656 632 656 q 391 608 450 656 q 332 444 332 560 q 394 285 332 332 q 565 239 456 239 q 696 252 633 239 q 822 293 758 265 l 822 32 q 695 -2 761 10 q 544 -14 629 -14 z "},"Č":{"ha":850,"x_min":28,"x_max":836,"o":"m 431 954 l 201 1243 l 418 1243 l 519 1093 l 625 1243 l 836 1243 l 607 954 l 431 954 m 544 -14 q 159 104 290 -14 q 28 444 28 222 q 157 790 28 672 q 542 908 286 908 q 693 896 628 908 q 819 860 758 883 l 819 600 q 694 642 756 628 q 563 656 632 656 q 391 608 450 656 q 332 444 332 560 q 394 285 332 332 q 565 239 456 239 q 696 252 633 239 q 822 293 758 265 l 822 32 q 695 -2 761 10 q 544 -14 629 -14 z "},"Ç":{"ha":850,"x_min":28,"x_max":822,"o":"m 513 -333 q 449 -330 488 -333 q 394 -322 410 -326 l 394 -218 q 476 -229 435 -229 q 572 -181 572 -229 q 555 -148 572 -156 q 510 -140 538 -140 l 414 -140 l 451 -10 q 135 127 243 11 q 28 444 28 243 q 157 790 28 672 q 542 908 286 908 q 693 896 628 908 q 819 860 758 883 l 819 600 q 694 642 756 628 q 563 656 632 656 q 391 608 450 656 q 332 444 332 560 q 394 285 332 332 q 565 239 456 239 q 696 252 633 239 q 822 293 758 265 l 822 32 q 720 3 772 14 q 606 -12 668 -8 l 590 -54 q 705 -92 667 -54 q 743 -186 743 -129 q 685 -294 743 -254 q 513 -333 628 -333 z "},"Ĉ":{"ha":850,"x_min":28,"x_max":822,"o":"m 164 954 l 393 1243 l 569 1243 l 799 954 l 588 954 l 482 1104 l 381 954 l 164 954 m 544 -14 q 159 104 290 -14 q 28 444 28 222 q 157 790 28 672 q 542 908 286 908 q 693 896 628 908 q 819 860 758 883 l 819 600 q 694 642 756 628 q 563 656 632 656 q 391 608 450 656 q 332 444 332 560 q 394 285 332 332 q 565 239 456 239 q 696 252 633 239 q 822 293 758 265 l 822 32 q 695 -2 761 10 q 544 -14 629 -14 z "},"Ċ":{"ha":850,"x_min":28,"x_max":822,"o":"m 406 994 l 406 1176 l 604 1176 l 604 994 l 406 994 m 544 -14 q 159 104 290 -14 q 28 444 28 222 q 157 790 28 672 q 542 908 286 908 q 693 896 628 908 q 819 860 758 883 l 819 600 q 694 642 756 628 q 563 656 632 656 q 391 608 450 656 q 332 444 332 560 q 394 285 332 332 q 565 239 456 239 q 696 252 633 239 q 822 293 758 265 l 822 32 q 695 -2 761 10 q 544 -14 629 -14 z "},"D":{"ha":944,"x_min":56,"x_max":917,"o":"m 56 0 l 56 894 l 468 894 q 708 849 608 894 q 863 705 808 804 q 917 442 917 606 q 799 105 917 210 q 468 0 681 0 l 56 0 m 354 228 l 432 228 q 529 244 489 228 q 591 307 569 261 q 613 442 613 353 q 593 576 613 531 q 533 640 574 622 q 432 657 493 657 l 354 657 l 354 228 z "},"Ð":{"ha":1003,"x_min":0,"x_max":975,"o":"m 113 0 l 113 339 l 0 339 l 0 536 l 113 536 l 113 894 l 525 894 q 766 849 665 894 q 921 705 867 804 q 975 442 975 606 q 856 105 975 210 q 525 0 738 0 l 113 0 m 411 228 l 489 228 q 587 244 546 228 q 649 307 628 261 q 671 442 671 353 q 651 576 671 531 q 592 640 632 622 q 489 657 551 657 l 411 657 l 411 536 l 525 536 l 525 339 l 411 339 l 411 228 z "},"Ď":{"ha":944,"x_min":56,"x_max":917,"o":"m 329 954 l 100 1243 l 317 1243 l 418 1093 l 524 1243 l 735 1243 l 506 954 l 329 954 m 56 0 l 56 894 l 468 894 q 708 849 608 894 q 863 705 808 804 q 917 442 917 606 q 799 105 917 210 q 468 0 681 0 l 56 0 m 354 228 l 432 228 q 529 244 489 228 q 591 307 569 261 q 613 442 613 353 q 593 576 613 531 q 533 640 574 622 q 432 657 493 657 l 354 657 l 354 228 z "},"Đ":{"ha":989,"x_min":-14,"x_max":961,"o":"m 99 0 l 99 339 l -14 339 l -14 536 l 99 536 l 99 894 l 511 894 q 752 849 651 894 q 907 705 853 804 q 961 442 961 606 q 842 105 961 210 q 511 0 724 0 l 99 0 m 397 228 l 475 228 q 573 244 532 228 q 635 307 614 261 q 657 442 657 353 q 638 576 657 531 q 578 640 618 622 q 475 657 538 657 l 397 657 l 397 536 l 511 536 l 511 339 l 397 339 l 397 228 z "},"Ḍ":{"ha":944,"x_min":56,"x_max":917,"o":"m 56 0 l 56 894 l 468 894 q 708 849 608 894 q 863 705 808 804 q 917 442 917 606 q 799 105 917 210 q 468 0 681 0 l 56 0 m 354 228 l 432 228 q 529 244 489 228 q 591 307 569 261 q 613 442 613 353 q 593 576 613 531 q 533 640 574 622 q 432 657 493 657 l 354 657 l 354 228 m 308 -285 l 308 -104 l 507 -104 l 507 -285 l 308 -285 z "},"Ḏ":{"ha":944,"x_min":56,"x_max":917,"o":"m 56 0 l 56 894 l 468 894 q 708 849 608 894 q 863 705 808 804 q 917 442 917 606 q 799 105 917 210 q 468 0 681 0 l 56 0 m 354 228 l 432 228 q 529 244 489 228 q 591 307 569 261 q 613 442 613 353 q 593 576 613 531 q 533 640 574 622 q 432 657 493 657 l 354 657 l 354 228 m 176 -244 l 176 -69 l 647 -69 l 647 -244 l 176 -244 z "},"E":{"ha":772,"x_min":56,"x_max":751,"o":"m 56 0 l 56 894 l 751 894 l 751 674 l 354 674 l 354 560 l 700 560 l 700 333 l 354 333 l 354 221 l 751 221 l 751 0 l 56 0 z "},"É":{"ha":772,"x_min":56,"x_max":751,"o":"m 263 956 l 390 1256 l 621 1256 l 481 956 l 263 956 m 56 0 l 56 894 l 751 894 l 751 674 l 354 674 l 354 560 l 700 560 l 700 333 l 354 333 l 354 221 l 751 221 l 751 0 l 56 0 z "},"Ĕ":{"ha":772,"x_min":56,"x_max":751,"o":"m 406 956 q 200 1028 278 956 q 122 1239 122 1101 l 314 1239 q 334 1155 314 1190 q 406 1119 354 1119 q 478 1155 458 1119 q 499 1239 499 1190 l 692 1239 q 613 1028 692 1101 q 406 956 535 956 m 56 0 l 56 894 l 751 894 l 751 674 l 354 674 l 354 560 l 700 560 l 700 333 l 354 333 l 354 221 l 751 221 l 751 0 l 56 0 z "},"Ě":{"ha":772,"x_min":56,"x_max":751,"o":"m 322 954 l 93 1243 l 310 1243 l 411 1093 l 517 1243 l 728 1243 l 499 954 l 322 954 m 56 0 l 56 894 l 751 894 l 751 674 l 354 674 l 354 560 l 700 560 l 700 333 l 354 333 l 354 221 l 751 221 l 751 0 l 56 0 z "},"Ê":{"ha":771,"x_min":56,"x_max":751,"o":"m 88 956 l 317 1244 l 493 1244 l 722 956 l 511 956 l 406 1106 l 304 956 l 88 956 m 56 0 l 56 894 l 751 894 l 751 674 l 354 674 l 354 560 l 700 560 l 700 333 l 354 333 l 354 221 l 751 221 l 751 0 l 56 0 z "},"Ế":{"ha":772,"x_min":56,"x_max":897,"o":"m 578 1133 l 679 1361 l 897 1361 l 786 1133 l 578 1133 m 76 956 l 285 1178 l 501 1178 l 710 956 l 475 956 l 393 1063 l 314 956 l 76 956 m 56 0 l 56 894 l 751 894 l 751 674 l 354 674 l 354 560 l 700 560 l 700 333 l 354 333 l 354 221 l 751 221 l 751 0 l 56 0 z "},"Ệ":{"ha":768,"x_min":56,"x_max":751,"o":"m 79 956 l 308 1244 l 485 1244 l 714 956 l 503 956 l 397 1106 l 296 956 l 79 956 m 56 0 l 56 894 l 751 894 l 751 674 l 354 674 l 354 560 l 700 560 l 700 333 l 354 333 l 354 221 l 751 221 l 751 0 l 56 0 m 297 -244 l 297 -64 l 496 -64 l 496 -244 l 297 -244 z "},"Ề":{"ha":772,"x_min":-117,"x_max":751,"o":"m -4 1133 l -117 1361 l 103 1361 l 204 1133 l -4 1133 m 83 956 l 292 1178 l 510 1178 l 718 956 l 481 956 l 400 1063 l 318 956 l 83 956 m 56 0 l 56 894 l 751 894 l 751 674 l 354 674 l 354 560 l 700 560 l 700 333 l 354 333 l 354 221 l 751 221 l 751 0 l 56 0 z "},"Ể":{"ha":772,"x_min":56,"x_max":886,"o":"m 592 1101 l 592 1208 q 667 1220 649 1210 q 686 1246 686 1231 q 633 1271 686 1271 q 597 1267 615 1271 q 564 1260 579 1264 l 564 1374 q 629 1385 592 1381 q 714 1390 667 1390 q 843 1356 800 1390 q 886 1267 886 1321 q 863 1188 886 1219 q 788 1146 839 1156 l 788 1101 l 592 1101 m 75 956 l 283 1178 l 501 1178 l 710 956 l 475 956 l 393 1063 l 313 956 l 75 956 m 56 0 l 56 894 l 751 894 l 751 674 l 354 674 l 354 560 l 700 560 l 700 333 l 354 333 l 354 221 l 751 221 l 751 0 l 56 0 z "},"Ễ":{"ha":772,"x_min":56,"x_max":751,"o":"m 528 1192 q 442 1206 485 1192 q 360 1235 400 1221 q 283 1249 321 1249 q 208 1235 240 1249 q 151 1196 175 1221 l 151 1342 q 206 1374 171 1361 q 279 1386 240 1386 q 365 1372 325 1386 q 443 1344 404 1358 q 524 1329 482 1329 q 599 1344 567 1329 q 647 1383 631 1360 l 647 1236 q 601 1205 633 1218 q 528 1192 568 1192 m 82 956 l 290 1178 l 508 1178 l 717 956 l 482 956 l 400 1063 l 319 956 l 82 956 m 56 0 l 56 894 l 751 894 l 751 674 l 354 674 l 354 560 l 700 560 l 700 333 l 354 333 l 354 221 l 751 221 l 751 0 l 56 0 z "},"Ë":{"ha":772,"x_min":56,"x_max":751,"o":"m 153 994 l 153 1176 l 353 1176 l 353 994 l 153 994 m 467 994 l 467 1176 l 665 1176 l 665 994 l 467 994 m 56 0 l 56 894 l 751 894 l 751 674 l 354 674 l 354 560 l 700 560 l 700 333 l 354 333 l 354 221 l 751 221 l 751 0 l 56 0 z "},"Ė":{"ha":772,"x_min":56,"x_max":751,"o":"m 299 994 l 299 1176 l 497 1176 l 497 994 l 299 994 m 56 0 l 56 894 l 751 894 l 751 674 l 354 674 l 354 560 l 700 560 l 700 333 l 354 333 l 354 221 l 751 221 l 751 0 l 56 0 z "},"Ẹ":{"ha":772,"x_min":56,"x_max":751,"o":"m 56 0 l 56 894 l 751 894 l 751 674 l 354 674 l 354 560 l 700 560 l 700 333 l 354 333 l 354 221 l 751 221 l 751 0 l 56 0 m 289 -244 l 289 -64 l 488 -64 l 488 -244 l 289 -244 z "},"È":{"ha":772,"x_min":56,"x_max":751,"o":"m 318 956 l 178 1256 l 410 1256 l 538 956 l 318 956 m 56 0 l 56 894 l 751 894 l 751 674 l 354 674 l 354 560 l 700 560 l 700 333 l 354 333 l 354 221 l 751 221 l 751 0 l 56 0 z "},"Ẻ":{"ha":772,"x_min":56,"x_max":751,"o":"m 288 956 l 288 1068 q 383 1088 357 1072 q 408 1125 408 1103 q 332 1168 408 1168 q 290 1165 311 1168 q 251 1156 268 1161 l 251 1275 q 325 1290 283 1285 q 422 1294 367 1294 q 573 1253 521 1294 q 625 1150 625 1213 q 597 1058 625 1089 q 510 1008 568 1026 l 510 956 l 288 956 m 56 0 l 56 894 l 751 894 l 751 674 l 354 674 l 354 560 l 700 560 l 700 333 l 354 333 l 354 221 l 751 221 l 751 0 l 56 0 z "},"Ē":{"ha":772,"x_min":56,"x_max":751,"o":"m 150 1007 l 150 1182 l 621 1182 l 621 1007 l 150 1007 m 56 0 l 56 894 l 751 894 l 751 674 l 354 674 l 354 560 l 700 560 l 700 333 l 354 333 l 354 221 l 751 221 l 751 0 l 56 0 z "},"Ę":{"ha":772,"x_min":56,"x_max":751,"o":"m 56 0 l 56 894 l 751 894 l 751 674 l 354 674 l 354 560 l 700 560 l 700 333 l 354 333 l 354 221 l 751 221 l 751 0 l 682 0 q 629 -53 650 -25 q 608 -115 608 -82 q 671 -164 608 -164 q 708 -160 689 -164 q 740 -149 728 -156 l 740 -282 q 676 -298 718 -290 q 586 -306 635 -306 q 446 -272 500 -306 q 392 -167 392 -239 q 422 -69 392 -112 q 496 0 451 -26 l 56 0 z "},"Ẽ":{"ha":772,"x_min":56,"x_max":751,"o":"m 546 964 q 453 979 499 964 q 364 1009 407 994 q 281 1024 321 1024 q 200 1008 235 1024 q 140 968 165 993 l 140 1147 q 197 1181 160 1167 q 276 1194 235 1194 q 368 1180 325 1194 q 453 1150 411 1165 q 542 1135 496 1135 q 622 1151 588 1135 q 672 1192 656 1168 l 672 1011 q 624 978 658 993 q 546 964 589 964 m 56 0 l 56 894 l 751 894 l 751 674 l 354 674 l 354 560 l 700 560 l 700 333 l 354 333 l 354 221 l 751 221 l 751 0 l 56 0 z "},"F":{"ha":749,"x_min":56,"x_max":749,"o":"m 56 0 l 56 894 l 749 894 l 749 676 l 354 676 l 354 558 l 696 558 l 696 335 l 354 335 l 354 0 l 56 0 z "},"G":{"ha":913,"x_min":28,"x_max":885,"o":"m 532 -14 q 157 103 286 -14 q 28 443 28 219 q 163 789 28 669 q 553 908 297 908 q 706 899 639 908 q 836 868 774 889 l 836 614 q 707 647 772 638 q 574 656 642 656 q 396 607 460 656 q 332 443 332 558 q 383 285 332 332 q 531 239 433 239 q 636 253 590 239 l 636 344 l 474 344 l 474 526 l 885 526 l 885 71 q 743 11 831 36 q 532 -14 656 -14 z "},"Ğ":{"ha":913,"x_min":28,"x_max":885,"o":"m 529 956 q 324 1028 401 956 q 246 1239 246 1101 l 438 1239 q 458 1155 438 1190 q 529 1119 478 1119 q 602 1155 582 1119 q 622 1239 622 1190 l 815 1239 q 737 1028 815 1101 q 529 956 658 956 m 532 -14 q 157 103 286 -14 q 28 443 28 219 q 163 789 28 669 q 553 908 297 908 q 706 899 639 908 q 836 868 774 889 l 836 614 q 707 647 772 638 q 574 656 642 656 q 396 607 460 656 q 332 443 332 558 q 383 285 332 332 q 531 239 433 239 q 636 253 590 239 l 636 344 l 474 344 l 474 526 l 885 526 l 885 71 q 743 11 831 36 q 532 -14 656 -14 z "},"Ǧ":{"ha":913,"x_min":28,"x_max":885,"o":"m 435 956 l 206 1244 l 422 1244 l 524 1094 l 629 1244 l 840 1244 l 611 956 l 435 956 m 532 -14 q 157 103 286 -14 q 28 443 28 219 q 163 789 28 669 q 553 908 297 908 q 706 899 639 908 q 836 868 774 889 l 836 614 q 707 647 772 638 q 574 656 642 656 q 396 607 460 656 q 332 443 332 558 q 383 285 332 332 q 531 239 433 239 q 636 253 590 239 l 636 344 l 474 344 l 474 526 l 885 526 l 885 71 q 743 11 831 36 q 532 -14 656 -14 z "},"Ĝ":{"ha":913,"x_min":28,"x_max":885,"o":"m 190 954 l 419 1243 l 596 1243 l 825 954 l 614 954 l 508 1104 l 407 954 l 190 954 m 532 -14 q 157 103 286 -14 q 28 443 28 219 q 163 789 28 669 q 553 908 297 908 q 706 899 639 908 q 836 868 774 889 l 836 614 q 707 647 772 638 q 574 656 642 656 q 396 607 460 656 q 332 443 332 558 q 383 285 332 332 q 531 239 433 239 q 636 253 590 239 l 636 344 l 474 344 l 474 526 l 885 526 l 885 71 q 743 11 831 36 q 532 -14 656 -14 z "},"Ģ":{"ha":913,"x_min":28,"x_max":885,"o":"m 532 -14 q 157 103 286 -14 q 28 443 28 219 q 163 789 28 669 q 553 908 297 908 q 706 899 639 908 q 836 868 774 889 l 836 614 q 707 647 772 638 q 574 656 642 656 q 396 607 460 656 q 332 443 332 558 q 383 285 332 332 q 531 239 433 239 q 636 253 590 239 l 636 344 l 474 344 l 474 526 l 885 526 l 885 71 q 743 11 831 36 q 532 -14 656 -14 m 383 -381 l 432 -51 l 663 -51 l 578 -381 l 383 -381 z "},"Ġ":{"ha":913,"x_min":28,"x_max":885,"o":"m 446 994 l 446 1176 l 644 1176 l 644 994 l 446 994 m 532 -14 q 157 103 286 -14 q 28 443 28 219 q 163 789 28 669 q 553 908 297 908 q 706 899 639 908 q 836 868 774 889 l 836 614 q 707 647 772 638 q 574 656 642 656 q 396 607 460 656 q 332 443 332 558 q 383 285 332 332 q 531 239 433 239 q 636 253 590 239 l 636 344 l 474 344 l 474 526 l 885 526 l 885 71 q 743 11 831 36 q 532 -14 656 -14 z "},"Ḡ":{"ha":913,"x_min":28,"x_max":885,"o":"m 299 996 l 299 1171 l 769 1171 l 769 996 l 299 996 m 532 -14 q 157 103 286 -14 q 28 443 28 219 q 163 789 28 669 q 553 908 297 908 q 706 899 639 908 q 836 868 774 889 l 836 614 q 707 647 772 638 q 574 656 642 656 q 396 607 460 656 q 332 443 332 558 q 383 285 332 332 q 531 239 433 239 q 636 253 590 239 l 636 344 l 474 344 l 474 526 l 885 526 l 885 71 q 743 11 831 36 q 532 -14 656 -14 z "},"H":{"ha":974,"x_min":56,"x_max":918,"o":"m 56 0 l 56 894 l 354 894 l 354 582 l 619 582 l 619 894 l 918 894 l 918 0 l 619 0 l 619 313 l 354 313 l 354 0 l 56 0 z "},"Ħ":{"ha":989,"x_min":14,"x_max":975,"o":"m 63 0 l 63 651 l 14 651 l 14 818 l 63 818 l 63 894 l 361 894 l 361 818 l 628 818 l 628 894 l 926 894 l 926 818 l 975 818 l 975 651 l 926 651 l 926 0 l 628 0 l 628 313 l 361 313 l 361 0 l 63 0 m 361 582 l 628 582 l 628 651 l 361 651 l 361 582 z "},"Ḫ":{"ha":974,"x_min":56,"x_max":918,"o":"m 56 0 l 56 894 l 354 894 l 354 582 l 619 582 l 619 894 l 918 894 l 918 0 l 619 0 l 619 313 l 354 313 l 354 0 l 56 0 m 488 -346 q 282 -273 360 -346 q 204 -62 204 -200 l 396 -62 q 416 -147 396 -111 q 488 -182 436 -182 q 560 -147 540 -182 q 581 -62 581 -111 l 774 -62 q 695 -273 774 -200 q 488 -346 617 -346 z "},"Ĥ":{"ha":974,"x_min":56,"x_max":918,"o":"m 168 954 l 397 1243 l 574 1243 l 803 954 l 592 954 l 486 1104 l 385 954 l 168 954 m 56 0 l 56 894 l 354 894 l 354 582 l 619 582 l 619 894 l 918 894 l 918 0 l 619 0 l 619 313 l 354 313 l 354 0 l 56 0 z "},"Ḥ":{"ha":974,"x_min":56,"x_max":918,"o":"m 56 0 l 56 894 l 354 894 l 354 582 l 619 582 l 619 894 l 918 894 l 918 0 l 619 0 l 619 313 l 354 313 l 354 0 l 56 0 m 386 -244 l 386 -64 l 585 -64 l 585 -244 l 386 -244 z "},"I":{"ha":410,"x_min":56,"x_max":354,"o":"m 56 0 l 56 894 l 354 894 l 354 0 l 56 0 z "},"Ĳ":{"ha":1033,"x_min":56,"x_max":985,"o":"m 621 -14 q 508 -7 563 -14 q 403 18 454 0 l 403 265 q 477 245 436 251 q 560 239 518 239 q 658 267 629 239 q 686 360 686 294 l 686 894 l 985 894 l 985 299 q 892 67 985 147 q 621 -14 799 -14 m 56 0 l 56 894 l 354 894 l 354 0 l 56 0 z "},"Í":{"ha":410,"x_min":56,"x_max":447,"o":"m 89 956 l 217 1256 l 447 1256 l 307 956 l 89 956 m 56 0 l 56 894 l 354 894 l 354 0 l 56 0 z "},"Ĭ":{"ha":410,"x_min":-79,"x_max":490,"o":"m 204 988 q -1 1060 76 988 q -79 1271 -79 1133 l 113 1271 q 133 1187 113 1222 q 204 1151 153 1151 q 277 1187 257 1151 q 297 1271 297 1222 l 490 1271 q 412 1060 490 1133 q 204 988 333 988 m 56 0 l 56 894 l 354 894 l 354 0 l 56 0 z "},"Ǐ":{"ha":410,"x_min":-112,"x_max":522,"o":"m 117 956 l -112 1244 l 104 1244 l 206 1094 l 311 1244 l 522 1244 l 293 956 l 117 956 m 56 0 l 56 894 l 354 894 l 354 0 l 56 0 z "},"Î":{"ha":410,"x_min":-112,"x_max":522,"o":"m -112 956 l 117 1244 l 293 1244 l 522 956 l 311 956 l 206 1106 l 104 956 l -112 956 m 56 0 l 56 894 l 354 894 l 354 0 l 56 0 z "},"Ï":{"ha":410,"x_min":-51,"x_max":461,"o":"m -51 1006 l -51 1188 l 149 1188 l 149 1006 l -51 1006 m 263 1006 l 263 1188 l 461 1188 l 461 1006 l 263 1006 m 56 0 l 56 894 l 354 894 l 354 0 l 56 0 z "},"İ":{"ha":410,"x_min":56,"x_max":354,"o":"m 106 1006 l 106 1188 l 304 1188 l 304 1006 l 106 1006 m 56 0 l 56 894 l 354 894 l 354 0 l 56 0 z "},"Ị":{"ha":410,"x_min":56,"x_max":354,"o":"m 56 0 l 56 894 l 354 894 l 354 0 l 56 0 m 106 -244 l 106 -64 l 304 -64 l 304 -244 l 106 -244 z "},"Ì":{"ha":410,"x_min":-44,"x_max":354,"o":"m 96 956 l -44 1256 l 188 1256 l 315 956 l 96 956 m 56 0 l 56 894 l 354 894 l 354 0 l 56 0 z "},"Ỉ":{"ha":410,"x_min":50,"x_max":424,"o":"m 86 956 l 86 1068 q 181 1088 156 1072 q 207 1125 207 1103 q 131 1168 207 1168 q 88 1165 110 1168 q 50 1156 67 1161 l 50 1275 q 124 1290 82 1285 q 221 1294 165 1294 q 372 1253 319 1294 q 424 1150 424 1213 q 395 1058 424 1089 q 308 1008 367 1026 l 308 956 l 86 956 m 56 0 l 56 894 l 354 894 l 354 0 l 56 0 z "},"Ī":{"ha":410,"x_min":-31,"x_max":439,"o":"m -31 1007 l -31 1182 l 439 1182 l 439 1007 l -31 1007 m 56 0 l 56 894 l 354 894 l 354 0 l 56 0 z "},"Į":{"ha":410,"x_min":7,"x_max":356,"o":"m 56 0 l 56 894 l 354 894 l 354 0 l 297 0 q 244 -53 265 -25 q 224 -115 224 -82 q 286 -164 224 -164 q 324 -160 304 -164 q 356 -149 343 -156 l 356 -282 q 292 -298 333 -290 q 201 -306 250 -306 q 61 -272 115 -306 q 7 -167 7 -239 q 37 -69 7 -112 q 111 0 67 -26 l 56 0 z "},"Ĩ":{"ha":410,"x_min":-61,"x_max":471,"o":"m 344 996 q 251 1011 297 996 q 163 1041 206 1026 q 79 1056 119 1056 q -1 1040 33 1056 q -61 1000 -36 1025 l -61 1179 q -4 1213 -42 1199 q 75 1226 33 1226 q 167 1212 124 1226 q 252 1182 210 1197 q 340 1167 294 1167 q 420 1183 386 1167 q 471 1224 454 1200 l 471 1043 q 422 1010 457 1025 q 344 996 388 996 m 56 0 l 56 894 l 354 894 l 354 0 l 56 0 z "},"J":{"ha":631,"x_min":0,"x_max":582,"o":"m 218 -14 q 106 -7 160 -14 q 0 18 51 0 l 0 265 q 74 245 33 251 q 157 239 115 239 q 255 267 226 239 q 283 360 283 294 l 283 894 l 582 894 l 582 299 q 489 67 582 147 q 218 -14 396 -14 z "},"Ĵ":{"ha":631,"x_min":0,"x_max":746,"o":"m 111 956 l 340 1244 l 517 1244 l 746 956 l 535 956 l 429 1106 l 328 956 l 111 956 m 218 -14 q 106 -7 160 -14 q 0 18 51 0 l 0 265 q 74 245 33 251 q 157 239 115 239 q 255 267 226 239 q 283 360 283 294 l 283 894 l 582 894 l 582 299 q 489 67 582 147 q 218 -14 396 -14 z "},"K":{"ha":978,"x_min":56,"x_max":950,"o":"m 56 0 l 56 894 l 354 894 l 354 611 l 588 894 l 925 894 l 615 525 l 950 0 l 633 0 l 432 336 l 354 246 l 354 0 l 56 0 z "},"Ķ":{"ha":978,"x_min":56,"x_max":950,"o":"m 56 0 l 56 894 l 354 894 l 354 611 l 588 894 l 925 894 l 615 525 l 950 0 l 633 0 l 432 336 l 354 246 l 354 0 l 56 0 m 338 -381 l 386 -51 l 617 -51 l 532 -381 l 338 -381 z "},"L":{"ha":738,"x_min":56,"x_max":738,"o":"m 56 0 l 56 894 l 354 894 l 354 228 l 738 228 l 738 0 l 56 0 z "},"Ĺ":{"ha":738,"x_min":56,"x_max":738,"o":"m 93 956 l 221 1256 l 451 1256 l 311 956 l 93 956 m 56 0 l 56 894 l 354 894 l 354 228 l 738 228 l 738 0 l 56 0 z "},"Ľ":{"ha":738,"x_min":56,"x_max":740,"o":"m 56 0 l 56 894 l 354 894 l 354 228 l 738 228 l 738 0 l 56 0 m 461 565 l 510 894 l 740 894 l 656 565 l 461 565 z "},"Ļ":{"ha":738,"x_min":56,"x_max":738,"o":"m 56 0 l 56 894 l 354 894 l 354 228 l 738 228 l 738 0 l 56 0 m 272 -381 l 321 -51 l 551 -51 l 467 -381 l 272 -381 z "},"Ŀ":{"ha":738,"x_min":56,"x_max":738,"o":"m 56 0 l 56 894 l 354 894 l 354 228 l 738 228 l 738 0 l 56 0 m 478 417 l 478 599 l 676 599 l 676 417 l 478 417 z "},"Ḷ":{"ha":738,"x_min":56,"x_max":738,"o":"m 56 0 l 56 894 l 354 894 l 354 228 l 738 228 l 738 0 l 56 0 m 285 -243 l 285 -62 l 483 -62 l 483 -243 l 285 -243 z "},"Ḹ":{"ha":740,"x_min":-31,"x_max":740,"o":"m -31 996 l -31 1171 l 440 1171 l 440 996 l -31 996 m 58 0 l 58 894 l 357 894 l 357 228 l 740 228 l 740 0 l 58 0 m 286 -243 l 286 -62 l 485 -62 l 485 -243 l 286 -243 z "},"Ḻ":{"ha":738,"x_min":56,"x_max":738,"o":"m 56 0 l 56 894 l 354 894 l 354 228 l 738 228 l 738 0 l 56 0 m 151 -243 l 151 -68 l 622 -68 l 622 -243 l 151 -243 z "},"Ł":{"ha":767,"x_min":-14,"x_max":767,"o":"m 83 0 l 83 314 l -14 272 l -14 482 l 83 524 l 83 894 l 382 894 l 382 656 l 490 703 l 490 493 l 382 446 l 382 228 l 767 228 l 767 0 l 83 0 z "},"M":{"ha":1086,"x_min":56,"x_max":1031,"o":"m 56 0 l 56 894 l 342 894 l 544 482 l 744 894 l 1031 894 l 1031 0 l 732 0 l 732 381 l 621 153 l 465 153 l 354 381 l 354 0 l 56 0 z "},"Ṃ":{"ha":1086,"x_min":56,"x_max":1031,"o":"m 56 0 l 56 894 l 342 894 l 544 482 l 744 894 l 1031 894 l 1031 0 l 732 0 l 732 381 l 621 153 l 465 153 l 354 381 l 354 0 l 56 0 m 446 -244 l 446 -64 l 644 -64 l 644 -244 l 446 -244 z "},"N":{"ha":956,"x_min":56,"x_max":900,"o":"m 56 0 l 56 894 l 307 894 l 601 482 l 601 894 l 900 894 l 900 0 l 646 0 l 354 411 l 354 0 l 56 0 z "},"Ń":{"ha":956,"x_min":56,"x_max":900,"o":"m 331 956 l 458 1256 l 689 1256 l 549 956 l 331 956 m 56 0 l 56 894 l 307 894 l 601 482 l 601 894 l 900 894 l 900 0 l 646 0 l 354 411 l 354 0 l 56 0 z "},"Ň":{"ha":956,"x_min":56,"x_max":900,"o":"m 383 956 l 154 1244 l 371 1244 l 472 1094 l 578 1244 l 789 1244 l 560 956 l 383 956 m 56 0 l 56 894 l 307 894 l 601 482 l 601 894 l 900 894 l 900 0 l 646 0 l 354 411 l 354 0 l 56 0 z "},"Ņ":{"ha":956,"x_min":56,"x_max":900,"o":"m 56 0 l 56 894 l 307 894 l 601 482 l 601 894 l 900 894 l 900 0 l 646 0 l 354 411 l 354 0 l 56 0 m 333 -381 l 382 -51 l 613 -51 l 528 -381 l 333 -381 z "},"Ṅ":{"ha":956,"x_min":56,"x_max":900,"o":"m 375 994 l 375 1176 l 574 1176 l 574 994 l 375 994 m 56 0 l 56 894 l 307 894 l 601 482 l 601 894 l 900 894 l 900 0 l 646 0 l 354 411 l 354 0 l 56 0 z "},"Ṇ":{"ha":956,"x_min":56,"x_max":900,"o":"m 56 0 l 56 894 l 307 894 l 601 482 l 601 894 l 900 894 l 900 0 l 646 0 l 354 411 l 354 0 l 56 0 m 382 -244 l 382 -64 l 581 -64 l 581 -244 l 382 -244 z "},"Ŋ":{"ha":956,"x_min":56,"x_max":900,"o":"m 632 -325 q 528 -317 574 -325 q 442 -292 482 -308 l 442 -103 q 525 -117 482 -117 q 600 -51 600 -117 l 600 64 l 354 411 l 354 0 l 56 0 l 56 894 l 307 894 l 600 482 l 600 894 l 900 894 l 900 -72 q 837 -253 900 -182 q 632 -325 774 -325 z "},"Ṉ":{"ha":956,"x_min":56,"x_max":900,"o":"m 56 0 l 56 894 l 307 894 l 601 482 l 601 894 l 900 894 l 900 0 l 646 0 l 354 411 l 354 0 l 56 0 m 246 -244 l 246 -69 l 717 -69 l 717 -244 l 246 -244 z "},"Ñ":{"ha":956,"x_min":56,"x_max":900,"o":"m 628 964 q 535 979 581 964 q 446 1009 489 994 q 363 1024 403 1024 q 282 1008 317 1024 q 222 968 247 993 l 222 1147 q 279 1181 242 1167 q 358 1194 317 1194 q 450 1180 407 1194 q 535 1150 493 1165 q 624 1135 578 1135 q 703 1151 669 1135 q 754 1192 738 1168 l 754 1011 q 706 978 740 993 q 628 964 671 964 m 56 0 l 56 894 l 307 894 l 601 482 l 601 894 l 900 894 l 900 0 l 646 0 l 354 411 l 354 0 l 56 0 z "},"O":{"ha":992,"x_min":28,"x_max":964,"o":"m 496 -14 q 242 32 346 -14 q 83 179 138 78 q 28 446 28 281 q 83 715 28 614 q 242 863 138 817 q 496 908 346 908 q 750 863 646 908 q 909 715 854 817 q 964 446 964 614 q 909 179 964 281 q 750 32 854 78 q 496 -14 646 -14 m 496 239 q 620 288 582 239 q 658 446 658 336 q 620 608 658 561 q 496 654 582 654 q 370 608 408 654 q 332 446 332 561 q 370 288 332 336 q 496 239 408 239 z "},"Ó":{"ha":992,"x_min":28,"x_max":964,"o":"m 364 956 l 492 1256 l 722 1256 l 582 956 l 364 956 m 496 -14 q 242 32 346 -14 q 83 179 138 78 q 28 446 28 281 q 83 715 28 614 q 242 863 138 817 q 496 908 346 908 q 750 863 646 908 q 909 715 854 817 q 964 446 964 614 q 909 179 964 281 q 750 32 854 78 q 496 -14 646 -14 m 496 239 q 620 288 582 239 q 658 446 658 336 q 620 608 658 561 q 496 654 582 654 q 370 608 408 654 q 332 446 332 561 q 370 288 332 336 q 496 239 408 239 z "},"Ŏ":{"ha":992,"x_min":28,"x_max":964,"o":"m 494 956 q 289 1028 367 956 q 211 1239 211 1101 l 403 1239 q 423 1155 403 1190 q 494 1119 443 1119 q 567 1155 547 1119 q 588 1239 588 1190 l 781 1239 q 702 1028 781 1101 q 494 956 624 956 m 496 -14 q 242 32 346 -14 q 83 179 138 78 q 28 446 28 281 q 83 715 28 614 q 242 863 138 817 q 496 908 346 908 q 750 863 646 908 q 909 715 854 817 q 964 446 964 614 q 909 179 964 281 q 750 32 854 78 q 496 -14 646 -14 m 496 239 q 620 288 582 239 q 658 446 658 336 q 620 608 658 561 q 496 654 582 654 q 370 608 408 654 q 332 446 332 561 q 370 288 332 336 q 496 239 408 239 z "},"Ǒ":{"ha":992,"x_min":28,"x_max":964,"o":"m 407 956 l 178 1244 l 394 1244 l 496 1094 l 601 1244 l 813 1244 l 583 956 l 407 956 m 496 -14 q 242 32 346 -14 q 83 179 138 78 q 28 446 28 281 q 83 715 28 614 q 242 863 138 817 q 496 908 346 908 q 750 863 646 908 q 909 715 854 817 q 964 446 964 614 q 909 179 964 281 q 750 32 854 78 q 496 -14 646 -14 m 496 239 q 620 288 582 239 q 658 446 658 336 q 620 608 658 561 q 496 654 582 654 q 370 608 408 654 q 332 446 332 561 q 370 288 332 336 q 496 239 408 239 z "},"Ô":{"ha":992,"x_min":28,"x_max":964,"o":"m 179 956 l 408 1244 l 585 1244 l 814 956 l 603 956 l 497 1106 l 396 956 l 179 956 m 496 -14 q 242 32 346 -14 q 83 179 138 78 q 28 446 28 281 q 83 715 28 614 q 242 863 138 817 q 496 908 346 908 q 750 863 646 908 q 909 715 854 817 q 964 446 964 614 q 909 179 964 281 q 750 32 854 78 q 496 -14 646 -14 m 496 239 q 620 288 582 239 q 658 446 658 336 q 620 608 658 561 q 496 654 582 654 q 370 608 408 654 q 332 446 332 561 q 370 288 332 336 q 496 239 408 239 z "},"Ố":{"ha":992,"x_min":28,"x_max":996,"o":"m 676 1133 l 778 1361 l 996 1361 l 885 1133 l 676 1133 m 175 956 l 383 1178 l 600 1178 l 808 956 l 574 956 l 492 1063 l 413 956 l 175 956 m 496 -14 q 242 32 346 -14 q 83 179 138 78 q 28 446 28 281 q 83 715 28 614 q 242 863 138 817 q 496 908 346 908 q 750 863 646 908 q 909 715 854 817 q 964 446 964 614 q 909 179 964 281 q 750 32 854 78 q 496 -14 646 -14 m 496 239 q 620 288 582 239 q 658 446 658 336 q 620 608 658 561 q 496 654 582 654 q 370 608 408 654 q 332 446 332 561 q 370 288 332 336 q 496 239 408 239 z "},"Ộ":{"ha":992,"x_min":28,"x_max":964,"o":"m 179 956 l 408 1244 l 585 1244 l 814 956 l 603 956 l 497 1106 l 396 956 l 179 956 m 496 -14 q 242 32 346 -14 q 83 179 138 78 q 28 446 28 281 q 83 715 28 614 q 242 863 138 817 q 496 908 346 908 q 750 863 646 908 q 909 715 854 817 q 964 446 964 614 q 909 179 964 281 q 750 32 854 78 q 496 -14 646 -14 m 496 239 q 620 288 582 239 q 658 446 658 336 q 620 608 658 561 q 496 654 582 654 q 370 608 408 654 q 332 446 332 561 q 370 288 332 336 q 496 239 408 239 m 399 -244 l 399 -64 l 597 -64 l 597 -244 l 399 -244 z "},"Ồ":{"ha":992,"x_min":-8,"x_max":964,"o":"m 104 1133 l -8 1361 l 211 1361 l 313 1133 l 104 1133 m 179 956 l 388 1178 l 606 1178 l 814 956 l 576 956 l 496 1063 l 414 956 l 179 956 m 496 -14 q 242 32 346 -14 q 83 179 138 78 q 28 446 28 281 q 83 715 28 614 q 242 863 138 817 q 496 908 346 908 q 750 863 646 908 q 909 715 854 817 q 964 446 964 614 q 909 179 964 281 q 750 32 854 78 q 496 -14 646 -14 m 496 239 q 620 288 582 239 q 658 446 658 336 q 620 608 658 561 q 496 654 582 654 q 370 608 408 654 q 332 446 332 561 q 370 288 332 336 q 496 239 408 239 z "},"Ổ":{"ha":992,"x_min":28,"x_max":985,"o":"m 690 1101 l 690 1208 q 766 1220 747 1210 q 785 1246 785 1231 q 732 1271 785 1271 q 696 1267 714 1271 q 663 1260 678 1264 l 663 1374 q 728 1385 690 1381 q 813 1390 765 1390 q 942 1356 899 1390 q 985 1267 985 1321 q 961 1188 985 1219 q 886 1146 938 1156 l 886 1101 l 690 1101 m 174 956 l 382 1178 l 600 1178 l 808 956 l 574 956 l 492 1063 l 411 956 l 174 956 m 496 -14 q 242 32 346 -14 q 83 179 138 78 q 28 446 28 281 q 83 715 28 614 q 242 863 138 817 q 496 908 346 908 q 750 863 646 908 q 909 715 854 817 q 964 446 964 614 q 909 179 964 281 q 750 32 854 78 q 496 -14 646 -14 m 496 239 q 620 288 582 239 q 658 446 658 336 q 620 608 658 561 q 496 654 582 654 q 370 608 408 654 q 332 446 332 561 q 370 288 332 336 q 496 239 408 239 z "},"Ỗ":{"ha":992,"x_min":28,"x_max":964,"o":"m 619 1192 q 534 1206 576 1192 q 452 1235 492 1221 q 375 1249 413 1249 q 299 1235 332 1249 q 243 1196 267 1221 l 243 1342 q 297 1374 263 1361 q 371 1386 332 1386 q 456 1372 417 1386 q 535 1344 496 1358 q 615 1329 574 1329 q 690 1344 658 1329 q 739 1383 722 1360 l 739 1236 q 692 1205 725 1218 q 619 1192 660 1192 m 174 956 l 382 1178 l 600 1178 l 808 956 l 574 956 l 492 1063 l 411 956 l 174 956 m 496 -14 q 242 32 346 -14 q 83 179 138 78 q 28 446 28 281 q 83 715 28 614 q 242 863 138 817 q 496 908 346 908 q 750 863 646 908 q 909 715 854 817 q 964 446 964 614 q 909 179 964 281 q 750 32 854 78 q 496 -14 646 -14 m 496 239 q 620 288 582 239 q 658 446 658 336 q 620 608 658 561 q 496 654 582 654 q 370 608 408 654 q 332 446 332 561 q 370 288 332 336 q 496 239 408 239 z "},"Ö":{"ha":992,"x_min":28,"x_max":964,"o":"m 239 994 l 239 1176 l 439 1176 l 439 994 l 239 994 m 553 994 l 553 1176 l 751 1176 l 751 994 l 553 994 m 496 -14 q 242 32 346 -14 q 83 179 138 78 q 28 446 28 281 q 83 715 28 614 q 242 863 138 817 q 496 908 346 908 q 750 863 646 908 q 909 715 854 817 q 964 446 964 614 q 909 179 964 281 q 750 32 854 78 q 496 -14 646 -14 m 496 239 q 620 288 582 239 q 658 446 658 336 q 620 608 658 561 q 496 654 582 654 q 370 608 408 654 q 332 446 332 561 q 370 288 332 336 q 496 239 408 239 z "},"Ọ":{"ha":992,"x_min":28,"x_max":964,"o":"m 496 -14 q 242 32 346 -14 q 83 179 138 78 q 28 446 28 281 q 83 715 28 614 q 242 863 138 817 q 496 908 346 908 q 750 863 646 908 q 909 715 854 817 q 964 446 964 614 q 909 179 964 281 q 750 32 854 78 q 496 -14 646 -14 m 496 239 q 620 288 582 239 q 658 446 658 336 q 620 608 658 561 q 496 654 582 654 q 370 608 408 654 q 332 446 332 561 q 370 288 332 336 q 496 239 408 239 m 397 -244 l 397 -64 l 596 -64 l 596 -244 l 397 -244 z "},"Ò":{"ha":992,"x_min":28,"x_max":964,"o":"m 393 956 l 253 1256 l 485 1256 l 613 956 l 393 956 m 496 -14 q 242 32 346 -14 q 83 179 138 78 q 28 446 28 281 q 83 715 28 614 q 242 863 138 817 q 496 908 346 908 q 750 863 646 908 q 909 715 854 817 q 964 446 964 614 q 909 179 964 281 q 750 32 854 78 q 496 -14 646 -14 m 496 239 q 620 288 582 239 q 658 446 658 336 q 620 608 658 561 q 496 654 582 654 q 370 608 408 654 q 332 446 332 561 q 370 288 332 336 q 496 239 408 239 z "},"Ỏ":{"ha":992,"x_min":28,"x_max":964,"o":"m 376 956 l 376 1068 q 472 1088 446 1072 q 497 1125 497 1103 q 421 1168 497 1168 q 378 1165 400 1168 q 340 1156 357 1161 l 340 1275 q 414 1290 372 1285 q 511 1294 456 1294 q 662 1253 610 1294 q 714 1150 714 1213 q 685 1058 714 1089 q 599 1008 657 1026 l 599 956 l 376 956 m 496 -14 q 242 32 346 -14 q 83 179 138 78 q 28 446 28 281 q 83 715 28 614 q 242 863 138 817 q 496 908 346 908 q 750 863 646 908 q 909 715 854 817 q 964 446 964 614 q 909 179 964 281 q 750 32 854 78 q 496 -14 646 -14 m 496 239 q 620 288 582 239 q 658 446 658 336 q 620 608 658 561 q 496 654 582 654 q 370 608 408 654 q 332 446 332 561 q 370 288 332 336 q 496 239 408 239 z "},"Ơ":{"ha":1118,"x_min":28,"x_max":1104,"o":"m 496 -14 q 242 32 346 -14 q 83 179 138 78 q 28 446 28 281 q 83 715 28 614 q 242 863 138 817 q 496 908 346 908 q 680 888 599 908 q 821 821 761 867 q 897 857 874 826 q 919 956 919 888 l 1104 956 q 1063 756 1104 824 q 931 665 1022 689 q 964 446 964 575 q 909 179 964 281 q 750 32 854 78 q 496 -14 646 -14 m 496 239 q 620 288 582 239 q 658 446 658 336 q 620 608 658 561 q 496 654 582 654 q 370 608 408 654 q 332 446 332 561 q 370 288 332 336 q 496 239 408 239 z "},"Ớ":{"ha":1118,"x_min":28,"x_max":1104,"o":"m 386 956 l 514 1256 l 744 1256 l 604 956 l 386 956 m 496 -14 q 242 32 346 -14 q 83 179 138 78 q 28 446 28 281 q 83 715 28 614 q 242 863 138 817 q 496 908 346 908 q 680 888 599 908 q 821 821 761 867 q 897 857 874 826 q 919 956 919 888 l 1104 956 q 1063 756 1104 824 q 931 665 1022 689 q 964 446 964 575 q 909 179 964 281 q 750 32 854 78 q 496 -14 646 -14 m 496 239 q 620 288 582 239 q 658 446 658 336 q 620 608 658 561 q 496 654 582 654 q 370 608 408 654 q 332 446 332 561 q 370 288 332 336 q 496 239 408 239 z "},"Ợ":{"ha":1118,"x_min":28,"x_max":1104,"o":"m 496 -14 q 242 32 346 -14 q 83 179 138 78 q 28 446 28 281 q 83 715 28 614 q 242 863 138 817 q 496 908 346 908 q 680 888 599 908 q 821 821 761 867 q 897 857 874 826 q 919 956 919 888 l 1104 956 q 1063 756 1104 824 q 931 665 1022 689 q 964 446 964 575 q 909 179 964 281 q 750 32 854 78 q 496 -14 646 -14 m 496 239 q 620 288 582 239 q 658 446 658 336 q 620 608 658 561 q 496 654 582 654 q 370 608 408 654 q 332 446 332 561 q 370 288 332 336 q 496 239 408 239 m 396 -244 l 396 -64 l 594 -64 l 594 -244 l 396 -244 z "},"Ờ":{"ha":1118,"x_min":28,"x_max":1104,"o":"m 404 956 l 264 1256 l 496 1256 l 624 956 l 404 956 m 496 -14 q 242 32 346 -14 q 83 179 138 78 q 28 446 28 281 q 83 715 28 614 q 242 863 138 817 q 496 908 346 908 q 680 888 599 908 q 821 821 761 867 q 897 857 874 826 q 919 956 919 888 l 1104 956 q 1063 756 1104 824 q 931 665 1022 689 q 964 446 964 575 q 909 179 964 281 q 750 32 854 78 q 496 -14 646 -14 m 496 239 q 620 288 582 239 q 658 446 658 336 q 620 608 658 561 q 496 654 582 654 q 370 608 408 654 q 332 446 332 561 q 370 288 332 336 q 496 239 408 239 z "},"Ở":{"ha":1118,"x_min":28,"x_max":1104,"o":"m 379 956 l 379 1068 q 474 1088 449 1072 q 500 1125 500 1103 q 424 1168 500 1168 q 381 1165 403 1168 q 343 1156 360 1161 l 343 1275 q 417 1290 375 1285 q 514 1294 458 1294 q 665 1253 613 1294 q 717 1150 717 1213 q 688 1058 717 1089 q 601 1008 660 1026 l 601 956 l 379 956 m 496 -14 q 242 32 346 -14 q 83 179 138 78 q 28 446 28 281 q 83 715 28 614 q 242 863 138 817 q 496 908 346 908 q 680 888 599 908 q 821 821 761 867 q 897 857 874 826 q 919 956 919 888 l 1104 956 q 1063 756 1104 824 q 931 665 1022 689 q 964 446 964 575 q 909 179 964 281 q 750 32 854 78 q 496 -14 646 -14 m 496 239 q 620 288 582 239 q 658 446 658 336 q 620 608 658 561 q 496 654 582 654 q 370 608 408 654 q 332 446 332 561 q 370 288 332 336 q 496 239 408 239 z "},"Ỡ":{"ha":1118,"x_min":28,"x_max":1104,"o":"m 638 958 q 544 974 590 958 q 456 1003 499 989 q 372 1018 413 1018 q 292 1003 326 1018 q 232 963 257 988 l 232 1142 q 289 1175 251 1161 q 368 1189 326 1189 q 460 1174 417 1189 q 545 1144 503 1160 q 633 1129 588 1129 q 713 1146 679 1129 q 764 1186 747 1163 l 764 1006 q 715 973 750 988 q 638 958 681 958 m 496 -14 q 242 32 346 -14 q 83 179 138 78 q 28 446 28 281 q 83 715 28 614 q 242 863 138 817 q 496 908 346 908 q 680 888 599 908 q 821 821 761 867 q 897 857 874 826 q 919 956 919 888 l 1104 956 q 1063 756 1104 824 q 931 665 1022 689 q 964 446 964 575 q 909 179 964 281 q 750 32 854 78 q 496 -14 646 -14 m 496 239 q 620 288 582 239 q 658 446 658 336 q 620 608 658 561 q 496 654 582 654 q 370 608 408 654 q 332 446 332 561 q 370 288 332 336 q 496 239 408 239 z "},"Ő":{"ha":992,"x_min":28,"x_max":964,"o":"m 161 956 l 286 1225 l 539 1225 l 389 956 l 161 956 m 511 956 l 636 1225 l 889 1225 l 739 956 l 511 956 m 496 -14 q 242 32 346 -14 q 83 179 138 78 q 28 446 28 281 q 83 715 28 614 q 242 863 138 817 q 496 908 346 908 q 750 863 646 908 q 909 715 854 817 q 964 446 964 614 q 909 179 964 281 q 750 32 854 78 q 496 -14 646 -14 m 496 239 q 620 288 582 239 q 658 446 658 336 q 620 608 658 561 q 496 654 582 654 q 370 608 408 654 q 332 446 332 561 q 370 288 332 336 q 496 239 408 239 z "},"Ō":{"ha":992,"x_min":28,"x_max":964,"o":"m 254 1008 l 254 1183 l 725 1183 l 725 1008 l 254 1008 m 496 -14 q 242 32 346 -14 q 83 179 138 78 q 28 446 28 281 q 83 715 28 614 q 242 863 138 817 q 496 908 346 908 q 750 863 646 908 q 909 715 854 817 q 964 446 964 614 q 909 179 964 281 q 750 32 854 78 q 496 -14 646 -14 m 496 239 q 620 288 582 239 q 658 446 658 336 q 620 608 658 561 q 496 654 582 654 q 370 608 408 654 q 332 446 332 561 q 370 288 332 336 q 496 239 408 239 z "},"Ø":{"ha":992,"x_min":28,"x_max":964,"o":"m 221 -74 l 260 24 q 87 171 146 68 q 28 446 28 274 q 83 715 28 614 q 242 863 138 817 q 496 908 346 908 q 611 900 557 908 l 636 963 l 761 963 l 725 872 q 902 726 840 829 q 964 446 964 624 q 909 179 964 281 q 750 32 854 78 q 496 -14 646 -14 q 372 -6 431 -14 l 346 -74 l 221 -74 m 365 286 l 514 657 q 505 658 510 657 q 496 658 500 658 q 368 610 407 658 q 329 446 329 563 q 365 286 329 336 m 469 235 l 496 235 q 624 283 585 235 q 663 446 663 332 q 621 613 663 563 l 469 235 z "},"Ǿ":{"ha":992,"x_min":28,"x_max":964,"o":"m 350 956 l 478 1256 l 708 1256 l 568 956 l 350 956 m 221 -74 l 260 24 q 87 171 146 68 q 28 446 28 274 q 83 715 28 614 q 242 863 138 817 q 496 908 346 908 q 611 900 557 908 l 636 963 l 761 963 l 725 872 q 902 726 840 829 q 964 446 964 624 q 909 179 964 281 q 750 32 854 78 q 496 -14 646 -14 q 372 -6 431 -14 l 346 -74 l 221 -74 m 365 286 l 514 657 q 505 658 510 657 q 496 658 500 658 q 368 610 407 658 q 329 446 329 563 q 365 286 329 336 m 469 235 l 496 235 q 624 283 585 235 q 663 446 663 332 q 621 613 663 563 l 469 235 z "},"Õ":{"ha":992,"x_min":28,"x_max":964,"o":"m 636 989 q 543 1004 589 989 q 454 1034 497 1019 q 371 1049 411 1049 q 290 1033 325 1049 q 231 993 256 1018 l 231 1172 q 288 1206 250 1192 q 367 1219 325 1219 q 458 1205 415 1219 q 544 1175 501 1190 q 632 1160 586 1160 q 712 1176 678 1160 q 763 1217 746 1193 l 763 1036 q 714 1003 749 1018 q 636 989 679 989 m 496 -14 q 242 32 346 -14 q 83 179 138 78 q 28 446 28 281 q 83 715 28 614 q 242 863 138 817 q 496 908 346 908 q 750 863 646 908 q 909 715 854 817 q 964 446 964 614 q 909 179 964 281 q 750 32 854 78 q 496 -14 646 -14 m 496 239 q 620 288 582 239 q 658 446 658 336 q 620 608 658 561 q 496 654 582 654 q 370 608 408 654 q 332 446 332 561 q 370 288 332 336 q 496 239 408 239 z "},"Œ":{"ha":1385,"x_min":28,"x_max":1357,"o":"m 496 -14 q 242 32 346 -14 q 83 179 138 78 q 28 446 28 281 q 83 715 28 614 q 242 863 138 817 q 496 908 346 908 q 661 892 589 908 l 661 894 l 1357 894 l 1357 674 l 960 674 l 960 560 l 1306 560 l 1306 333 l 960 333 l 960 221 l 1357 221 l 1357 0 l 661 0 l 661 3 q 496 -14 588 -14 m 496 239 q 620 288 582 239 q 658 446 658 336 q 620 608 658 561 q 496 654 582 654 q 370 608 408 654 q 332 446 332 561 q 370 288 332 336 q 496 239 408 239 z "},"P":{"ha":868,"x_min":56,"x_max":868,"o":"m 56 0 l 56 894 l 538 894 q 723 849 650 894 q 832 726 796 803 q 868 556 868 649 q 826 383 868 460 q 710 263 785 307 q 532 219 635 219 l 354 219 l 354 0 l 56 0 m 354 451 l 463 451 q 538 480 513 451 q 564 556 564 508 q 540 634 564 606 q 468 663 517 663 l 354 663 l 354 451 z "},"Þ":{"ha":868,"x_min":56,"x_max":868,"o":"m 56 0 l 56 894 l 354 894 l 354 781 l 538 781 q 723 735 650 781 q 832 615 796 690 q 868 446 868 539 q 826 274 868 350 q 710 156 785 199 q 532 113 635 113 l 354 113 l 354 0 l 56 0 m 354 343 l 463 343 q 538 371 513 343 q 564 446 564 399 q 468 550 564 550 l 354 550 l 354 343 z "},"Q":{"ha":992,"x_min":28,"x_max":964,"o":"m 636 -239 q 438 -177 497 -239 q 375 -6 378 -115 q 117 126 207 19 q 28 446 28 233 q 83 715 28 614 q 242 863 138 817 q 496 908 346 908 q 750 863 646 908 q 909 715 854 817 q 964 446 964 614 q 872 125 964 232 q 611 -6 781 18 q 632 -51 614 -39 q 685 -62 650 -62 q 778 -47 732 -62 l 778 -221 q 715 -233 754 -228 q 636 -239 676 -239 m 496 239 q 620 288 582 239 q 658 446 658 336 q 620 608 658 561 q 496 654 582 654 q 370 608 408 654 q 332 446 332 561 q 370 288 332 336 q 496 239 408 239 z "},"R":{"ha":896,"x_min":56,"x_max":868,"o":"m 56 0 l 56 894 l 539 894 q 724 852 651 894 q 833 736 797 810 q 868 568 868 663 q 822 409 868 478 q 707 300 776 340 q 751 239 733 279 l 856 0 l 544 0 l 453 207 q 432 236 443 228 q 397 244 421 244 l 354 244 l 354 0 l 56 0 m 354 475 l 464 475 q 564 568 564 475 q 471 663 564 663 l 354 663 l 354 475 z "},"Ŕ":{"ha":896,"x_min":56,"x_max":868,"o":"m 265 956 l 393 1256 l 624 1256 l 483 956 l 265 956 m 56 0 l 56 894 l 539 894 q 724 852 651 894 q 833 736 797 810 q 868 568 868 663 q 822 409 868 478 q 707 300 776 340 q 751 239 733 279 l 856 0 l 544 0 l 453 207 q 432 236 443 228 q 397 244 421 244 l 354 244 l 354 0 l 56 0 m 354 475 l 464 475 q 564 568 564 475 q 471 663 564 663 l 354 663 l 354 475 z "},"Ř":{"ha":896,"x_min":56,"x_max":868,"o":"m 308 956 l 79 1244 l 296 1244 l 397 1094 l 503 1244 l 714 1244 l 485 956 l 308 956 m 56 0 l 56 894 l 539 894 q 724 852 651 894 q 833 736 797 810 q 868 568 868 663 q 822 409 868 478 q 707 300 776 340 q 751 239 733 279 l 856 0 l 544 0 l 453 207 q 432 236 443 228 q 397 244 421 244 l 354 244 l 354 0 l 56 0 m 354 475 l 464 475 q 564 568 564 475 q 471 663 564 663 l 354 663 l 354 475 z "},"Ŗ":{"ha":896,"x_min":56,"x_max":868,"o":"m 56 0 l 56 894 l 539 894 q 724 852 651 894 q 833 736 797 810 q 868 568 868 663 q 822 409 868 478 q 707 300 776 340 q 751 239 733 279 l 856 0 l 544 0 l 453 207 q 432 236 443 228 q 397 244 421 244 l 354 244 l 354 0 l 56 0 m 354 475 l 464 475 q 564 568 564 475 q 471 663 564 663 l 354 663 l 354 475 m 279 -381 l 328 -51 l 558 -51 l 474 -381 l 279 -381 z "},"Ṛ":{"ha":896,"x_min":56,"x_max":868,"o":"m 56 0 l 56 894 l 539 894 q 724 852 651 894 q 833 736 797 810 q 868 568 868 663 q 822 409 868 478 q 707 300 776 340 q 751 239 733 279 l 856 0 l 544 0 l 453 207 q 432 236 443 228 q 397 244 421 244 l 354 244 l 354 0 l 56 0 m 354 475 l 464 475 q 564 568 564 475 q 471 663 564 663 l 354 663 l 354 475 m 324 -243 l 324 -62 l 522 -62 l 522 -243 l 324 -243 z "},"Ṝ":{"ha":896,"x_min":56,"x_max":868,"o":"m 154 996 l 154 1171 l 625 1171 l 625 996 l 154 996 m 56 0 l 56 894 l 539 894 q 724 852 651 894 q 833 736 797 810 q 868 568 868 663 q 822 409 868 478 q 707 300 776 340 q 751 239 733 279 l 856 0 l 544 0 l 453 207 q 432 236 443 228 q 397 244 421 244 l 354 244 l 354 0 l 56 0 m 354 475 l 464 475 q 564 568 564 475 q 471 663 564 663 l 354 663 l 354 475 m 317 -243 l 317 -62 l 515 -62 l 515 -243 l 317 -243 z "},"Ṟ":{"ha":896,"x_min":56,"x_max":868,"o":"m 56 0 l 56 894 l 539 894 q 724 852 651 894 q 833 736 797 810 q 868 568 868 663 q 822 409 868 478 q 707 300 776 340 q 751 239 733 279 l 856 0 l 544 0 l 453 207 q 432 236 443 228 q 397 244 421 244 l 354 244 l 354 0 l 56 0 m 354 475 l 464 475 q 564 568 564 475 q 471 663 564 663 l 354 663 l 354 475 m 189 -243 l 189 -68 l 660 -68 l 660 -243 l 189 -243 z "},"S":{"ha":774,"x_min":28,"x_max":746,"o":"m 357 -14 q 180 1 264 -14 q 38 44 96 17 l 38 278 q 181 228 103 247 q 325 208 260 208 q 410 219 381 208 q 440 261 440 231 q 394 312 440 296 q 263 357 349 328 q 123 423 174 388 q 50 509 72 458 q 28 633 28 560 q 410 908 28 908 q 510 902 457 908 q 613 887 564 896 q 697 867 663 878 l 697 632 q 567 672 626 660 q 460 683 508 683 q 372 676 411 683 q 332 636 332 668 q 367 597 332 610 q 483 561 401 583 q 649 489 593 531 q 726 391 706 447 q 746 263 746 335 q 649 62 746 138 q 357 -14 551 -14 z "},"Ś":{"ha":774,"x_min":28,"x_max":746,"o":"m 258 956 l 386 1256 l 617 1256 l 476 956 l 258 956 m 357 -14 q 180 1 264 -14 q 38 44 96 17 l 38 278 q 181 228 103 247 q 325 208 260 208 q 410 219 381 208 q 440 261 440 231 q 394 312 440 296 q 263 357 349 328 q 123 423 174 388 q 50 509 72 458 q 28 633 28 560 q 410 908 28 908 q 510 902 457 908 q 613 887 564 896 q 697 867 663 878 l 697 632 q 567 672 626 660 q 460 683 508 683 q 372 676 411 683 q 332 636 332 668 q 367 597 332 610 q 483 561 401 583 q 649 489 593 531 q 726 391 706 447 q 746 263 746 335 q 649 62 746 138 q 357 -14 551 -14 z "},"Š":{"ha":774,"x_min":28,"x_max":746,"o":"m 294 956 l 65 1244 l 282 1244 l 383 1094 l 489 1244 l 700 1244 l 471 956 l 294 956 m 357 -14 q 180 1 264 -14 q 38 44 96 17 l 38 278 q 181 228 103 247 q 325 208 260 208 q 410 219 381 208 q 440 261 440 231 q 394 312 440 296 q 263 357 349 328 q 123 423 174 388 q 50 509 72 458 q 28 633 28 560 q 410 908 28 908 q 510 902 457 908 q 613 887 564 896 q 697 867 663 878 l 697 632 q 567 672 626 660 q 460 683 508 683 q 372 676 411 683 q 332 636 332 668 q 367 597 332 610 q 483 561 401 583 q 649 489 593 531 q 726 391 706 447 q 746 263 746 335 q 649 62 746 138 q 357 -14 551 -14 z "},"Ş":{"ha":774,"x_min":28,"x_max":746,"o":"m 346 -333 q 282 -330 321 -333 q 228 -322 243 -326 l 228 -218 q 310 -229 268 -229 q 406 -181 406 -229 q 388 -148 406 -156 q 343 -140 371 -140 l 247 -140 l 285 -11 q 149 8 213 -7 q 38 44 85 22 l 38 278 q 181 228 103 247 q 325 208 260 208 q 410 219 381 208 q 440 261 440 231 q 394 312 440 296 q 263 357 349 328 q 123 423 174 388 q 50 509 72 458 q 28 633 28 560 q 410 908 28 908 q 510 902 457 908 q 613 887 564 896 q 697 867 663 878 l 697 632 q 567 672 626 660 q 460 683 508 683 q 372 676 411 683 q 332 636 332 668 q 367 597 332 610 q 483 561 401 583 q 649 489 593 531 q 726 391 706 447 q 746 263 746 335 q 669 78 746 151 q 439 -10 593 6 l 424 -54 q 538 -92 500 -54 q 576 -186 576 -129 q 519 -294 576 -254 q 346 -333 461 -333 z "},"Ŝ":{"ha":774,"x_min":28,"x_max":746,"o":"m 64 956 l 293 1244 l 469 1244 l 699 956 l 488 956 l 382 1106 l 281 956 l 64 956 m 357 -14 q 180 1 264 -14 q 38 44 96 17 l 38 278 q 181 228 103 247 q 325 208 260 208 q 410 219 381 208 q 440 261 440 231 q 394 312 440 296 q 263 357 349 328 q 123 423 174 388 q 50 509 72 458 q 28 633 28 560 q 410 908 28 908 q 510 902 457 908 q 613 887 564 896 q 697 867 663 878 l 697 632 q 567 672 626 660 q 460 683 508 683 q 372 676 411 683 q 332 636 332 668 q 367 597 332 610 q 483 561 401 583 q 649 489 593 531 q 726 391 706 447 q 746 263 746 335 q 649 62 746 138 q 357 -14 551 -14 z "},"Ș":{"ha":774,"x_min":28,"x_max":746,"o":"m 357 -14 q 180 1 264 -14 q 38 44 96 17 l 38 278 q 181 228 103 247 q 325 208 260 208 q 410 219 381 208 q 440 261 440 231 q 394 312 440 296 q 263 357 349 328 q 123 423 174 388 q 50 509 72 458 q 28 633 28 560 q 410 908 28 908 q 510 902 457 908 q 613 887 564 896 q 697 867 663 878 l 697 632 q 567 672 626 660 q 460 683 508 683 q 372 676 411 683 q 332 636 332 668 q 367 597 332 610 q 483 561 401 583 q 649 489 593 531 q 726 391 706 447 q 746 263 746 335 q 649 62 746 138 q 357 -14 551 -14 m 231 -331 l 276 -56 l 519 -56 l 451 -331 l 231 -331 z "},"Ṡ":{"ha":774,"x_min":28,"x_max":746,"o":"m 279 994 l 279 1176 l 478 1176 l 478 994 l 279 994 m 357 -14 q 180 1 264 -14 q 38 44 96 17 l 38 278 q 181 228 103 247 q 325 208 260 208 q 410 219 381 208 q 440 261 440 231 q 394 312 440 296 q 263 357 349 328 q 123 423 174 388 q 50 509 72 458 q 28 633 28 560 q 410 908 28 908 q 510 902 457 908 q 613 887 564 896 q 697 867 663 878 l 697 632 q 567 672 626 660 q 460 683 508 683 q 372 676 411 683 q 332 636 332 668 q 367 597 332 610 q 483 561 401 583 q 649 489 593 531 q 726 391 706 447 q 746 263 746 335 q 649 62 746 138 q 357 -14 551 -14 z "},"Ṣ":{"ha":774,"x_min":28,"x_max":746,"o":"m 357 -14 q 180 1 264 -14 q 38 44 96 17 l 38 278 q 181 228 103 247 q 325 208 260 208 q 410 219 381 208 q 440 261 440 231 q 394 312 440 296 q 263 357 349 328 q 123 423 174 388 q 50 509 72 458 q 28 633 28 560 q 410 908 28 908 q 510 902 457 908 q 613 887 564 896 q 697 867 663 878 l 697 632 q 567 672 626 660 q 460 683 508 683 q 372 676 411 683 q 332 636 332 668 q 367 597 332 610 q 483 561 401 583 q 649 489 593 531 q 726 391 706 447 q 746 263 746 335 q 649 62 746 138 q 357 -14 551 -14 m 281 -244 l 281 -64 l 479 -64 l 479 -244 l 281 -244 z "},"ẞ":{"ha":900,"x_min":49,"x_max":872,"o":"m 568 -14 q 465 -6 514 -14 q 383 17 415 3 l 383 214 q 434 201 404 206 q 486 196 464 196 q 549 213 531 196 q 568 263 568 229 q 482 318 568 318 l 394 318 l 394 469 l 564 608 q 449 661 564 661 q 356 632 383 661 q 329 554 329 603 l 329 0 l 49 0 l 49 563 q 97 745 49 668 q 235 865 146 822 q 449 908 325 908 q 673 863 586 908 q 801 743 760 818 q 842 576 842 668 l 672 436 l 692 436 q 822 383 771 436 q 872 236 872 331 q 792 49 872 113 q 568 -14 711 -14 z "},"Ə":{"ha":967,"x_min":28,"x_max":939,"o":"m 476 -14 q 145 93 263 -14 q 28 393 28 200 l 28 554 l 663 554 q 585 678 649 644 q 381 711 521 711 q 276 702 336 711 q 161 680 217 693 q 72 651 106 667 l 72 843 q 238 889 139 869 q 444 908 336 908 q 708 850 597 908 q 878 685 818 792 q 939 433 939 579 q 890 197 939 297 q 738 41 840 96 q 476 -14 636 -14 m 476 171 q 621 221 579 171 q 663 360 663 271 l 288 360 l 288 324 q 333 216 288 261 q 476 171 379 171 z "},"T":{"ha":778,"x_min":0,"x_max":778,"o":"m 239 0 l 239 676 l 0 676 l 0 894 l 778 894 l 778 676 l 538 676 l 538 0 l 239 0 z "},"Ŧ":{"ha":778,"x_min":0,"x_max":778,"o":"m 239 0 l 239 350 l 118 350 l 118 544 l 239 544 l 239 676 l 0 676 l 0 894 l 778 894 l 778 676 l 538 676 l 538 544 l 651 544 l 651 350 l 538 350 l 538 0 l 239 0 z "},"Ť":{"ha":778,"x_min":0,"x_max":778,"o":"m 301 956 l 72 1244 l 289 1244 l 390 1094 l 496 1244 l 707 1244 l 478 956 l 301 956 m 239 0 l 239 676 l 0 676 l 0 894 l 778 894 l 778 676 l 538 676 l 538 0 l 239 0 z "},"Ţ":{"ha":778,"x_min":0,"x_max":778,"o":"m 239 0 l 239 676 l 0 676 l 0 894 l 778 894 l 778 676 l 538 676 l 538 0 l 465 0 l 446 -54 q 560 -92 522 -54 q 599 -186 599 -129 q 541 -294 599 -254 q 368 -333 483 -333 q 304 -330 343 -333 q 250 -322 265 -326 l 250 -218 q 332 -229 290 -229 q 428 -181 428 -229 q 410 -148 428 -156 q 365 -140 393 -140 l 269 -140 l 310 0 l 239 0 z "},"Ț":{"ha":778,"x_min":0,"x_max":778,"o":"m 239 0 l 239 676 l 0 676 l 0 894 l 778 894 l 778 676 l 538 676 l 538 0 l 239 0 m 221 -385 l 269 -56 l 500 -56 l 415 -385 l 221 -385 z "},"Ṭ":{"ha":778,"x_min":0,"x_max":778,"o":"m 239 0 l 239 676 l 0 676 l 0 894 l 778 894 l 778 676 l 538 676 l 538 0 l 239 0 m 292 -244 l 292 -64 l 490 -64 l 490 -244 l 292 -244 z "},"Ṯ":{"ha":778,"x_min":0,"x_max":778,"o":"m 239 0 l 239 676 l 0 676 l 0 894 l 778 894 l 778 676 l 538 676 l 538 0 l 239 0 m 154 -244 l 154 -69 l 625 -69 l 625 -244 l 154 -244 z "},"U":{"ha":967,"x_min":49,"x_max":918,"o":"m 483 -14 q 260 28 358 -14 q 105 150 161 69 q 49 349 49 231 l 49 894 l 347 894 l 347 383 q 483 239 347 239 q 619 383 619 239 l 619 894 l 918 894 l 918 349 q 862 150 918 231 q 708 28 806 69 q 483 -14 610 -14 z "},"Ú":{"ha":967,"x_min":49,"x_max":918,"o":"m 374 956 l 501 1256 l 732 1256 l 592 956 l 374 956 m 483 -14 q 260 28 358 -14 q 105 150 161 69 q 49 349 49 231 l 49 894 l 347 894 l 347 383 q 483 239 347 239 q 619 383 619 239 l 619 894 l 918 894 l 918 349 q 862 150 918 231 q 708 28 806 69 q 483 -14 610 -14 z "},"Ŭ":{"ha":967,"x_min":49,"x_max":918,"o":"m 482 956 q 276 1028 354 956 q 199 1239 199 1101 l 390 1239 q 410 1155 390 1190 q 482 1119 431 1119 q 555 1155 535 1119 q 575 1239 575 1190 l 768 1239 q 690 1028 768 1101 q 482 956 611 956 m 483 -14 q 260 28 358 -14 q 105 150 161 69 q 49 349 49 231 l 49 894 l 347 894 l 347 383 q 483 239 347 239 q 619 383 619 239 l 619 894 l 918 894 l 918 349 q 862 150 918 231 q 708 28 806 69 q 483 -14 610 -14 z "},"Ǔ":{"ha":967,"x_min":49,"x_max":918,"o":"m 394 956 l 165 1244 l 382 1244 l 483 1094 l 589 1244 l 800 1244 l 571 956 l 394 956 m 483 -14 q 260 28 358 -14 q 105 150 161 69 q 49 349 49 231 l 49 894 l 347 894 l 347 383 q 483 239 347 239 q 619 383 619 239 l 619 894 l 918 894 l 918 349 q 862 150 918 231 q 708 28 806 69 q 483 -14 610 -14 z "},"Û":{"ha":967,"x_min":49,"x_max":918,"o":"m 167 956 l 396 1244 l 572 1244 l 801 956 l 590 956 l 485 1106 l 383 956 l 167 956 m 483 -14 q 260 28 358 -14 q 105 150 161 69 q 49 349 49 231 l 49 894 l 347 894 l 347 383 q 483 239 347 239 q 619 383 619 239 l 619 894 l 918 894 l 918 349 q 862 150 918 231 q 708 28 806 69 q 483 -14 610 -14 z "},"Ü":{"ha":967,"x_min":49,"x_max":918,"o":"m 226 994 l 226 1176 l 426 1176 l 426 994 l 226 994 m 540 994 l 540 1176 l 739 1176 l 739 994 l 540 994 m 483 -14 q 260 28 358 -14 q 105 150 161 69 q 49 349 49 231 l 49 894 l 347 894 l 347 383 q 483 239 347 239 q 619 383 619 239 l 619 894 l 918 894 l 918 349 q 862 150 918 231 q 708 28 806 69 q 483 -14 610 -14 z "},"Ǘ":{"ha":967,"x_min":49,"x_max":918,"o":"m 378 1175 l 457 1371 l 678 1371 l 578 1175 l 378 1175 m 232 965 l 232 1136 l 426 1136 l 426 965 l 232 965 m 540 965 l 540 1136 l 735 1136 l 735 965 l 540 965 m 483 -14 q 260 28 358 -14 q 105 150 161 69 q 49 349 49 231 l 49 894 l 347 894 l 347 383 q 483 239 347 239 q 619 383 619 239 l 619 894 l 918 894 l 918 349 q 862 150 918 231 q 708 28 806 69 q 483 -14 610 -14 z "},"Ǚ":{"ha":967,"x_min":49,"x_max":918,"o":"m 381 1174 l 190 1367 l 408 1367 l 483 1265 l 563 1367 l 776 1367 l 585 1174 l 381 1174 m 226 965 l 226 1136 l 421 1136 l 421 965 l 226 965 m 535 965 l 535 1136 l 729 1136 l 729 965 l 535 965 m 483 -14 q 260 28 358 -14 q 105 150 161 69 q 49 349 49 231 l 49 894 l 347 894 l 347 383 q 483 239 347 239 q 619 383 619 239 l 619 894 l 918 894 l 918 349 q 862 150 918 231 q 708 28 806 69 q 483 -14 610 -14 z "},"Ǜ":{"ha":967,"x_min":49,"x_max":918,"o":"m 389 1211 l 289 1407 l 510 1407 l 589 1211 l 389 1211 m 232 1001 l 232 1172 l 426 1172 l 426 1001 l 232 1001 m 540 1001 l 540 1172 l 735 1172 l 735 1001 l 540 1001 m 483 -14 q 260 28 358 -14 q 105 150 161 69 q 49 349 49 231 l 49 894 l 347 894 l 347 383 q 483 239 347 239 q 619 383 619 239 l 619 894 l 918 894 l 918 349 q 862 150 918 231 q 708 28 806 69 q 483 -14 610 -14 z "},"Ǖ":{"ha":967,"x_min":49,"x_max":918,"o":"m 247 1222 l 247 1397 l 718 1397 l 718 1222 l 247 1222 m 226 968 l 226 1150 l 426 1150 l 426 968 l 226 968 m 540 968 l 540 1150 l 739 1150 l 739 968 l 540 968 m 483 -14 q 260 28 358 -14 q 105 150 161 69 q 49 349 49 231 l 49 894 l 347 894 l 347 383 q 483 239 347 239 q 619 383 619 239 l 619 894 l 918 894 l 918 349 q 862 150 918 231 q 708 28 806 69 q 483 -14 610 -14 z "},"Ụ":{"ha":967,"x_min":49,"x_max":918,"o":"m 483 -14 q 260 28 358 -14 q 105 150 161 69 q 49 349 49 231 l 49 894 l 347 894 l 347 383 q 483 239 347 239 q 619 383 619 239 l 619 894 l 918 894 l 918 349 q 862 150 918 231 q 708 28 806 69 q 483 -14 610 -14 m 383 -244 l 383 -64 l 582 -64 l 582 -244 l 383 -244 z "},"Ù":{"ha":967,"x_min":49,"x_max":918,"o":"m 378 956 l 238 1256 l 469 1256 l 597 956 l 378 956 m 483 -14 q 260 28 358 -14 q 105 150 161 69 q 49 349 49 231 l 49 894 l 347 894 l 347 383 q 483 239 347 239 q 619 383 619 239 l 619 894 l 918 894 l 918 349 q 862 150 918 231 q 708 28 806 69 q 483 -14 610 -14 z "},"Ủ":{"ha":967,"x_min":49,"x_max":918,"o":"m 371 956 l 371 1068 q 466 1088 440 1072 q 492 1125 492 1103 q 415 1168 492 1168 q 373 1165 394 1168 q 335 1156 351 1161 l 335 1275 q 408 1290 367 1285 q 506 1294 450 1294 q 656 1253 604 1294 q 708 1150 708 1213 q 680 1058 708 1089 q 593 1008 651 1026 l 593 956 l 371 956 m 483 -14 q 260 28 358 -14 q 105 150 161 69 q 49 349 49 231 l 49 894 l 347 894 l 347 383 q 483 239 347 239 q 619 383 619 239 l 619 894 l 918 894 l 918 349 q 862 150 918 231 q 708 28 806 69 q 483 -14 610 -14 z "},"Ư":{"ha":1189,"x_min":49,"x_max":1203,"o":"m 483 -14 q 260 28 358 -14 q 105 150 161 69 q 49 349 49 231 l 49 894 l 347 894 l 347 383 q 483 239 347 239 q 619 383 619 239 l 619 894 l 918 894 l 918 821 q 995 856 972 826 q 1018 956 1018 886 l 1203 956 q 1174 780 1203 846 q 1083 684 1146 714 q 918 650 1021 654 l 918 349 q 862 150 918 231 q 708 28 806 69 q 483 -14 610 -14 z "},"Ứ":{"ha":1189,"x_min":49,"x_max":1203,"o":"m 369 956 l 497 1256 l 728 1256 l 588 956 l 369 956 m 483 -14 q 260 28 358 -14 q 105 150 161 69 q 49 349 49 231 l 49 894 l 347 894 l 347 383 q 483 239 347 239 q 619 383 619 239 l 619 894 l 918 894 l 918 821 q 995 856 972 826 q 1018 956 1018 886 l 1203 956 q 1174 780 1203 846 q 1083 684 1146 714 q 918 650 1021 654 l 918 349 q 862 150 918 231 q 708 28 806 69 q 483 -14 610 -14 z "},"Ự":{"ha":1189,"x_min":49,"x_max":1203,"o":"m 483 -14 q 260 28 358 -14 q 105 150 161 69 q 49 349 49 231 l 49 894 l 347 894 l 347 383 q 483 239 347 239 q 619 383 619 239 l 619 894 l 918 894 l 918 821 q 995 856 972 826 q 1018 956 1018 886 l 1203 956 q 1174 780 1203 846 q 1083 684 1146 714 q 918 650 1021 654 l 918 349 q 862 150 918 231 q 708 28 806 69 q 483 -14 610 -14 m 388 -244 l 388 -64 l 586 -64 l 586 -244 l 388 -244 z "},"Ừ":{"ha":1189,"x_min":49,"x_max":1203,"o":"m 383 956 l 243 1256 l 475 1256 l 603 956 l 383 956 m 483 -14 q 260 28 358 -14 q 105 150 161 69 q 49 349 49 231 l 49 894 l 347 894 l 347 383 q 483 239 347 239 q 619 383 619 239 l 619 894 l 918 894 l 918 821 q 995 856 972 826 q 1018 956 1018 886 l 1203 956 q 1174 780 1203 846 q 1083 684 1146 714 q 918 650 1021 654 l 918 349 q 862 150 918 231 q 708 28 806 69 q 483 -14 610 -14 z "},"Ử":{"ha":1189,"x_min":49,"x_max":1203,"o":"m 351 956 l 351 1068 q 447 1088 421 1072 q 472 1125 472 1103 q 396 1168 472 1168 q 353 1165 375 1168 q 315 1156 332 1161 l 315 1275 q 389 1290 347 1285 q 486 1294 431 1294 q 637 1253 585 1294 q 689 1150 689 1213 q 660 1058 689 1089 q 574 1008 632 1026 l 574 956 l 351 956 m 483 -14 q 260 28 358 -14 q 105 150 161 69 q 49 349 49 231 l 49 894 l 347 894 l 347 383 q 483 239 347 239 q 619 383 619 239 l 619 894 l 918 894 l 918 821 q 995 856 972 826 q 1018 956 1018 886 l 1203 956 q 1174 780 1203 846 q 1083 684 1146 714 q 918 650 1021 654 l 918 349 q 862 150 918 231 q 708 28 806 69 q 483 -14 610 -14 z "},"Ữ":{"ha":1189,"x_min":49,"x_max":1203,"o":"m 629 958 q 536 974 582 958 q 447 1003 490 989 q 364 1018 404 1018 q 283 1003 318 1018 q 224 963 249 988 l 224 1142 q 281 1175 243 1161 q 360 1189 318 1189 q 451 1174 408 1189 q 537 1144 494 1160 q 625 1129 579 1129 q 705 1146 671 1129 q 756 1186 739 1163 l 756 1006 q 707 973 742 988 q 629 958 672 958 m 483 -14 q 260 28 358 -14 q 105 150 161 69 q 49 349 49 231 l 49 894 l 347 894 l 347 383 q 483 239 347 239 q 619 383 619 239 l 619 894 l 918 894 l 918 821 q 995 856 972 826 q 1018 956 1018 886 l 1203 956 q 1174 780 1203 846 q 1083 684 1146 714 q 918 650 1021 654 l 918 349 q 862 150 918 231 q 708 28 806 69 q 483 -14 610 -14 z "},"Ű":{"ha":967,"x_min":49,"x_max":918,"o":"m 169 956 l 294 1225 l 547 1225 l 397 956 l 169 956 m 519 956 l 644 1225 l 897 1225 l 747 956 l 519 956 m 483 -14 q 260 28 358 -14 q 105 150 161 69 q 49 349 49 231 l 49 894 l 347 894 l 347 383 q 483 239 347 239 q 619 383 619 239 l 619 894 l 918 894 l 918 349 q 862 150 918 231 q 708 28 806 69 q 483 -14 610 -14 z "},"Ū":{"ha":967,"x_min":49,"x_max":918,"o":"m 247 1007 l 247 1182 l 718 1182 l 718 1007 l 247 1007 m 483 -14 q 260 28 358 -14 q 105 150 161 69 q 49 349 49 231 l 49 894 l 347 894 l 347 383 q 483 239 347 239 q 619 383 619 239 l 619 894 l 918 894 l 918 349 q 862 150 918 231 q 708 28 806 69 q 483 -14 610 -14 z "},"Ų":{"ha":967,"x_min":49,"x_max":918,"o":"m 492 -306 q 351 -272 406 -306 q 297 -167 297 -239 q 324 -76 297 -117 q 389 -7 350 -35 q 212 52 289 7 q 92 172 135 97 q 49 349 49 246 l 49 894 l 347 894 l 347 383 q 483 239 347 239 q 619 383 619 239 l 619 894 l 918 894 l 918 349 q 875 172 918 246 q 756 52 832 97 q 578 -7 679 7 q 532 -58 550 -31 q 514 -115 514 -85 q 576 -164 514 -164 q 614 -160 594 -164 q 646 -149 633 -156 l 646 -282 q 582 -298 624 -290 q 492 -306 540 -306 z "},"Ů":{"ha":967,"x_min":49,"x_max":918,"o":"m 482 956 q 332 1010 385 956 q 279 1146 279 1065 q 332 1283 279 1228 q 482 1338 385 1338 q 633 1283 581 1338 q 686 1146 686 1228 q 633 1010 686 1065 q 482 956 581 956 m 482 1074 q 540 1095 521 1074 q 558 1146 558 1117 q 540 1197 558 1175 q 482 1219 521 1219 q 425 1197 444 1219 q 406 1146 406 1175 q 425 1095 406 1117 q 482 1074 444 1074 m 483 -14 q 260 28 358 -14 q 105 150 161 69 q 49 349 49 231 l 49 894 l 347 894 l 347 383 q 483 239 347 239 q 619 383 619 239 l 619 894 l 918 894 l 918 349 q 862 150 918 231 q 708 28 806 69 q 483 -14 610 -14 z "},"Ũ":{"ha":967,"x_min":49,"x_max":918,"o":"m 622 964 q 529 979 575 964 q 440 1009 483 994 q 357 1024 397 1024 q 276 1008 311 1024 q 217 968 242 993 l 217 1147 q 274 1181 236 1167 q 353 1194 311 1194 q 444 1180 401 1194 q 530 1150 488 1165 q 618 1135 572 1135 q 698 1151 664 1135 q 749 1192 732 1168 l 749 1011 q 700 978 735 993 q 622 964 665 964 m 483 -14 q 260 28 358 -14 q 105 150 161 69 q 49 349 49 231 l 49 894 l 347 894 l 347 383 q 483 239 347 239 q 619 383 619 239 l 619 894 l 918 894 l 918 349 q 862 150 918 231 q 708 28 806 69 q 483 -14 610 -14 z "},"V":{"ha":1056,"x_min":28,"x_max":1028,"o":"m 371 0 l 28 894 l 339 894 l 526 350 l 715 894 l 1028 894 l 683 0 l 371 0 z "},"W":{"ha":1251,"x_min":28,"x_max":1224,"o":"m 236 0 l 28 894 l 319 894 l 404 486 l 479 751 l 479 894 l 722 894 l 840 485 l 932 894 l 1224 894 l 1017 0 l 751 0 l 631 407 l 500 0 l 236 0 z "},"Ẃ":{"ha":1251,"x_min":28,"x_max":1224,"o":"m 485 956 l 613 1256 l 843 1256 l 703 956 l 485 956 m 236 0 l 28 894 l 319 894 l 404 486 l 479 751 l 479 894 l 722 894 l 840 485 l 932 894 l 1224 894 l 1017 0 l 751 0 l 631 407 l 500 0 l 236 0 z "},"Ŵ":{"ha":1251,"x_min":28,"x_max":1224,"o":"m 314 956 l 543 1244 l 719 1244 l 949 956 l 738 956 l 632 1106 l 531 956 l 314 956 m 236 0 l 28 894 l 319 894 l 404 486 l 479 751 l 479 894 l 722 894 l 840 485 l 932 894 l 1224 894 l 1017 0 l 751 0 l 631 407 l 500 0 l 236 0 z "},"Ẅ":{"ha":1251,"x_min":28,"x_max":1224,"o":"m 375 994 l 375 1176 l 575 1176 l 575 994 l 375 994 m 689 994 l 689 1176 l 888 1176 l 888 994 l 689 994 m 236 0 l 28 894 l 319 894 l 404 486 l 479 751 l 479 894 l 722 894 l 840 485 l 932 894 l 1224 894 l 1017 0 l 751 0 l 631 407 l 500 0 l 236 0 z "},"Ẁ":{"ha":1251,"x_min":28,"x_max":1224,"o":"m 497 956 l 357 1256 l 589 1256 l 717 956 l 497 956 m 236 0 l 28 894 l 319 894 l 404 486 l 479 751 l 479 894 l 722 894 l 840 485 l 932 894 l 1224 894 l 1017 0 l 751 0 l 631 407 l 500 0 l 236 0 z "},"X":{"ha":1046,"x_min":35,"x_max":1011,"o":"m 35 0 l 365 453 l 47 894 l 358 894 l 522 660 l 688 894 l 999 894 l 681 453 l 1011 0 l 696 0 l 522 243 l 350 0 l 35 0 z "},"Y":{"ha":1000,"x_min":28,"x_max":972,"o":"m 350 0 l 350 326 l 28 894 l 339 894 l 500 583 l 661 894 l 972 894 l 649 326 l 649 0 l 350 0 z "},"Ý":{"ha":1000,"x_min":28,"x_max":972,"o":"m 388 956 l 515 1256 l 746 1256 l 606 956 l 388 956 m 350 0 l 350 326 l 28 894 l 339 894 l 500 583 l 661 894 l 972 894 l 649 326 l 649 0 l 350 0 z "},"Ŷ":{"ha":1000,"x_min":28,"x_max":972,"o":"m 183 956 l 413 1244 l 589 1244 l 818 956 l 607 956 l 501 1106 l 400 956 l 183 956 m 350 0 l 350 326 l 28 894 l 339 894 l 500 583 l 661 894 l 972 894 l 649 326 l 649 0 l 350 0 z "},"Ÿ":{"ha":1000,"x_min":28,"x_max":972,"o":"m 244 994 l 244 1176 l 444 1176 l 444 994 l 244 994 m 558 994 l 558 1176 l 757 1176 l 757 994 l 558 994 m 350 0 l 350 326 l 28 894 l 339 894 l 500 583 l 661 894 l 972 894 l 649 326 l 649 0 l 350 0 z "},"Ẏ":{"ha":1000,"x_min":28,"x_max":972,"o":"m 400 994 l 400 1176 l 599 1176 l 599 994 l 400 994 m 350 0 l 350 326 l 28 894 l 339 894 l 500 583 l 661 894 l 972 894 l 649 326 l 649 0 l 350 0 z "},"Ỵ":{"ha":1000,"x_min":28,"x_max":972,"o":"m 350 0 l 350 326 l 28 894 l 339 894 l 500 583 l 661 894 l 972 894 l 649 326 l 649 0 l 350 0 m 401 -243 l 401 -62 l 600 -62 l 600 -243 l 401 -243 z "},"Ỳ":{"ha":1000,"x_min":28,"x_max":972,"o":"m 388 956 l 247 1256 l 479 1256 l 607 956 l 388 956 m 350 0 l 350 326 l 28 894 l 339 894 l 500 583 l 661 894 l 972 894 l 649 326 l 649 0 l 350 0 z "},"Ỷ":{"ha":1000,"x_min":28,"x_max":972,"o":"m 386 956 l 386 1068 q 481 1088 456 1072 q 507 1125 507 1103 q 431 1168 507 1168 q 388 1165 410 1168 q 350 1156 367 1161 l 350 1275 q 424 1290 382 1285 q 521 1294 465 1294 q 672 1253 619 1294 q 724 1150 724 1213 q 695 1058 724 1089 q 608 1008 667 1026 l 608 956 l 386 956 m 350 0 l 350 326 l 28 894 l 339 894 l 500 583 l 661 894 l 972 894 l 649 326 l 649 0 l 350 0 z "},"Ỹ":{"ha":1000,"x_min":28,"x_max":972,"o":"m 639 964 q 546 979 592 964 q 457 1009 500 994 q 374 1024 414 1024 q 293 1008 328 1024 q 233 968 258 993 l 233 1147 q 290 1181 253 1167 q 369 1194 328 1194 q 461 1180 418 1194 q 547 1150 504 1165 q 635 1135 589 1135 q 715 1151 681 1135 q 765 1192 749 1168 l 765 1011 q 717 978 751 993 q 639 964 682 964 m 350 0 l 350 326 l 28 894 l 339 894 l 500 583 l 661 894 l 972 894 l 649 326 l 649 0 l 350 0 z "},"Z":{"ha":808,"x_min":28,"x_max":788,"o":"m 28 0 l 28 147 l 386 657 l 47 657 l 47 894 l 779 894 l 779 731 l 425 228 l 788 228 l 788 0 l 28 0 z "},"Ź":{"ha":808,"x_min":28,"x_max":788,"o":"m 278 956 l 406 1256 l 636 1256 l 496 956 l 278 956 m 28 0 l 28 147 l 386 657 l 47 657 l 47 894 l 779 894 l 779 731 l 425 228 l 788 228 l 788 0 l 28 0 z "},"Ž":{"ha":811,"x_min":28,"x_max":788,"o":"m 339 956 l 110 1244 l 326 1244 l 428 1094 l 533 1244 l 744 1244 l 515 956 l 339 956 m 28 0 l 28 147 l 386 657 l 47 657 l 47 894 l 779 894 l 779 731 l 425 228 l 788 228 l 788 0 l 28 0 z "},"Ż":{"ha":811,"x_min":28,"x_max":788,"o":"m 315 994 l 315 1176 l 514 1176 l 514 994 l 315 994 m 28 0 l 28 147 l 386 657 l 47 657 l 47 894 l 779 894 l 779 731 l 425 228 l 788 228 l 788 0 l 28 0 z "},"Ẓ":{"ha":808,"x_min":28,"x_max":788,"o":"m 28 0 l 28 147 l 386 657 l 47 657 l 47 894 l 779 894 l 779 731 l 425 228 l 788 228 l 788 0 l 28 0 m 317 -244 l 317 -64 l 515 -64 l 515 -244 l 317 -244 z "},"a":{"ha":804,"x_min":28,"x_max":753,"o":"m 260 -14 q 144 8 197 -14 q 60 78 92 31 q 28 201 28 126 q 97 366 28 308 q 310 424 167 424 l 469 424 l 469 433 q 438 476 469 461 q 338 490 407 490 q 224 481 285 490 q 110 456 164 472 l 110 624 q 242 659 163 646 q 397 672 321 672 q 656 606 558 672 q 753 399 753 540 l 753 0 l 492 0 l 479 50 q 391 3 444 21 q 260 -14 338 -14 m 368 154 q 427 166 403 154 q 469 196 451 178 l 469 267 l 375 267 q 301 210 301 267 q 368 154 301 154 z "},"á":{"ha":804,"x_min":28,"x_max":753,"o":"m 293 725 l 421 1025 l 651 1025 l 511 725 l 293 725 m 260 -14 q 144 8 197 -14 q 60 78 92 31 q 28 201 28 126 q 97 366 28 308 q 310 424 167 424 l 469 424 l 469 433 q 438 476 469 461 q 338 490 407 490 q 224 481 285 490 q 110 456 164 472 l 110 624 q 242 659 163 646 q 397 672 321 672 q 656 606 558 672 q 753 399 753 540 l 753 0 l 492 0 l 479 50 q 391 3 444 21 q 260 -14 338 -14 m 368 154 q 427 166 403 154 q 469 196 451 178 l 469 267 l 375 267 q 301 210 301 267 q 368 154 301 154 z "},"ă":{"ha":804,"x_min":28,"x_max":753,"o":"m 414 725 q 208 798 286 725 q 131 1008 131 871 l 322 1008 q 342 924 322 960 q 414 889 363 889 q 487 924 467 889 q 507 1008 507 960 l 700 1008 q 622 798 700 871 q 414 725 543 725 m 260 -14 q 144 8 197 -14 q 60 78 92 31 q 28 201 28 126 q 97 366 28 308 q 310 424 167 424 l 469 424 l 469 433 q 438 476 469 461 q 338 490 407 490 q 224 481 285 490 q 110 456 164 472 l 110 624 q 242 659 163 646 q 397 672 321 672 q 656 606 558 672 q 753 399 753 540 l 753 0 l 492 0 l 479 50 q 391 3 444 21 q 260 -14 338 -14 m 368 154 q 427 166 403 154 q 469 196 451 178 l 469 267 l 375 267 q 301 210 301 267 q 368 154 301 154 z "},"ắ":{"ha":804,"x_min":28,"x_max":753,"o":"m 322 1008 l 415 1214 l 611 1214 l 500 1008 l 322 1008 m 413 725 q 222 785 294 725 q 149 975 149 844 l 315 975 q 339 899 315 929 q 413 869 363 869 q 488 899 464 869 q 511 975 511 929 l 676 975 q 604 785 676 844 q 413 725 532 725 m 260 -14 q 144 8 197 -14 q 60 78 92 31 q 28 201 28 126 q 97 366 28 308 q 310 424 167 424 l 469 424 l 469 433 q 438 476 469 461 q 338 490 407 490 q 224 481 285 490 q 110 456 164 472 l 110 624 q 242 659 163 646 q 397 672 321 672 q 656 606 558 672 q 753 399 753 540 l 753 0 l 492 0 l 479 50 q 391 3 444 21 q 260 -14 338 -14 m 368 154 q 427 166 403 154 q 469 196 451 178 l 469 267 l 375 267 q 301 210 301 267 q 368 154 301 154 z "},"ặ":{"ha":804,"x_min":28,"x_max":753,"o":"m 431 725 q 225 798 303 725 q 147 1008 147 871 l 339 1008 q 359 924 339 960 q 431 889 379 889 q 503 924 483 889 q 524 1008 524 960 l 717 1008 q 638 798 717 871 q 431 725 560 725 m 260 -14 q 144 8 197 -14 q 60 78 92 31 q 28 201 28 126 q 97 366 28 308 q 310 424 167 424 l 469 424 l 469 433 q 438 476 469 461 q 338 490 407 490 q 224 481 285 490 q 110 456 164 472 l 110 624 q 242 659 163 646 q 397 672 321 672 q 656 606 558 672 q 753 399 753 540 l 753 0 l 492 0 l 479 50 q 391 3 444 21 q 260 -14 338 -14 m 368 154 q 427 166 403 154 q 469 196 451 178 l 469 267 l 375 267 q 301 210 301 267 q 368 154 301 154 m 336 -244 l 336 -64 l 535 -64 l 535 -244 l 336 -244 z "},"ằ":{"ha":804,"x_min":28,"x_max":753,"o":"m 329 1008 l 218 1214 l 414 1214 l 507 1008 l 329 1008 m 417 725 q 226 785 299 725 q 153 975 153 844 l 318 975 q 342 899 318 929 q 417 869 365 869 q 490 899 467 869 q 514 975 514 929 l 681 975 q 608 785 681 844 q 417 725 535 725 m 260 -14 q 144 8 197 -14 q 60 78 92 31 q 28 201 28 126 q 97 366 28 308 q 310 424 167 424 l 469 424 l 469 433 q 438 476 469 461 q 338 490 407 490 q 224 481 285 490 q 110 456 164 472 l 110 624 q 242 659 163 646 q 397 672 321 672 q 656 606 558 672 q 753 399 753 540 l 753 0 l 492 0 l 479 50 q 391 3 444 21 q 260 -14 338 -14 m 368 154 q 427 166 403 154 q 469 196 451 178 l 469 267 l 375 267 q 301 210 301 267 q 368 154 301 154 z "},"ẳ":{"ha":804,"x_min":28,"x_max":753,"o":"m 326 994 l 326 1079 q 403 1094 381 1082 q 426 1125 426 1106 q 411 1153 426 1146 q 365 1160 396 1160 q 330 1156 347 1160 q 300 1146 313 1151 l 300 1246 q 365 1258 325 1253 q 444 1264 404 1264 q 566 1229 524 1264 q 608 1144 608 1194 q 586 1073 608 1099 q 511 1033 564 1047 l 511 994 l 326 994 m 419 725 q 228 785 301 725 q 156 975 156 844 l 321 975 q 344 899 321 929 q 419 869 368 869 q 493 899 469 869 q 517 975 517 929 l 683 975 q 610 785 683 844 q 419 725 538 725 m 260 -14 q 144 8 197 -14 q 60 78 92 31 q 28 201 28 126 q 97 366 28 308 q 310 424 167 424 l 469 424 l 469 433 q 438 476 469 461 q 338 490 407 490 q 224 481 285 490 q 110 456 164 472 l 110 624 q 242 659 163 646 q 397 672 321 672 q 656 606 558 672 q 753 399 753 540 l 753 0 l 492 0 l 479 50 q 391 3 444 21 q 260 -14 338 -14 m 368 154 q 427 166 403 154 q 469 196 451 178 l 469 267 l 375 267 q 301 210 301 267 q 368 154 301 154 z "},"ẵ":{"ha":804,"x_min":28,"x_max":753,"o":"m 544 1004 q 459 1019 501 1004 q 377 1047 417 1033 q 300 1061 338 1061 q 224 1047 257 1061 q 168 1008 192 1033 l 168 1154 q 222 1186 188 1174 q 296 1199 257 1199 q 381 1185 342 1199 q 460 1156 421 1171 q 540 1142 499 1142 q 615 1157 583 1142 q 664 1196 647 1172 l 664 1049 q 617 1017 650 1031 q 544 1004 585 1004 m 414 725 q 223 785 296 725 q 150 975 150 844 l 315 975 q 339 899 315 929 q 414 869 363 869 q 488 899 464 869 q 511 975 511 929 l 678 975 q 605 785 678 844 q 414 725 532 725 m 260 -14 q 144 8 197 -14 q 60 78 92 31 q 28 201 28 126 q 97 366 28 308 q 310 424 167 424 l 469 424 l 469 433 q 438 476 469 461 q 338 490 407 490 q 224 481 285 490 q 110 456 164 472 l 110 624 q 242 659 163 646 q 397 672 321 672 q 656 606 558 672 q 753 399 753 540 l 753 0 l 492 0 l 479 50 q 391 3 444 21 q 260 -14 338 -14 m 368 154 q 427 166 403 154 q 469 196 451 178 l 469 267 l 375 267 q 301 210 301 267 q 368 154 301 154 z "},"ǎ":{"ha":804,"x_min":28,"x_max":753,"o":"m 321 724 l 92 1013 l 308 1013 l 410 863 l 515 1013 l 726 1013 l 497 724 l 321 724 m 260 -14 q 144 8 197 -14 q 60 78 92 31 q 28 201 28 126 q 97 366 28 308 q 310 424 167 424 l 469 424 l 469 433 q 438 476 469 461 q 338 490 407 490 q 224 481 285 490 q 110 456 164 472 l 110 624 q 242 659 163 646 q 397 672 321 672 q 656 606 558 672 q 753 399 753 540 l 753 0 l 492 0 l 479 50 q 391 3 444 21 q 260 -14 338 -14 m 368 154 q 427 166 403 154 q 469 196 451 178 l 469 267 l 375 267 q 301 210 301 267 q 368 154 301 154 z "},"â":{"ha":804,"x_min":28,"x_max":753,"o":"m 96 725 l 325 1014 l 501 1014 l 731 725 l 519 725 l 414 875 l 313 725 l 96 725 m 260 -14 q 144 8 197 -14 q 60 78 92 31 q 28 201 28 126 q 97 366 28 308 q 310 424 167 424 l 469 424 l 469 433 q 438 476 469 461 q 338 490 407 490 q 224 481 285 490 q 110 456 164 472 l 110 624 q 242 659 163 646 q 397 672 321 672 q 656 606 558 672 q 753 399 753 540 l 753 0 l 492 0 l 479 50 q 391 3 444 21 q 260 -14 338 -14 m 368 154 q 427 166 403 154 q 469 196 451 178 l 469 267 l 375 267 q 301 210 301 267 q 368 154 301 154 z "},"ấ":{"ha":804,"x_min":28,"x_max":918,"o":"m 599 903 l 700 1131 l 918 1131 l 807 903 l 599 903 m 97 725 l 306 947 l 522 947 l 731 725 l 496 725 l 414 832 l 335 725 l 97 725 m 260 -14 q 144 8 197 -14 q 60 78 92 31 q 28 201 28 126 q 97 366 28 308 q 310 424 167 424 l 469 424 l 469 433 q 438 476 469 461 q 338 490 407 490 q 224 481 285 490 q 110 456 164 472 l 110 624 q 242 659 163 646 q 397 672 321 672 q 656 606 558 672 q 753 399 753 540 l 753 0 l 492 0 l 479 50 q 391 3 444 21 q 260 -14 338 -14 m 368 154 q 427 166 403 154 q 469 196 451 178 l 469 267 l 375 267 q 301 210 301 267 q 368 154 301 154 z "},"ậ":{"ha":804,"x_min":28,"x_max":753,"o":"m 100 725 l 329 1014 l 506 1014 l 735 725 l 524 725 l 418 875 l 317 725 l 100 725 m 260 -14 q 144 8 197 -14 q 60 78 92 31 q 28 201 28 126 q 97 366 28 308 q 310 424 167 424 l 469 424 l 469 433 q 438 476 469 461 q 338 490 407 490 q 224 481 285 490 q 110 456 164 472 l 110 624 q 242 659 163 646 q 397 672 321 672 q 656 606 558 672 q 753 399 753 540 l 753 0 l 492 0 l 479 50 q 391 3 444 21 q 260 -14 338 -14 m 368 154 q 427 166 403 154 q 469 196 451 178 l 469 267 l 375 267 q 301 210 301 267 q 368 154 301 154 m 319 -244 l 319 -64 l 518 -64 l 518 -244 l 319 -244 z "},"ầ":{"ha":804,"x_min":-97,"x_max":753,"o":"m 15 903 l -97 1131 l 122 1131 l 224 903 l 15 903 m 90 725 l 299 947 l 517 947 l 725 725 l 488 725 l 407 832 l 325 725 l 90 725 m 260 -14 q 144 8 197 -14 q 60 78 92 31 q 28 201 28 126 q 97 366 28 308 q 310 424 167 424 l 469 424 l 469 433 q 438 476 469 461 q 338 490 407 490 q 224 481 285 490 q 110 456 164 472 l 110 624 q 242 659 163 646 q 397 672 321 672 q 656 606 558 672 q 753 399 753 540 l 753 0 l 492 0 l 479 50 q 391 3 444 21 q 260 -14 338 -14 m 368 154 q 427 166 403 154 q 469 196 451 178 l 469 267 l 375 267 q 301 210 301 267 q 368 154 301 154 z "},"ẩ":{"ha":804,"x_min":28,"x_max":903,"o":"m 608 871 l 608 978 q 684 990 665 979 q 703 1015 703 1000 q 650 1040 703 1040 q 614 1037 632 1040 q 581 1029 596 1033 l 581 1143 q 646 1155 608 1150 q 731 1160 683 1160 q 860 1125 817 1160 q 903 1036 903 1090 q 879 957 903 989 q 804 915 856 925 l 804 871 l 608 871 m 92 725 l 300 947 l 518 947 l 726 725 l 492 725 l 410 832 l 329 725 l 92 725 m 260 -14 q 144 8 197 -14 q 60 78 92 31 q 28 201 28 126 q 97 366 28 308 q 310 424 167 424 l 469 424 l 469 433 q 438 476 469 461 q 338 490 407 490 q 224 481 285 490 q 110 456 164 472 l 110 624 q 242 659 163 646 q 397 672 321 672 q 656 606 558 672 q 753 399 753 540 l 753 0 l 492 0 l 479 50 q 391 3 444 21 q 260 -14 338 -14 m 368 154 q 427 166 403 154 q 469 196 451 178 l 469 267 l 375 267 q 301 210 301 267 q 368 154 301 154 z "},"ẫ":{"ha":804,"x_min":28,"x_max":753,"o":"m 538 960 q 452 974 494 960 q 370 1003 410 989 q 293 1017 331 1017 q 217 1003 250 1017 q 161 964 185 989 l 161 1110 q 215 1142 181 1129 q 289 1154 250 1154 q 374 1140 335 1154 q 453 1112 414 1126 q 533 1097 492 1097 q 608 1113 576 1097 q 657 1151 640 1128 l 657 1004 q 610 973 643 986 q 538 960 578 960 m 92 724 l 300 946 l 518 946 l 726 724 l 492 724 l 410 831 l 329 724 l 92 724 m 260 -14 q 144 8 197 -14 q 60 78 92 31 q 28 201 28 126 q 97 366 28 308 q 310 424 167 424 l 469 424 l 469 433 q 438 476 469 461 q 338 490 407 490 q 224 481 285 490 q 110 456 164 472 l 110 624 q 242 659 163 646 q 397 672 321 672 q 656 606 558 672 q 753 399 753 540 l 753 0 l 492 0 l 479 50 q 391 3 444 21 q 260 -14 338 -14 m 368 154 q 427 166 403 154 q 469 196 451 178 l 469 267 l 375 267 q 301 210 301 267 q 368 154 301 154 z "},"ä":{"ha":804,"x_min":28,"x_max":753,"o":"m 172 764 l 172 946 l 372 946 l 372 764 l 172 764 m 486 764 l 486 946 l 685 946 l 685 764 l 486 764 m 260 -14 q 144 8 197 -14 q 60 78 92 31 q 28 201 28 126 q 97 366 28 308 q 310 424 167 424 l 469 424 l 469 433 q 438 476 469 461 q 338 490 407 490 q 224 481 285 490 q 110 456 164 472 l 110 624 q 242 659 163 646 q 397 672 321 672 q 656 606 558 672 q 753 399 753 540 l 753 0 l 492 0 l 479 50 q 391 3 444 21 q 260 -14 338 -14 m 368 154 q 427 166 403 154 q 469 196 451 178 l 469 267 l 375 267 q 301 210 301 267 q 368 154 301 154 z "},"ạ":{"ha":804,"x_min":28,"x_max":753,"o":"m 260 -14 q 144 8 197 -14 q 60 78 92 31 q 28 201 28 126 q 97 366 28 308 q 310 424 167 424 l 469 424 l 469 433 q 438 476 469 461 q 338 490 407 490 q 224 481 285 490 q 110 456 164 472 l 110 624 q 242 659 163 646 q 397 672 321 672 q 656 606 558 672 q 753 399 753 540 l 753 0 l 492 0 l 479 50 q 391 3 444 21 q 260 -14 338 -14 m 368 154 q 427 166 403 154 q 469 196 451 178 l 469 267 l 375 267 q 301 210 301 267 q 368 154 301 154 m 318 -244 l 318 -64 l 517 -64 l 517 -244 l 318 -244 z "},"à":{"ha":804,"x_min":28,"x_max":753,"o":"m 307 725 l 167 1025 l 399 1025 l 526 725 l 307 725 m 260 -14 q 144 8 197 -14 q 60 78 92 31 q 28 201 28 126 q 97 366 28 308 q 310 424 167 424 l 469 424 l 469 433 q 438 476 469 461 q 338 490 407 490 q 224 481 285 490 q 110 456 164 472 l 110 624 q 242 659 163 646 q 397 672 321 672 q 656 606 558 672 q 753 399 753 540 l 753 0 l 492 0 l 479 50 q 391 3 444 21 q 260 -14 338 -14 m 368 154 q 427 166 403 154 q 469 196 451 178 l 469 267 l 375 267 q 301 210 301 267 q 368 154 301 154 z "},"ả":{"ha":804,"x_min":28,"x_max":753,"o":"m 293 725 l 293 838 q 388 857 363 842 q 414 894 414 872 q 338 938 414 938 q 295 934 317 938 q 257 925 274 931 l 257 1044 q 331 1059 289 1054 q 428 1064 372 1064 q 578 1023 526 1064 q 631 919 631 982 q 602 827 631 858 q 515 778 574 796 l 515 725 l 293 725 m 260 -14 q 144 8 197 -14 q 60 78 92 31 q 28 201 28 126 q 97 366 28 308 q 310 424 167 424 l 469 424 l 469 433 q 438 476 469 461 q 338 490 407 490 q 224 481 285 490 q 110 456 164 472 l 110 624 q 242 659 163 646 q 397 672 321 672 q 656 606 558 672 q 753 399 753 540 l 753 0 l 492 0 l 479 50 q 391 3 444 21 q 260 -14 338 -14 m 368 154 q 427 166 403 154 q 469 196 451 178 l 469 267 l 375 267 q 301 210 301 267 q 368 154 301 154 z "},"ɑ":{"ha":853,"x_min":28,"x_max":801,"o":"m 328 -14 q 110 65 193 -14 q 28 303 28 144 q 71 502 28 419 q 186 628 114 585 q 346 672 258 672 q 440 658 401 672 q 503 624 479 643 l 503 658 l 801 658 l 801 0 l 543 0 l 529 47 q 443 2 490 18 q 328 -14 396 -14 m 422 200 q 472 208 451 200 q 503 231 493 217 l 503 429 q 472 450 489 443 q 431 457 456 457 q 332 303 332 457 q 356 222 332 243 q 422 200 379 200 z "},"ā":{"ha":804,"x_min":28,"x_max":753,"o":"m 176 740 l 176 915 l 647 915 l 647 740 l 176 740 m 260 -14 q 144 8 197 -14 q 60 78 92 31 q 28 201 28 126 q 97 366 28 308 q 310 424 167 424 l 469 424 l 469 433 q 438 476 469 461 q 338 490 407 490 q 224 481 285 490 q 110 456 164 472 l 110 624 q 242 659 163 646 q 397 672 321 672 q 656 606 558 672 q 753 399 753 540 l 753 0 l 492 0 l 479 50 q 391 3 444 21 q 260 -14 338 -14 m 368 154 q 427 166 403 154 q 469 196 451 178 l 469 267 l 375 267 q 301 210 301 267 q 368 154 301 154 z "},"ą":{"ha":804,"x_min":28,"x_max":753,"o":"m 260 -14 q 144 8 197 -14 q 60 78 92 31 q 28 201 28 126 q 97 366 28 308 q 310 424 167 424 l 469 424 l 469 433 q 438 476 469 461 q 338 490 407 490 q 224 481 285 490 q 110 456 164 472 l 110 624 q 242 659 163 646 q 397 672 321 672 q 656 606 558 672 q 753 399 753 540 l 753 0 l 690 0 q 638 -53 658 -25 q 617 -115 617 -82 q 679 -164 617 -164 q 717 -160 697 -164 q 749 -149 736 -156 l 749 -282 q 685 -298 726 -290 q 594 -306 643 -306 q 454 -272 508 -306 q 400 -167 400 -239 q 430 -69 400 -112 q 504 0 460 -26 l 492 0 l 479 50 q 391 3 444 21 q 260 -14 338 -14 m 368 154 q 427 166 403 154 q 469 196 451 178 l 469 267 l 375 267 q 301 210 301 267 q 368 154 301 154 z "},"å":{"ha":804,"x_min":28,"x_max":753,"o":"m 429 725 q 279 780 332 725 q 226 915 226 835 q 279 1052 226 997 q 429 1107 332 1107 q 581 1052 528 1107 q 633 915 633 997 q 581 780 633 835 q 429 725 528 725 m 429 843 q 487 865 468 843 q 506 915 506 886 q 487 967 506 944 q 429 989 468 989 q 372 967 392 989 q 353 915 353 944 q 372 865 353 886 q 429 843 392 843 m 260 -14 q 144 8 197 -14 q 60 78 92 31 q 28 201 28 126 q 97 366 28 308 q 310 424 167 424 l 469 424 l 469 433 q 438 476 469 461 q 338 490 407 490 q 224 481 285 490 q 110 456 164 472 l 110 624 q 242 659 163 646 q 397 672 321 672 q 656 606 558 672 q 753 399 753 540 l 753 0 l 492 0 l 479 50 q 391 3 444 21 q 260 -14 338 -14 m 368 154 q 427 166 403 154 q 469 196 451 178 l 469 267 l 375 267 q 301 210 301 267 q 368 154 301 154 z "},"ǻ":{"ha":804,"x_min":28,"x_max":753,"o":"m 294 1129 l 422 1368 l 653 1368 l 513 1129 l 294 1129 m 429 725 q 279 780 332 725 q 226 915 226 835 q 279 1052 226 997 q 429 1107 332 1107 q 581 1052 528 1107 q 633 915 633 997 q 581 780 633 835 q 429 725 528 725 m 429 843 q 487 865 468 843 q 506 915 506 886 q 487 967 506 944 q 429 989 468 989 q 372 967 392 989 q 353 915 353 944 q 372 865 353 886 q 429 843 392 843 m 260 -14 q 144 8 197 -14 q 60 78 92 31 q 28 201 28 126 q 97 366 28 308 q 310 424 167 424 l 469 424 l 469 433 q 438 476 469 461 q 338 490 407 490 q 224 481 285 490 q 110 456 164 472 l 110 624 q 242 659 163 646 q 397 672 321 672 q 656 606 558 672 q 753 399 753 540 l 753 0 l 492 0 l 479 50 q 391 3 444 21 q 260 -14 338 -14 m 368 154 q 427 166 403 154 q 469 196 451 178 l 469 267 l 375 267 q 301 210 301 267 q 368 154 301 154 z "},"ã":{"ha":804,"x_min":28,"x_max":753,"o":"m 569 733 q 476 749 522 733 q 388 778 431 764 q 304 793 344 793 q 224 778 258 793 q 164 738 189 763 l 164 917 q 221 950 183 936 q 300 964 258 964 q 392 949 349 964 q 477 919 435 935 q 565 904 519 904 q 645 921 611 904 q 696 961 679 938 l 696 781 q 647 748 682 763 q 569 733 613 733 m 260 -14 q 144 8 197 -14 q 60 78 92 31 q 28 201 28 126 q 97 366 28 308 q 310 424 167 424 l 469 424 l 469 433 q 438 476 469 461 q 338 490 407 490 q 224 481 285 490 q 110 456 164 472 l 110 624 q 242 659 163 646 q 397 672 321 672 q 656 606 558 672 q 753 399 753 540 l 753 0 l 492 0 l 479 50 q 391 3 444 21 q 260 -14 338 -14 m 368 154 q 427 166 403 154 q 469 196 451 178 l 469 267 l 375 267 q 301 210 301 267 q 368 154 301 154 z "},"æ":{"ha":1229,"x_min":28,"x_max":1201,"o":"m 297 -14 q 161 8 222 -14 q 64 78 100 31 q 28 201 28 126 q 97 366 28 308 q 310 424 167 424 l 469 424 l 469 433 q 438 476 469 461 q 338 490 407 490 q 224 481 285 490 q 110 456 164 472 l 110 624 q 242 659 163 646 q 397 672 321 672 q 619 611 535 672 q 719 656 660 639 q 844 672 779 672 q 1106 590 1010 672 q 1201 358 1201 507 l 1201 244 l 754 244 q 957 168 790 168 q 1075 178 1018 168 q 1167 203 1132 189 l 1167 33 q 885 -14 1068 -14 q 735 12 808 -14 q 619 85 663 38 q 494 15 568 44 q 297 -14 419 -14 m 754 400 l 946 400 l 946 418 q 926 468 946 447 q 854 489 906 489 q 776 465 799 489 q 754 400 754 440 m 368 154 q 428 165 403 154 q 469 193 453 175 l 469 267 l 392 267 q 324 256 346 267 q 301 210 301 246 q 368 154 301 154 z "},"ǽ":{"ha":1229,"x_min":28,"x_max":1201,"o":"m 482 725 l 610 1025 l 840 1025 l 700 725 l 482 725 m 297 -14 q 161 8 222 -14 q 64 78 100 31 q 28 201 28 126 q 97 366 28 308 q 310 424 167 424 l 469 424 l 469 433 q 438 476 469 461 q 338 490 407 490 q 224 481 285 490 q 110 456 164 472 l 110 624 q 242 659 163 646 q 397 672 321 672 q 619 611 535 672 q 719 656 660 639 q 844 672 779 672 q 1106 590 1010 672 q 1201 358 1201 507 l 1201 244 l 754 244 q 957 168 790 168 q 1075 178 1018 168 q 1167 203 1132 189 l 1167 33 q 885 -14 1068 -14 q 735 12 808 -14 q 619 85 663 38 q 494 15 568 44 q 297 -14 419 -14 m 754 400 l 946 400 l 946 418 q 926 468 946 447 q 854 489 906 489 q 776 465 799 489 q 754 400 754 440 m 368 154 q 428 165 403 154 q 469 193 453 175 l 469 267 l 392 267 q 324 256 346 267 q 301 210 301 246 q 368 154 301 154 z "},"b":{"ha":857,"x_min":56,"x_max":829,"o":"m 521 -14 q 413 2 458 -14 q 328 47 367 18 l 314 0 l 56 0 l 56 936 l 354 936 l 354 640 q 426 664 383 656 q 510 672 469 672 q 744 594 660 672 q 829 335 829 517 q 745 72 829 158 q 521 -14 661 -14 m 435 200 q 502 229 479 200 q 525 331 525 258 q 502 430 525 403 q 435 457 479 457 q 354 429 386 457 l 354 231 q 390 208 371 217 q 435 200 410 200 z "},"c":{"ha":713,"x_min":28,"x_max":685,"o":"m 428 -14 q 217 24 307 -14 q 78 137 128 61 q 28 329 28 213 q 78 522 28 446 q 218 635 128 599 q 426 672 308 672 q 565 662 503 672 q 682 625 626 651 l 682 417 q 493 457 597 457 q 372 428 413 457 q 332 329 332 400 q 372 231 332 261 q 494 201 413 201 q 593 215 544 201 q 685 250 642 228 l 685 32 q 566 -3 629 7 q 428 -14 503 -14 z "},"ć":{"ha":713,"x_min":28,"x_max":685,"o":"m 290 725 l 418 1025 l 649 1025 l 508 725 l 290 725 m 428 -14 q 217 24 307 -14 q 78 137 128 61 q 28 329 28 213 q 78 522 28 446 q 218 635 128 599 q 426 672 308 672 q 565 662 503 672 q 682 625 626 651 l 682 417 q 493 457 597 457 q 372 428 413 457 q 332 329 332 400 q 372 231 332 261 q 494 201 413 201 q 593 215 544 201 q 685 250 642 228 l 685 32 q 566 -3 629 7 q 428 -14 503 -14 z "},"č":{"ha":713,"x_min":28,"x_max":707,"o":"m 301 724 l 72 1013 l 289 1013 l 390 863 l 496 1013 l 707 1013 l 478 724 l 301 724 m 428 -14 q 217 24 307 -14 q 78 137 128 61 q 28 329 28 213 q 78 522 28 446 q 218 635 128 599 q 426 672 308 672 q 565 662 503 672 q 682 625 626 651 l 682 417 q 493 457 597 457 q 372 428 413 457 q 332 329 332 400 q 372 231 332 261 q 494 201 413 201 q 593 215 544 201 q 685 250 642 228 l 685 32 q 566 -3 629 7 q 428 -14 503 -14 z "},"ç":{"ha":713,"x_min":28,"x_max":685,"o":"m 397 -333 q 333 -330 372 -333 q 279 -322 294 -326 l 279 -218 q 361 -229 319 -229 q 457 -181 457 -229 q 440 -148 457 -156 q 394 -140 422 -140 l 299 -140 l 336 -8 q 111 94 194 11 q 28 329 28 178 q 78 522 28 446 q 218 635 128 599 q 426 672 308 672 q 565 662 503 672 q 682 625 626 651 l 682 417 q 493 457 597 457 q 372 428 413 457 q 332 329 332 400 q 372 231 332 261 q 494 201 413 201 q 593 215 544 201 q 685 250 642 228 l 685 32 q 592 2 640 13 q 490 -12 544 -8 l 475 -54 q 590 -92 551 -54 q 628 -186 628 -129 q 570 -294 628 -254 q 397 -333 513 -333 z "},"ĉ":{"ha":713,"x_min":28,"x_max":694,"o":"m 60 724 l 289 1013 l 465 1013 l 694 724 l 483 724 l 378 874 l 276 724 l 60 724 m 428 -14 q 217 24 307 -14 q 78 137 128 61 q 28 329 28 213 q 78 522 28 446 q 218 635 128 599 q 426 672 308 672 q 565 662 503 672 q 682 625 626 651 l 682 417 q 493 457 597 457 q 372 428 413 457 q 332 329 332 400 q 372 231 332 261 q 494 201 413 201 q 593 215 544 201 q 685 250 642 228 l 685 32 q 566 -3 629 7 q 428 -14 503 -14 z "},"ċ":{"ha":713,"x_min":28,"x_max":685,"o":"m 288 764 l 288 946 l 486 946 l 486 764 l 288 764 m 428 -14 q 217 24 307 -14 q 78 137 128 61 q 28 329 28 213 q 78 522 28 446 q 218 635 128 599 q 426 672 308 672 q 565 662 503 672 q 682 625 626 651 l 682 417 q 493 457 597 457 q 372 428 413 457 q 332 329 332 400 q 372 231 332 261 q 494 201 413 201 q 593 215 544 201 q 685 250 642 228 l 685 32 q 566 -3 629 7 q 428 -14 503 -14 z "},"d":{"ha":857,"x_min":28,"x_max":801,"o":"m 336 -14 q 174 18 243 -14 q 66 122 104 50 q 28 310 28 193 q 72 512 28 432 q 191 632 117 592 q 354 672 265 672 q 434 664 394 672 q 503 640 474 656 l 503 936 l 801 936 l 801 0 l 543 0 l 529 47 q 444 2 490 18 q 336 -14 399 -14 m 422 200 q 467 208 447 200 q 503 231 486 217 l 503 429 q 422 457 471 457 q 353 419 374 457 q 332 308 332 381 q 355 218 332 236 q 422 200 378 200 z "},"ð":{"ha":844,"x_min":28,"x_max":803,"o":"m 411 -14 q 188 22 272 -14 q 66 124 104 57 q 28 282 28 190 q 113 497 28 428 q 349 567 197 567 q 442 556 393 567 q 522 525 492 544 l 522 550 q 519 605 522 579 q 504 653 515 631 l 369 596 l 369 674 l 446 707 q 350 722 408 722 q 245 711 294 722 q 146 678 196 700 l 146 867 q 267 899 201 889 q 401 908 332 908 q 565 882 494 908 q 683 810 635 856 l 803 861 l 803 782 l 732 751 q 783 636 767 700 q 800 503 800 572 l 800 354 q 411 -14 800 -14 m 408 179 q 494 206 465 179 q 522 297 522 233 l 522 353 q 465 377 494 368 q 407 386 435 386 q 318 359 343 386 q 293 282 293 332 q 408 179 293 179 z "},"ď":{"ha":1142,"x_min":28,"x_max":1142,"o":"m 336 -14 q 113 68 197 -14 q 28 326 28 150 q 115 590 28 508 q 347 672 203 672 q 431 664 388 672 q 503 640 474 656 l 503 936 l 801 936 l 801 0 l 543 0 l 529 47 q 444 2 490 18 q 336 -14 399 -14 m 863 607 l 911 936 l 1142 936 l 1057 607 l 863 607 m 422 200 q 467 208 447 200 q 503 231 486 217 l 503 429 q 422 457 471 457 q 356 426 379 457 q 332 324 332 396 q 355 226 332 251 q 422 200 378 200 z "},"đ":{"ha":860,"x_min":28,"x_max":846,"o":"m 336 -14 q 113 68 197 -14 q 28 326 28 150 q 115 590 28 508 q 347 672 203 672 q 431 664 388 672 q 503 640 474 656 l 503 710 l 331 710 l 331 882 l 503 882 l 503 936 l 801 936 l 801 882 l 846 882 l 846 710 l 801 710 l 801 0 l 543 0 l 529 47 q 444 2 490 18 q 336 -14 399 -14 m 422 200 q 467 208 447 200 q 503 231 486 217 l 503 429 q 422 457 471 457 q 356 426 379 457 q 332 324 332 396 q 355 226 332 251 q 422 200 378 200 z "},"ḍ":{"ha":857,"x_min":28,"x_max":801,"o":"m 336 -14 q 174 18 243 -14 q 66 122 104 50 q 28 310 28 193 q 72 512 28 432 q 191 632 117 592 q 354 672 265 672 q 434 664 394 672 q 503 640 474 656 l 503 936 l 801 936 l 801 0 l 543 0 l 529 47 q 444 2 490 18 q 336 -14 399 -14 m 422 200 q 467 208 447 200 q 503 231 486 217 l 503 429 q 422 457 471 457 q 353 419 374 457 q 332 308 332 381 q 355 218 332 236 q 422 200 378 200 m 331 -244 l 331 -64 l 529 -64 l 529 -244 l 331 -244 z "},"ḏ":{"ha":857,"x_min":28,"x_max":801,"o":"m 336 -14 q 174 18 243 -14 q 66 122 104 50 q 28 310 28 193 q 72 512 28 432 q 191 632 117 592 q 354 672 265 672 q 434 664 394 672 q 503 640 474 656 l 503 936 l 801 936 l 801 0 l 543 0 l 529 47 q 444 2 490 18 q 336 -14 399 -14 m 422 200 q 467 208 447 200 q 503 231 486 217 l 503 429 q 422 457 471 457 q 353 419 374 457 q 332 308 332 381 q 355 218 332 236 q 422 200 378 200 m 204 -244 l 204 -69 l 675 -69 l 675 -244 l 204 -244 z "},"e":{"ha":776,"x_min":28,"x_max":749,"o":"m 428 -14 q 222 24 313 -14 q 79 139 131 63 q 28 326 28 215 q 119 578 28 483 q 392 672 210 672 q 653 590 557 672 q 749 358 749 507 l 749 244 l 301 244 q 504 168 338 168 q 622 178 565 168 q 714 203 679 189 l 714 33 q 428 -14 615 -14 m 301 400 l 493 400 l 493 418 q 473 468 493 447 q 401 489 453 489 q 324 465 346 489 q 301 400 301 442 z "},"é":{"ha":776,"x_min":28,"x_max":749,"o":"m 293 725 l 421 1025 l 651 1025 l 511 725 l 293 725 m 428 -14 q 222 24 313 -14 q 79 139 131 63 q 28 326 28 215 q 119 578 28 483 q 392 672 210 672 q 653 590 557 672 q 749 358 749 507 l 749 244 l 301 244 q 504 168 338 168 q 622 178 565 168 q 714 203 679 189 l 714 33 q 428 -14 615 -14 m 301 400 l 493 400 l 493 418 q 473 468 493 447 q 401 489 453 489 q 324 465 346 489 q 301 400 301 442 z "},"ĕ":{"ha":776,"x_min":28,"x_max":749,"o":"m 400 725 q 194 798 272 725 q 117 1008 117 871 l 308 1008 q 328 924 308 960 q 400 889 349 889 q 473 924 453 889 q 493 1008 493 960 l 686 1008 q 608 798 686 871 q 400 725 529 725 m 428 -14 q 222 24 313 -14 q 79 139 131 63 q 28 326 28 215 q 119 578 28 483 q 392 672 210 672 q 653 590 557 672 q 749 358 749 507 l 749 244 l 301 244 q 504 168 338 168 q 622 178 565 168 q 714 203 679 189 l 714 33 q 428 -14 615 -14 m 301 400 l 493 400 l 493 418 q 473 468 493 447 q 401 489 453 489 q 324 465 346 489 q 301 400 301 442 z "},"ě":{"ha":776,"x_min":28,"x_max":749,"o":"m 318 724 l 89 1013 l 306 1013 l 407 863 l 513 1013 l 724 1013 l 494 724 l 318 724 m 428 -14 q 222 24 313 -14 q 79 139 131 63 q 28 326 28 215 q 119 578 28 483 q 392 672 210 672 q 653 590 557 672 q 749 358 749 507 l 749 244 l 301 244 q 504 168 338 168 q 622 178 565 168 q 714 203 679 189 l 714 33 q 428 -14 615 -14 m 301 400 l 493 400 l 493 418 q 473 468 493 447 q 401 489 453 489 q 324 465 346 489 q 301 400 301 442 z "},"ê":{"ha":776,"x_min":28,"x_max":749,"o":"m 79 725 l 308 1014 l 485 1014 l 714 725 l 503 725 l 397 875 l 296 725 l 79 725 m 428 -14 q 222 24 313 -14 q 79 139 131 63 q 28 326 28 215 q 119 578 28 483 q 392 672 210 672 q 653 590 557 672 q 749 358 749 507 l 749 244 l 301 244 q 504 168 338 168 q 622 178 565 168 q 714 203 679 189 l 714 33 q 428 -14 615 -14 m 301 400 l 493 400 l 493 418 q 473 468 493 447 q 401 489 453 489 q 324 465 346 489 q 301 400 301 442 z "},"ế":{"ha":776,"x_min":28,"x_max":904,"o":"m 585 903 l 686 1131 l 904 1131 l 793 903 l 585 903 m 83 725 l 292 947 l 508 947 l 717 725 l 482 725 l 400 832 l 321 725 l 83 725 m 428 -14 q 222 24 313 -14 q 79 139 131 63 q 28 326 28 215 q 119 578 28 483 q 392 672 210 672 q 653 590 557 672 q 749 358 749 507 l 749 244 l 301 244 q 504 168 338 168 q 622 178 565 168 q 714 203 679 189 l 714 33 q 428 -14 615 -14 m 301 400 l 493 400 l 493 418 q 473 468 493 447 q 401 489 453 489 q 324 465 346 489 q 301 400 301 442 z "},"ệ":{"ha":776,"x_min":28,"x_max":749,"o":"m 75 725 l 304 1014 l 481 1014 l 710 725 l 499 725 l 393 875 l 292 725 l 75 725 m 428 -14 q 222 24 313 -14 q 79 139 131 63 q 28 326 28 215 q 119 578 28 483 q 392 672 210 672 q 653 590 557 672 q 749 358 749 507 l 749 244 l 301 244 q 504 168 338 168 q 622 178 565 168 q 714 203 679 189 l 714 33 q 428 -14 615 -14 m 301 400 l 493 400 l 493 418 q 473 468 493 447 q 401 489 453 489 q 324 465 346 489 q 301 400 301 442 m 293 -244 l 293 -64 l 492 -64 l 492 -244 l 293 -244 z "},"ề":{"ha":776,"x_min":-107,"x_max":749,"o":"m 6 903 l -107 1131 l 113 1131 l 214 903 l 6 903 m 81 725 l 289 947 l 507 947 l 715 725 l 478 725 l 397 832 l 315 725 l 81 725 m 428 -14 q 222 24 313 -14 q 79 139 131 63 q 28 326 28 215 q 119 578 28 483 q 392 672 210 672 q 653 590 557 672 q 749 358 749 507 l 749 244 l 301 244 q 504 168 338 168 q 622 178 565 168 q 714 203 679 189 l 714 33 q 428 -14 615 -14 m 301 400 l 493 400 l 493 418 q 473 468 493 447 q 401 489 453 489 q 324 465 346 489 q 301 400 301 442 z "},"ể":{"ha":776,"x_min":28,"x_max":890,"o":"m 596 871 l 596 978 q 672 990 653 979 q 690 1015 690 1000 q 638 1040 690 1040 q 601 1037 619 1040 q 568 1029 583 1033 l 568 1143 q 633 1155 596 1150 q 718 1160 671 1160 q 847 1125 804 1160 q 890 1036 890 1090 q 867 957 890 989 q 792 915 843 925 l 792 871 l 596 871 m 79 725 l 288 947 l 506 947 l 714 725 l 479 725 l 397 832 l 317 725 l 79 725 m 428 -14 q 222 24 313 -14 q 79 139 131 63 q 28 326 28 215 q 119 578 28 483 q 392 672 210 672 q 653 590 557 672 q 749 358 749 507 l 749 244 l 301 244 q 504 168 338 168 q 622 178 565 168 q 714 203 679 189 l 714 33 q 428 -14 615 -14 m 301 400 l 493 400 l 493 418 q 473 468 493 447 q 401 489 453 489 q 324 465 346 489 q 301 400 301 442 z "},"ễ":{"ha":776,"x_min":28,"x_max":749,"o":"m 525 961 q 440 976 482 961 q 358 1004 397 990 q 281 1018 318 1018 q 205 1004 238 1018 q 149 965 172 990 l 149 1111 q 203 1143 168 1131 q 276 1156 238 1156 q 362 1142 322 1156 q 440 1113 401 1128 q 521 1099 479 1099 q 596 1114 564 1099 q 644 1153 628 1129 l 644 1006 q 598 974 631 988 q 525 961 565 961 m 79 725 l 288 947 l 506 947 l 714 725 l 479 725 l 397 832 l 317 725 l 79 725 m 428 -14 q 222 24 313 -14 q 79 139 131 63 q 28 326 28 215 q 119 578 28 483 q 392 672 210 672 q 653 590 557 672 q 749 358 749 507 l 749 244 l 301 244 q 504 168 338 168 q 622 178 565 168 q 714 203 679 189 l 714 33 q 428 -14 615 -14 m 301 400 l 493 400 l 493 418 q 473 468 493 447 q 401 489 453 489 q 324 465 346 489 q 301 400 301 442 z "},"ë":{"ha":776,"x_min":28,"x_max":749,"o":"m 140 764 l 140 946 l 340 946 l 340 764 l 140 764 m 454 764 l 454 946 l 653 946 l 653 764 l 454 764 m 428 -14 q 222 24 313 -14 q 79 139 131 63 q 28 326 28 215 q 119 578 28 483 q 392 672 210 672 q 653 590 557 672 q 749 358 749 507 l 749 244 l 301 244 q 504 168 338 168 q 622 178 565 168 q 714 203 679 189 l 714 33 q 428 -14 615 -14 m 301 400 l 493 400 l 493 418 q 473 468 493 447 q 401 489 453 489 q 324 465 346 489 q 301 400 301 442 z "},"ė":{"ha":776,"x_min":28,"x_max":749,"o":"m 300 764 l 300 946 l 499 946 l 499 764 l 300 764 m 428 -14 q 222 24 313 -14 q 79 139 131 63 q 28 326 28 215 q 119 578 28 483 q 392 672 210 672 q 653 590 557 672 q 749 358 749 507 l 749 244 l 301 244 q 504 168 338 168 q 622 178 565 168 q 714 203 679 189 l 714 33 q 428 -14 615 -14 m 301 400 l 493 400 l 493 418 q 473 468 493 447 q 401 489 453 489 q 324 465 346 489 q 301 400 301 442 z "},"ẹ":{"ha":776,"x_min":28,"x_max":749,"o":"m 428 -14 q 222 24 313 -14 q 79 139 131 63 q 28 326 28 215 q 119 578 28 483 q 392 672 210 672 q 653 590 557 672 q 749 358 749 507 l 749 244 l 301 244 q 504 168 338 168 q 622 178 565 168 q 714 203 679 189 l 714 33 q 428 -14 615 -14 m 301 400 l 493 400 l 493 418 q 473 468 493 447 q 401 489 453 489 q 324 465 346 489 q 301 400 301 442 m 307 -244 l 307 -64 l 506 -64 l 506 -244 l 307 -244 z "},"è":{"ha":776,"x_min":28,"x_max":749,"o":"m 288 725 l 147 1025 l 379 1025 l 507 725 l 288 725 m 428 -14 q 222 24 313 -14 q 79 139 131 63 q 28 326 28 215 q 119 578 28 483 q 392 672 210 672 q 653 590 557 672 q 749 358 749 507 l 749 244 l 301 244 q 504 168 338 168 q 622 178 565 168 q 714 203 679 189 l 714 33 q 428 -14 615 -14 m 301 400 l 493 400 l 493 418 q 473 468 493 447 q 401 489 453 489 q 324 465 346 489 q 301 400 301 442 z "},"ẻ":{"ha":776,"x_min":28,"x_max":749,"o":"m 286 725 l 286 838 q 381 857 356 842 q 407 894 407 872 q 331 938 407 938 q 288 934 310 938 q 250 925 267 931 l 250 1044 q 324 1059 282 1054 q 421 1064 365 1064 q 572 1023 519 1064 q 624 919 624 982 q 595 827 624 858 q 508 778 567 796 l 508 725 l 286 725 m 428 -14 q 222 24 313 -14 q 79 139 131 63 q 28 326 28 215 q 119 578 28 483 q 392 672 210 672 q 653 590 557 672 q 749 358 749 507 l 749 244 l 301 244 q 504 168 338 168 q 622 178 565 168 q 714 203 679 189 l 714 33 q 428 -14 615 -14 m 301 400 l 493 400 l 493 418 q 473 468 493 447 q 401 489 453 489 q 324 465 346 489 q 301 400 301 442 z "},"ē":{"ha":776,"x_min":28,"x_max":749,"o":"m 158 776 l 158 951 l 629 951 l 629 776 l 158 776 m 428 -14 q 222 24 313 -14 q 79 139 131 63 q 28 326 28 215 q 119 578 28 483 q 392 672 210 672 q 653 590 557 672 q 749 358 749 507 l 749 244 l 301 244 q 504 168 338 168 q 622 178 565 168 q 714 203 679 189 l 714 33 q 428 -14 615 -14 m 301 400 l 493 400 l 493 418 q 473 468 493 447 q 401 489 453 489 q 324 465 346 489 q 301 400 301 442 z "},"ę":{"ha":776,"x_min":28,"x_max":749,"o":"m 486 -306 q 346 -272 400 -306 q 292 -167 292 -239 q 316 -78 292 -118 q 378 -12 340 -39 q 196 37 275 -4 q 72 150 117 78 q 28 326 28 222 q 119 578 28 483 q 392 672 210 672 q 653 590 557 672 q 749 358 749 507 l 749 244 l 301 244 q 504 168 338 168 q 622 178 565 168 q 714 203 679 189 l 714 33 q 576 -4 658 7 q 527 -56 546 -29 q 508 -115 508 -83 q 571 -164 508 -164 q 608 -160 589 -164 q 640 -149 628 -156 l 640 -282 q 576 -298 618 -290 q 486 -306 535 -306 m 301 400 l 493 400 l 493 418 q 473 468 493 447 q 401 489 453 489 q 324 465 346 489 q 301 400 301 442 z "},"ẽ":{"ha":776,"x_min":28,"x_max":749,"o":"m 549 733 q 456 749 501 733 q 367 778 410 764 q 283 793 324 793 q 203 778 238 793 q 143 738 168 763 l 143 917 q 200 950 163 936 q 279 964 238 964 q 371 949 328 964 q 456 919 414 935 q 544 904 499 904 q 624 921 590 904 q 675 961 658 938 l 675 781 q 626 748 661 763 q 549 733 592 733 m 428 -14 q 222 24 313 -14 q 79 139 131 63 q 28 326 28 215 q 119 578 28 483 q 392 672 210 672 q 653 590 557 672 q 749 358 749 507 l 749 244 l 301 244 q 504 168 338 168 q 622 178 565 168 q 714 203 679 189 l 714 33 q 428 -14 615 -14 m 301 400 l 493 400 l 493 418 q 473 468 493 447 q 401 489 453 489 q 324 465 346 489 q 301 400 301 442 z "},"ə":{"ha":776,"x_min":28,"x_max":749,"o":"m 385 -14 q 124 69 221 -14 q 28 299 28 151 l 28 413 l 475 413 q 272 489 439 489 q 155 479 213 489 q 63 456 97 469 l 63 624 q 349 672 164 672 q 556 634 465 672 q 697 519 646 596 q 749 331 749 443 q 658 80 749 174 q 385 -14 567 -14 m 375 168 q 453 192 431 168 q 475 258 475 217 l 283 258 l 283 240 q 303 190 283 211 q 375 168 324 168 z "},"f":{"ha":567,"x_min":14,"x_max":553,"o":"m 94 0 l 94 440 l 14 440 l 14 658 l 94 658 l 94 690 q 161 882 94 806 q 363 958 228 958 q 467 949 422 958 q 553 924 513 940 l 553 735 q 469 749 513 749 q 410 732 428 749 q 393 683 393 715 l 393 658 l 543 658 l 531 440 l 393 440 l 393 0 l 94 0 z "},"g":{"ha":806,"x_min":29,"x_max":789,"o":"m 354 -244 q 247 -241 306 -244 q 135 -230 188 -237 q 49 -211 82 -222 l 49 -32 q 137 -52 86 -44 q 240 -64 188 -60 q 336 -68 293 -68 q 441 -62 400 -68 q 482 -39 482 -56 q 467 -22 482 -25 q 419 -18 451 -18 l 254 -18 q 89 13 146 -18 q 32 111 32 44 q 138 240 32 206 q 55 313 81 269 q 29 424 29 356 q 120 612 29 551 q 378 672 211 672 q 460 667 414 672 q 525 658 506 663 l 789 658 l 783 479 l 703 479 q 719 419 719 453 q 663 260 719 318 q 479 201 607 201 q 442 203 463 201 q 404 206 421 204 q 360 197 379 204 q 342 174 342 190 q 383 153 342 153 l 517 153 q 680 107 619 153 q 740 -33 740 61 q 648 -187 740 -131 q 354 -244 556 -244 m 381 364 q 449 381 431 364 q 468 436 468 397 q 449 494 468 476 q 381 511 429 511 q 313 494 333 511 q 292 436 292 476 q 312 381 292 399 q 381 364 332 364 z "},"ğ":{"ha":799,"x_min":29,"x_max":789,"o":"m 406 725 q 200 798 278 725 q 122 1008 122 871 l 314 1008 q 334 924 314 960 q 406 889 354 889 q 478 924 458 889 q 499 1008 499 960 l 692 1008 q 613 798 692 871 q 406 725 535 725 m 354 -244 q 247 -241 306 -244 q 135 -230 188 -237 q 49 -211 82 -222 l 49 -32 q 137 -52 86 -44 q 240 -64 188 -60 q 336 -68 293 -68 q 441 -62 400 -68 q 482 -39 482 -56 q 467 -22 482 -25 q 419 -18 451 -18 l 254 -18 q 89 13 146 -18 q 32 111 32 44 q 138 240 32 206 q 55 313 81 269 q 29 424 29 356 q 120 612 29 551 q 378 672 211 672 q 460 667 414 672 q 525 658 506 663 l 789 658 l 783 479 l 703 479 q 719 419 719 453 q 663 260 719 318 q 479 201 607 201 q 442 203 463 201 q 404 206 421 204 q 360 197 379 204 q 342 174 342 190 q 383 153 342 153 l 517 153 q 680 107 619 153 q 740 -33 740 61 q 648 -187 740 -131 q 354 -244 556 -244 m 381 364 q 449 381 431 364 q 468 436 468 397 q 449 494 468 476 q 381 511 429 511 q 313 494 333 511 q 292 436 292 476 q 312 381 292 399 q 381 364 332 364 z "},"ǧ":{"ha":799,"x_min":29,"x_max":789,"o":"m 319 724 l 90 1013 l 307 1013 l 408 863 l 514 1013 l 725 1013 l 496 724 l 319 724 m 354 -244 q 247 -241 306 -244 q 135 -230 188 -237 q 49 -211 82 -222 l 49 -32 q 137 -52 86 -44 q 240 -64 188 -60 q 336 -68 293 -68 q 441 -62 400 -68 q 482 -39 482 -56 q 467 -22 482 -25 q 419 -18 451 -18 l 254 -18 q 89 13 146 -18 q 32 111 32 44 q 138 240 32 206 q 55 313 81 269 q 29 424 29 356 q 120 612 29 551 q 378 672 211 672 q 460 667 414 672 q 525 658 506 663 l 789 658 l 783 479 l 703 479 q 719 419 719 453 q 663 260 719 318 q 479 201 607 201 q 442 203 463 201 q 404 206 421 204 q 360 197 379 204 q 342 174 342 190 q 383 153 342 153 l 517 153 q 680 107 619 153 q 740 -33 740 61 q 648 -187 740 -131 q 354 -244 556 -244 m 381 364 q 449 381 431 364 q 468 436 468 397 q 449 494 468 476 q 381 511 429 511 q 313 494 333 511 q 292 436 292 476 q 312 381 292 399 q 381 364 332 364 z "},"ĝ":{"ha":799,"x_min":29,"x_max":789,"o":"m 92 724 l 321 1013 l 497 1013 l 726 724 l 515 724 l 410 874 l 308 724 l 92 724 m 354 -244 q 247 -241 306 -244 q 135 -230 188 -237 q 49 -211 82 -222 l 49 -32 q 137 -52 86 -44 q 240 -64 188 -60 q 336 -68 293 -68 q 441 -62 400 -68 q 482 -39 482 -56 q 467 -22 482 -25 q 419 -18 451 -18 l 254 -18 q 89 13 146 -18 q 32 111 32 44 q 138 240 32 206 q 55 313 81 269 q 29 424 29 356 q 120 612 29 551 q 378 672 211 672 q 460 667 414 672 q 525 658 506 663 l 789 658 l 783 479 l 703 479 q 719 419 719 453 q 663 260 719 318 q 479 201 607 201 q 442 203 463 201 q 404 206 421 204 q 360 197 379 204 q 342 174 342 190 q 383 153 342 153 l 517 153 q 680 107 619 153 q 740 -33 740 61 q 648 -187 740 -131 q 354 -244 556 -244 m 381 364 q 449 381 431 364 q 468 436 468 397 q 449 494 468 476 q 381 511 429 511 q 313 494 333 511 q 292 436 292 476 q 312 381 292 399 q 381 364 332 364 z "},"ģ":{"ha":799,"x_min":29,"x_max":789,"o":"m 276 725 l 361 1054 l 556 1054 l 507 725 l 276 725 m 354 -244 q 247 -241 306 -244 q 135 -230 188 -237 q 49 -211 82 -222 l 49 -32 q 137 -52 86 -44 q 240 -64 188 -60 q 336 -68 293 -68 q 441 -62 400 -68 q 482 -39 482 -56 q 467 -22 482 -25 q 419 -18 451 -18 l 254 -18 q 89 13 146 -18 q 32 111 32 44 q 138 240 32 206 q 55 313 81 269 q 29 424 29 356 q 120 612 29 551 q 378 672 211 672 q 460 667 414 672 q 525 658 506 663 l 789 658 l 783 479 l 703 479 q 719 419 719 453 q 663 260 719 318 q 479 201 607 201 q 442 203 463 201 q 404 206 421 204 q 360 197 379 204 q 342 174 342 190 q 383 153 342 153 l 517 153 q 680 107 619 153 q 740 -33 740 61 q 648 -187 740 -131 q 354 -244 556 -244 m 381 364 q 449 381 431 364 q 468 436 468 397 q 449 494 468 476 q 381 511 429 511 q 313 494 333 511 q 292 436 292 476 q 312 381 292 399 q 381 364 332 364 z "},"ġ":{"ha":799,"x_min":29,"x_max":789,"o":"m 294 739 l 294 921 l 493 921 l 493 739 l 294 739 m 354 -244 q 247 -241 306 -244 q 135 -230 188 -237 q 49 -211 82 -222 l 49 -32 q 137 -52 86 -44 q 240 -64 188 -60 q 336 -68 293 -68 q 441 -62 400 -68 q 482 -39 482 -56 q 467 -22 482 -25 q 419 -18 451 -18 l 254 -18 q 89 13 146 -18 q 32 111 32 44 q 138 240 32 206 q 55 313 81 269 q 29 424 29 356 q 120 612 29 551 q 378 672 211 672 q 460 667 414 672 q 525 658 506 663 l 789 658 l 783 479 l 703 479 q 719 419 719 453 q 663 260 719 318 q 479 201 607 201 q 442 203 463 201 q 404 206 421 204 q 360 197 379 204 q 342 174 342 190 q 383 153 342 153 l 517 153 q 680 107 619 153 q 740 -33 740 61 q 648 -187 740 -131 q 354 -244 556 -244 m 381 364 q 449 381 431 364 q 468 436 468 397 q 449 494 468 476 q 381 511 429 511 q 313 494 333 511 q 292 436 292 476 q 312 381 292 399 q 381 364 332 364 z "},"ḡ":{"ha":799,"x_min":29,"x_max":789,"o":"m 154 765 l 154 940 l 625 940 l 625 765 l 154 765 m 354 -244 q 247 -241 306 -244 q 135 -230 188 -237 q 49 -211 82 -222 l 49 -32 q 137 -52 86 -44 q 240 -64 188 -60 q 336 -68 293 -68 q 441 -62 400 -68 q 482 -39 482 -56 q 467 -22 482 -25 q 419 -18 451 -18 l 254 -18 q 89 13 146 -18 q 32 111 32 44 q 138 240 32 206 q 55 313 81 269 q 29 424 29 356 q 120 612 29 551 q 378 672 211 672 q 460 667 414 672 q 525 658 506 663 l 789 658 l 783 479 l 703 479 q 719 419 719 453 q 663 260 719 318 q 479 201 607 201 q 442 203 463 201 q 404 206 421 204 q 360 197 379 204 q 342 174 342 190 q 383 153 342 153 l 517 153 q 680 107 619 153 q 740 -33 740 61 q 648 -187 740 -131 q 354 -244 556 -244 m 381 364 q 449 381 431 364 q 468 436 468 397 q 449 494 468 476 q 381 511 429 511 q 313 494 333 511 q 292 436 292 476 q 312 381 292 399 q 381 364 332 364 z "},"h":{"ha":854,"x_min":56,"x_max":806,"o":"m 56 0 l 56 936 l 354 936 l 354 625 q 435 658 386 644 q 539 672 483 672 q 741 608 676 672 q 806 410 806 543 l 806 0 l 506 0 l 506 386 q 491 437 506 422 q 440 451 476 451 q 394 440 418 451 q 354 414 369 429 l 354 0 l 56 0 z "},"ħ":{"ha":861,"x_min":10,"x_max":813,"o":"m 63 0 l 63 719 l 10 719 l 10 864 l 63 864 l 63 936 l 361 936 l 361 864 l 499 864 l 499 719 l 361 719 l 361 625 q 442 658 393 644 q 546 672 490 672 q 748 608 683 672 q 813 410 813 543 l 813 0 l 513 0 l 513 386 q 498 437 513 422 q 447 451 483 451 q 401 440 425 451 q 361 414 376 429 l 361 0 l 63 0 z "},"ḫ":{"ha":854,"x_min":56,"x_max":806,"o":"m 56 0 l 56 936 l 354 936 l 354 625 q 435 658 386 644 q 539 672 483 672 q 741 608 676 672 q 806 410 806 543 l 806 0 l 506 0 l 506 386 q 491 437 506 422 q 440 451 476 451 q 394 440 418 451 q 354 414 369 429 l 354 0 l 56 0 m 432 -346 q 226 -273 304 -346 q 149 -62 149 -200 l 340 -62 q 360 -147 340 -111 q 432 -182 381 -182 q 505 -147 485 -182 q 525 -62 525 -111 l 718 -62 q 640 -273 718 -200 q 432 -346 561 -346 z "},"ĥ":{"ha":854,"x_min":56,"x_max":806,"o":"m 63 985 l 292 1274 l 468 1274 l 697 985 l 486 985 l 381 1135 l 279 985 l 63 985 m 56 0 l 56 936 l 354 936 l 354 625 q 435 658 386 644 q 539 672 483 672 q 741 608 676 672 q 806 410 806 543 l 806 0 l 506 0 l 506 386 q 491 437 506 422 q 440 451 476 451 q 394 440 418 451 q 354 414 369 429 l 354 0 l 56 0 z "},"ḥ":{"ha":854,"x_min":56,"x_max":806,"o":"m 56 0 l 56 936 l 354 936 l 354 625 q 435 658 386 644 q 539 672 483 672 q 741 608 676 672 q 806 410 806 543 l 806 0 l 506 0 l 506 386 q 491 437 506 422 q 440 451 476 451 q 394 440 418 451 q 354 414 369 429 l 354 0 l 56 0 m 328 -244 l 328 -64 l 526 -64 l 526 -244 l 328 -244 z "},"i":{"ha":481,"x_min":33,"x_max":425,"o":"m 104 729 l 104 939 l 425 939 l 425 729 l 104 729 m 126 0 l 126 442 l 33 442 l 58 658 l 425 658 l 425 0 l 126 0 z "},"ı":{"ha":481,"x_min":33,"x_max":425,"o":"m 126 0 l 126 442 l 33 442 l 58 658 l 425 658 l 425 0 l 126 0 z "},"í":{"ha":503,"x_min":56,"x_max":518,"o":"m 160 725 l 288 1025 l 518 1025 l 378 725 l 160 725 m 149 0 l 149 442 l 56 442 l 81 658 l 447 658 l 447 0 l 149 0 z "},"ĭ":{"ha":503,"x_min":-25,"x_max":544,"o":"m 258 725 q 53 798 131 725 q -25 1008 -25 871 l 167 1008 q 187 924 167 960 q 258 889 207 889 q 331 924 311 889 q 351 1008 351 960 l 544 1008 q 466 798 544 871 q 258 725 388 725 m 149 0 l 149 442 l 56 442 l 81 658 l 447 658 l 447 0 l 149 0 z "},"ǐ":{"ha":503,"x_min":-51,"x_max":583,"o":"m 178 724 l -51 1013 l 165 1013 l 267 863 l 372 1013 l 583 1013 l 354 724 l 178 724 m 149 0 l 149 442 l 56 442 l 81 658 l 447 658 l 447 0 l 149 0 z "},"î":{"ha":503,"x_min":-54,"x_max":581,"o":"m -54 725 l 175 1014 l 351 1014 l 581 725 l 369 725 l 264 875 l 163 725 l -54 725 m 149 0 l 149 442 l 56 442 l 81 658 l 447 658 l 447 0 l 149 0 z "},"ï":{"ha":503,"x_min":1,"x_max":514,"o":"m 1 764 l 1 946 l 201 946 l 201 764 l 1 764 m 315 764 l 315 946 l 514 946 l 514 764 l 315 764 m 149 0 l 149 442 l 56 442 l 81 658 l 447 658 l 447 0 l 149 0 z "},"ị":{"ha":503,"x_min":56,"x_max":447,"o":"m 126 729 l 126 939 l 447 939 l 447 729 l 126 729 m 149 0 l 149 442 l 56 442 l 81 658 l 447 658 l 447 0 l 149 0 m 196 -244 l 196 -64 l 394 -64 l 394 -244 l 196 -244 z "},"ì":{"ha":503,"x_min":39,"x_max":447,"o":"m 179 725 l 39 1025 l 271 1025 l 399 725 l 179 725 m 149 0 l 149 442 l 56 442 l 81 658 l 447 658 l 447 0 l 149 0 z "},"ỉ":{"ha":503,"x_min":56,"x_max":483,"o":"m 146 725 l 146 838 q 241 857 215 842 q 267 894 267 872 q 190 938 267 938 q 148 934 169 938 q 110 925 126 931 l 110 1044 q 183 1059 142 1054 q 281 1064 225 1064 q 431 1023 379 1064 q 483 919 483 982 q 455 827 483 858 q 368 778 426 796 l 368 725 l 146 725 m 149 0 l 149 442 l 56 442 l 81 658 l 447 658 l 447 0 l 149 0 z "},"ĳ":{"ha":907,"x_min":33,"x_max":851,"o":"m 104 729 l 104 939 l 425 939 l 425 729 l 104 729 m 531 729 l 531 939 l 851 939 l 851 729 l 531 729 m 585 -325 q 479 -317 525 -325 q 393 -292 433 -308 l 393 -100 q 476 -114 435 -114 q 553 -51 553 -114 l 553 442 l 460 442 l 485 658 l 851 658 l 851 -72 q 788 -253 851 -182 q 585 -325 725 -325 m 126 0 l 126 442 l 33 442 l 58 658 l 425 658 l 425 0 l 126 0 z "},"ī":{"ha":503,"x_min":21,"x_max":490,"o":"m 21 811 l 21 986 l 490 986 l 490 811 l 21 811 m 149 0 l 149 442 l 56 442 l 81 658 l 447 658 l 447 0 l 149 0 z "},"į":{"ha":481,"x_min":33,"x_max":428,"o":"m 104 729 l 104 939 l 425 939 l 425 729 l 104 729 m 126 0 l 126 442 l 33 442 l 58 658 l 425 658 l 425 0 l 369 0 q 317 -53 338 -25 q 296 -115 296 -82 q 358 -164 296 -164 q 396 -160 376 -164 q 428 -149 415 -156 l 428 -282 q 364 -298 406 -290 q 274 -306 322 -306 q 133 -272 188 -306 q 79 -167 79 -239 q 109 -69 79 -112 q 183 0 139 -26 l 126 0 z "},"ĩ":{"ha":503,"x_min":-12,"x_max":519,"o":"m 393 763 q 300 778 346 763 q 211 808 254 793 q 128 822 168 822 q 47 807 82 822 q -12 767 13 792 l -12 946 q 44 979 7 965 q 124 993 82 993 q 215 978 172 993 q 301 949 258 964 q 389 933 343 933 q 469 950 435 933 q 519 990 503 967 l 519 810 q 471 777 506 792 q 393 763 436 763 m 149 0 l 149 442 l 56 442 l 81 658 l 447 658 l 447 0 l 149 0 z "},"j":{"ha":515,"x_min":0,"x_max":458,"o":"m 138 729 l 138 939 l 458 939 l 458 729 l 138 729 m 192 -325 q 86 -317 132 -325 q 0 -292 40 -308 l 0 -100 q 83 -114 42 -114 q 160 -51 160 -114 l 160 442 l 67 442 l 92 658 l 458 658 l 458 -72 q 395 -253 458 -182 q 192 -325 332 -325 z "},"ȷ":{"ha":503,"x_min":-12,"x_max":446,"o":"m 178 -325 q 74 -317 119 -325 q -12 -292 28 -308 l -12 -100 q 71 -114 28 -114 q 147 -51 147 -114 l 147 442 l 53 442 l 78 658 l 446 658 l 446 -72 q 383 -253 446 -182 q 178 -325 319 -325 z "},"ĵ":{"ha":503,"x_min":-53,"x_max":582,"o":"m -53 724 l 176 1013 l 353 1013 l 582 724 l 371 724 l 265 874 l 164 724 l -53 724 m 178 -325 q 74 -317 119 -325 q -12 -292 28 -308 l -12 -100 q 71 -114 28 -114 q 147 -51 147 -114 l 147 442 l 53 442 l 78 658 l 446 658 l 446 -72 q 383 -253 446 -182 q 178 -325 319 -325 z "},"k":{"ha":878,"x_min":56,"x_max":857,"o":"m 56 0 l 56 936 l 354 936 l 354 500 l 506 658 l 843 658 l 582 376 l 857 0 l 540 0 l 396 221 l 354 176 l 354 0 l 56 0 z "},"ķ":{"ha":885,"x_min":56,"x_max":857,"o":"m 56 0 l 56 936 l 354 936 l 354 500 l 506 658 l 843 658 l 582 376 l 857 0 l 540 0 l 396 221 l 354 176 l 354 0 l 56 0 m 260 -381 l 308 -51 l 539 -51 l 454 -381 l 260 -381 z "},"ĸ":{"ha":885,"x_min":56,"x_max":857,"o":"m 56 0 l 56 658 l 354 658 l 354 483 l 506 658 l 843 658 l 582 363 l 857 0 l 540 0 l 396 206 l 354 160 l 354 0 l 56 0 z "},"l":{"ha":476,"x_min":56,"x_max":472,"o":"m 299 -14 q 110 40 165 -14 q 56 211 56 94 l 56 936 l 354 936 l 354 249 q 365 209 354 221 q 404 197 376 197 q 440 200 422 197 q 472 208 457 203 l 472 18 q 397 -6 433 1 q 299 -14 360 -14 z "},"ĺ":{"ha":476,"x_min":56,"x_max":472,"o":"m 94 1043 l 222 1343 l 453 1343 l 313 1043 l 94 1043 m 299 -14 q 110 40 165 -14 q 56 211 56 94 l 56 936 l 354 936 l 354 249 q 365 209 354 221 q 404 197 376 197 q 440 200 422 197 q 472 208 457 203 l 472 18 q 397 -6 433 1 q 299 -14 360 -14 z "},"ľ":{"ha":671,"x_min":56,"x_max":697,"o":"m 299 -14 q 110 40 165 -14 q 56 211 56 94 l 56 936 l 354 936 l 354 249 q 365 209 354 221 q 404 197 376 197 q 440 200 422 197 q 472 208 457 203 l 472 18 q 397 -6 433 1 q 299 -14 360 -14 m 418 607 l 467 936 l 697 936 l 613 607 l 418 607 z "},"ļ":{"ha":476,"x_min":56,"x_max":472,"o":"m 299 -14 q 110 40 165 -14 q 56 211 56 94 l 56 936 l 354 936 l 354 249 q 365 209 354 221 q 404 197 376 197 q 440 200 422 197 q 472 208 457 203 l 472 18 q 397 -6 433 1 q 299 -14 360 -14 m 128 -381 l 176 -51 l 407 -51 l 322 -381 l 128 -381 z "},"ŀ":{"ha":685,"x_min":56,"x_max":644,"o":"m 299 -14 q 110 40 165 -14 q 56 211 56 94 l 56 936 l 354 936 l 354 249 q 365 209 354 221 q 404 197 376 197 q 440 200 422 197 q 472 208 457 203 l 472 18 q 397 -6 433 1 q 299 -14 360 -14 m 446 419 l 446 601 l 644 601 l 644 419 l 446 419 z "},"ḷ":{"ha":476,"x_min":56,"x_max":472,"o":"m 299 -14 q 110 40 165 -14 q 56 211 56 94 l 56 936 l 354 936 l 354 249 q 365 209 354 221 q 404 197 376 197 q 440 200 422 197 q 472 208 457 203 l 472 18 q 397 -6 433 1 q 299 -14 360 -14 m 171 -244 l 171 -64 l 369 -64 l 369 -244 l 171 -244 z "},"ḹ":{"ha":476,"x_min":-28,"x_max":472,"o":"m -28 1010 l -28 1185 l 443 1185 l 443 1010 l -28 1010 m 299 -14 q 110 40 165 -14 q 56 211 56 94 l 56 936 l 354 936 l 354 249 q 365 209 354 221 q 404 197 376 197 q 440 200 422 197 q 472 208 457 203 l 472 18 q 397 -6 433 1 q 299 -14 360 -14 m 156 -243 l 156 -62 l 354 -62 l 354 -243 l 156 -243 z "},"ḻ":{"ha":476,"x_min":25,"x_max":496,"o":"m 299 -14 q 110 40 165 -14 q 56 211 56 94 l 56 936 l 354 936 l 354 249 q 365 209 354 221 q 404 197 376 197 q 440 200 422 197 q 472 208 457 203 l 472 18 q 397 -6 433 1 q 299 -14 360 -14 m 25 -244 l 25 -69 l 496 -69 l 496 -244 l 25 -244 z "},"ł":{"ha":476,"x_min":-43,"x_max":472,"o":"m 299 -14 q 110 40 165 -14 q 56 211 56 94 l 56 329 l -43 286 l -43 496 l 56 539 l 56 936 l 354 936 l 354 669 l 453 713 l 453 503 l 354 460 l 354 249 q 365 209 354 221 q 404 197 376 197 q 440 200 422 197 q 472 208 457 203 l 472 18 q 397 -6 433 1 q 299 -14 360 -14 z "},"m":{"ha":1201,"x_min":56,"x_max":1153,"o":"m 56 0 l 56 658 l 332 658 l 339 611 q 431 655 379 638 q 547 672 483 672 q 643 655 608 672 q 700 606 678 638 q 800 654 744 636 q 929 672 856 672 q 1099 610 1046 672 q 1153 425 1153 549 l 1153 0 l 860 0 l 860 390 q 847 437 860 422 q 801 451 833 451 q 738 424 763 451 q 739 386 739 404 q 739 347 739 368 l 739 0 l 463 0 l 463 396 q 452 438 463 425 q 414 451 442 451 q 376 441 394 451 q 343 415 358 431 l 343 0 l 56 0 z "},"ṃ":{"ha":1201,"x_min":56,"x_max":1153,"o":"m 56 0 l 56 658 l 332 658 l 339 611 q 431 655 379 638 q 547 672 483 672 q 643 655 608 672 q 700 606 678 638 q 800 654 744 636 q 929 672 856 672 q 1099 610 1046 672 q 1153 425 1153 549 l 1153 0 l 860 0 l 860 390 q 847 437 860 422 q 801 451 833 451 q 738 424 763 451 q 739 386 739 404 q 739 347 739 368 l 739 0 l 463 0 l 463 396 q 452 438 463 425 q 414 451 442 451 q 376 441 394 451 q 343 415 358 431 l 343 0 l 56 0 m 508 -243 l 508 -62 l 707 -62 l 707 -243 l 508 -243 z "},"n":{"ha":854,"x_min":56,"x_max":806,"o":"m 56 0 l 56 658 l 335 658 l 342 614 q 440 655 378 638 q 574 672 503 672 q 750 610 694 672 q 806 422 806 549 l 806 0 l 507 0 l 507 388 q 492 437 507 422 q 440 451 476 451 q 394 440 418 451 q 354 414 369 429 l 354 0 l 56 0 z "},"ń":{"ha":854,"x_min":56,"x_max":806,"o":"m 269 725 l 397 1025 l 628 1025 l 488 725 l 269 725 m 56 0 l 56 658 l 335 658 l 342 614 q 440 655 378 638 q 574 672 503 672 q 750 610 694 672 q 806 422 806 549 l 806 0 l 507 0 l 507 388 q 492 437 507 422 q 440 451 476 451 q 394 440 418 451 q 354 414 369 429 l 354 0 l 56 0 z "},"ŉ":{"ha":974,"x_min":-94,"x_max":925,"o":"m -94 561 l -46 890 l 185 890 l 100 561 l -94 561 m 175 0 l 175 658 l 454 658 l 461 614 q 560 655 497 638 q 693 672 622 672 q 869 610 814 672 q 925 422 925 549 l 925 0 l 626 0 l 626 388 q 611 437 626 422 q 560 451 596 451 q 513 440 538 451 q 474 414 489 429 l 474 0 l 175 0 z "},"ň":{"ha":854,"x_min":56,"x_max":806,"o":"m 314 724 l 85 1013 l 301 1013 l 403 863 l 508 1013 l 719 1013 l 490 724 l 314 724 m 56 0 l 56 658 l 335 658 l 342 614 q 440 655 378 638 q 574 672 503 672 q 750 610 694 672 q 806 422 806 549 l 806 0 l 507 0 l 507 388 q 492 437 507 422 q 440 451 476 451 q 394 440 418 451 q 354 414 369 429 l 354 0 l 56 0 z "},"ņ":{"ha":836,"x_min":38,"x_max":788,"o":"m 38 0 l 38 658 l 317 658 l 324 614 q 422 655 360 638 q 556 672 485 672 q 732 610 676 672 q 788 422 788 549 l 788 0 l 489 0 l 489 388 q 474 437 489 422 q 422 451 458 451 q 376 440 400 451 q 336 414 351 429 l 336 0 l 38 0 m 264 -381 l 313 -51 l 543 -51 l 458 -381 l 264 -381 z "},"ṅ":{"ha":854,"x_min":56,"x_max":806,"o":"m 325 764 l 325 946 l 524 946 l 524 764 l 325 764 m 56 0 l 56 658 l 335 658 l 342 614 q 440 655 378 638 q 574 672 503 672 q 750 610 694 672 q 806 422 806 549 l 806 0 l 507 0 l 507 388 q 492 437 507 422 q 440 451 476 451 q 394 440 418 451 q 354 414 369 429 l 354 0 l 56 0 z "},"ṇ":{"ha":854,"x_min":56,"x_max":806,"o":"m 56 0 l 56 658 l 335 658 l 342 614 q 440 655 378 638 q 574 672 503 672 q 750 610 694 672 q 806 422 806 549 l 806 0 l 507 0 l 507 388 q 492 437 507 422 q 440 451 476 451 q 394 440 418 451 q 354 414 369 429 l 354 0 l 56 0 m 335 -244 l 335 -64 l 533 -64 l 533 -244 l 335 -244 z "},"ŋ":{"ha":854,"x_min":56,"x_max":806,"o":"m 538 -325 q 433 -317 479 -325 q 347 -292 388 -308 l 347 -103 q 431 -117 388 -117 q 506 -51 506 -117 l 506 388 q 491 437 506 422 q 440 451 476 451 q 394 440 418 451 q 354 414 369 429 l 354 0 l 56 0 l 56 658 l 335 658 l 342 614 q 440 655 378 638 q 574 672 503 672 q 750 610 694 672 q 806 422 806 549 l 806 -72 q 742 -253 806 -182 q 538 -325 679 -325 z "},"ṉ":{"ha":854,"x_min":56,"x_max":806,"o":"m 56 0 l 56 658 l 335 658 l 342 614 q 440 655 378 638 q 574 672 503 672 q 750 610 694 672 q 806 422 806 549 l 806 0 l 507 0 l 507 388 q 492 437 507 422 q 440 451 476 451 q 394 440 418 451 q 354 414 369 429 l 354 0 l 56 0 m 199 -244 l 199 -69 l 669 -69 l 669 -244 l 199 -244 z "},"ñ":{"ha":854,"x_min":56,"x_max":806,"o":"m 565 733 q 472 749 518 733 q 383 778 426 764 q 300 793 340 793 q 219 778 254 793 q 160 738 185 763 l 160 917 q 217 950 179 936 q 296 964 254 964 q 388 949 344 964 q 473 919 431 935 q 561 904 515 904 q 641 921 607 904 q 692 961 675 938 l 692 781 q 643 748 678 763 q 565 733 608 733 m 56 0 l 56 658 l 335 658 l 342 614 q 440 655 378 638 q 574 672 503 672 q 750 610 694 672 q 806 422 806 549 l 806 0 l 507 0 l 507 388 q 492 437 507 422 q 440 451 476 451 q 394 440 418 451 q 354 414 369 429 l 354 0 l 56 0 z "},"o":{"ha":856,"x_min":28,"x_max":828,"o":"m 426 -14 q 126 73 224 -14 q 28 329 28 160 q 126 585 28 499 q 426 672 225 672 q 728 585 629 672 q 828 329 828 499 q 729 73 828 160 q 426 -14 631 -14 m 426 201 q 500 231 476 201 q 524 329 524 260 q 500 428 524 399 q 426 457 476 457 q 355 428 378 457 q 332 329 332 399 q 355 231 332 260 q 426 201 378 201 z "},"ó":{"ha":856,"x_min":28,"x_max":828,"o":"m 293 725 l 421 1025 l 651 1025 l 511 725 l 293 725 m 426 -14 q 126 73 224 -14 q 28 329 28 160 q 126 585 28 499 q 426 672 225 672 q 728 585 629 672 q 828 329 828 499 q 729 73 828 160 q 426 -14 631 -14 m 426 201 q 500 231 476 201 q 524 329 524 260 q 500 428 524 399 q 426 457 476 457 q 355 428 378 457 q 332 329 332 399 q 355 231 332 260 q 426 201 378 201 z "},"ŏ":{"ha":856,"x_min":28,"x_max":828,"o":"m 426 725 q 221 798 299 725 q 143 1008 143 871 l 335 1008 q 355 924 335 960 q 426 889 375 889 q 499 924 479 889 q 519 1008 519 960 l 713 1008 q 634 798 713 871 q 426 725 556 725 m 426 -14 q 126 73 224 -14 q 28 329 28 160 q 126 585 28 499 q 426 672 225 672 q 728 585 629 672 q 828 329 828 499 q 729 73 828 160 q 426 -14 631 -14 m 426 201 q 500 231 476 201 q 524 329 524 260 q 500 428 524 399 q 426 457 476 457 q 355 428 378 457 q 332 329 332 399 q 355 231 332 260 q 426 201 378 201 z "},"ǒ":{"ha":856,"x_min":28,"x_max":828,"o":"m 339 724 l 110 1013 l 326 1013 l 428 863 l 533 1013 l 744 1013 l 515 724 l 339 724 m 426 -14 q 126 73 224 -14 q 28 329 28 160 q 126 585 28 499 q 426 672 225 672 q 728 585 629 672 q 828 329 828 499 q 729 73 828 160 q 426 -14 631 -14 m 426 201 q 500 231 476 201 q 524 329 524 260 q 500 428 524 399 q 426 457 476 457 q 355 428 378 457 q 332 329 332 399 q 355 231 332 260 q 426 201 378 201 z "},"ô":{"ha":856,"x_min":28,"x_max":828,"o":"m 110 725 l 339 1014 l 515 1014 l 744 725 l 533 725 l 428 875 l 326 725 l 110 725 m 426 -14 q 126 73 224 -14 q 28 329 28 160 q 126 585 28 499 q 426 672 225 672 q 728 585 629 672 q 828 329 828 499 q 729 73 828 160 q 426 -14 631 -14 m 426 201 q 500 231 476 201 q 524 329 524 260 q 500 428 524 399 q 426 457 476 457 q 355 428 378 457 q 332 329 332 399 q 355 231 332 260 q 426 201 378 201 z "},"ố":{"ha":868,"x_min":28,"x_max":922,"o":"m 603 903 l 704 1131 l 922 1131 l 811 903 l 603 903 m 101 725 l 310 947 l 526 947 l 735 725 l 500 725 l 418 832 l 339 725 l 101 725 m 426 -14 q 126 73 224 -14 q 28 329 28 160 q 126 585 28 499 q 426 672 225 672 q 728 585 629 672 q 828 329 828 499 q 729 73 828 160 q 426 -14 631 -14 m 426 201 q 500 231 476 201 q 524 329 524 260 q 500 428 524 399 q 426 457 476 457 q 355 428 378 457 q 332 329 332 399 q 355 231 332 260 q 426 201 378 201 z "},"ộ":{"ha":856,"x_min":28,"x_max":828,"o":"m 111 725 l 340 1014 l 517 1014 l 746 725 l 535 725 l 429 875 l 328 725 l 111 725 m 426 -14 q 126 73 224 -14 q 28 329 28 160 q 126 585 28 499 q 426 672 225 672 q 728 585 629 672 q 828 329 828 499 q 729 73 828 160 q 426 -14 631 -14 m 426 201 q 500 231 476 201 q 524 329 524 260 q 500 428 524 399 q 426 457 476 457 q 355 428 378 457 q 332 329 332 399 q 355 231 332 260 q 426 201 378 201 m 329 -244 l 329 -64 l 528 -64 l 528 -244 l 329 -244 z "},"ồ":{"ha":856,"x_min":-79,"x_max":828,"o":"m 33 903 l -79 1131 l 140 1131 l 242 903 l 33 903 m 108 725 l 317 947 l 535 947 l 743 725 l 506 725 l 425 832 l 343 725 l 108 725 m 426 -14 q 126 73 224 -14 q 28 329 28 160 q 126 585 28 499 q 426 672 225 672 q 728 585 629 672 q 828 329 828 499 q 729 73 828 160 q 426 -14 631 -14 m 426 201 q 500 231 476 201 q 524 329 524 260 q 500 428 524 399 q 426 457 476 457 q 355 428 378 457 q 332 329 332 399 q 355 231 332 260 q 426 201 378 201 z "},"ổ":{"ha":856,"x_min":28,"x_max":913,"o":"m 618 871 l 618 978 q 694 990 675 979 q 713 1015 713 1000 q 660 1040 713 1040 q 624 1037 642 1040 q 590 1029 606 1033 l 590 1143 q 656 1155 618 1150 q 740 1160 693 1160 q 869 1125 826 1160 q 913 1036 913 1090 q 889 957 913 989 q 814 915 865 925 l 814 871 l 618 871 m 101 725 l 310 947 l 528 947 l 736 725 l 501 725 l 419 832 l 339 725 l 101 725 m 426 -14 q 126 73 224 -14 q 28 329 28 160 q 126 585 28 499 q 426 672 225 672 q 728 585 629 672 q 828 329 828 499 q 729 73 828 160 q 426 -14 631 -14 m 426 201 q 500 231 476 201 q 524 329 524 260 q 500 428 524 399 q 426 457 476 457 q 355 428 378 457 q 332 329 332 399 q 355 231 332 260 q 426 201 378 201 z "},"ỗ":{"ha":856,"x_min":28,"x_max":828,"o":"m 538 960 q 452 974 494 960 q 370 1003 410 989 q 293 1017 331 1017 q 217 1003 250 1017 q 161 964 185 989 l 161 1110 q 215 1142 181 1129 q 289 1154 250 1154 q 374 1140 335 1154 q 453 1112 414 1126 q 533 1097 492 1097 q 608 1113 576 1097 q 657 1151 640 1128 l 657 1004 q 610 973 643 986 q 538 960 578 960 m 101 725 l 310 947 l 528 947 l 736 725 l 501 725 l 419 832 l 339 725 l 101 725 m 426 -14 q 126 73 224 -14 q 28 329 28 160 q 126 585 28 499 q 426 672 225 672 q 728 585 629 672 q 828 329 828 499 q 729 73 828 160 q 426 -14 631 -14 m 426 201 q 500 231 476 201 q 524 329 524 260 q 500 428 524 399 q 426 457 476 457 q 355 428 378 457 q 332 329 332 399 q 355 231 332 260 q 426 201 378 201 z "},"ö":{"ha":856,"x_min":28,"x_max":828,"o":"m 171 764 l 171 946 l 371 946 l 371 764 l 171 764 m 485 764 l 485 946 l 683 946 l 683 764 l 485 764 m 426 -14 q 126 73 224 -14 q 28 329 28 160 q 126 585 28 499 q 426 672 225 672 q 728 585 629 672 q 828 329 828 499 q 729 73 828 160 q 426 -14 631 -14 m 426 201 q 500 231 476 201 q 524 329 524 260 q 500 428 524 399 q 426 457 476 457 q 355 428 378 457 q 332 329 332 399 q 355 231 332 260 q 426 201 378 201 z "},"ọ":{"ha":856,"x_min":28,"x_max":828,"o":"m 426 -14 q 126 73 224 -14 q 28 329 28 160 q 126 585 28 499 q 426 672 225 672 q 728 585 629 672 q 828 329 828 499 q 729 73 828 160 q 426 -14 631 -14 m 426 201 q 500 231 476 201 q 524 329 524 260 q 500 428 524 399 q 426 457 476 457 q 355 428 378 457 q 332 329 332 399 q 355 231 332 260 q 426 201 378 201 m 329 -244 l 329 -64 l 528 -64 l 528 -244 l 329 -244 z "},"ò":{"ha":856,"x_min":28,"x_max":828,"o":"m 315 725 l 175 1025 l 407 1025 l 535 725 l 315 725 m 426 -14 q 126 73 224 -14 q 28 329 28 160 q 126 585 28 499 q 426 672 225 672 q 728 585 629 672 q 828 329 828 499 q 729 73 828 160 q 426 -14 631 -14 m 426 201 q 500 231 476 201 q 524 329 524 260 q 500 428 524 399 q 426 457 476 457 q 355 428 378 457 q 332 329 332 399 q 355 231 332 260 q 426 201 378 201 z "},"ỏ":{"ha":856,"x_min":28,"x_max":828,"o":"m 310 725 l 310 838 q 405 857 379 842 q 431 894 431 872 q 354 938 431 938 q 312 934 333 938 q 274 925 290 931 l 274 1044 q 347 1059 306 1054 q 444 1064 389 1064 q 595 1023 543 1064 q 647 919 647 982 q 619 827 647 858 q 532 778 590 796 l 532 725 l 310 725 m 426 -14 q 126 73 224 -14 q 28 329 28 160 q 126 585 28 499 q 426 672 225 672 q 728 585 629 672 q 828 329 828 499 q 729 73 828 160 q 426 -14 631 -14 m 426 201 q 500 231 476 201 q 524 329 524 260 q 500 428 524 399 q 426 457 476 457 q 355 428 378 457 q 332 329 332 399 q 355 231 332 260 q 426 201 378 201 z "},"ơ":{"ha":1021,"x_min":35,"x_max":1007,"o":"m 419 -14 q 128 74 222 -14 q 35 329 35 161 q 129 584 35 496 q 419 672 224 672 q 577 653 510 672 q 692 599 644 635 q 796 633 769 599 q 822 744 822 668 l 1007 744 q 957 528 1007 600 q 794 436 907 456 q 807 329 807 389 q 713 74 807 161 q 419 -14 618 -14 m 419 176 q 512 213 483 176 q 540 329 540 249 q 512 445 540 408 q 419 482 483 482 q 329 445 357 482 q 301 329 301 408 q 329 213 301 249 q 419 176 357 176 z "},"ớ":{"ha":1021,"x_min":35,"x_max":1007,"o":"m 308 725 l 436 1025 l 667 1025 l 526 725 l 308 725 m 419 -14 q 128 74 222 -14 q 35 329 35 161 q 129 584 35 496 q 419 672 224 672 q 577 653 510 672 q 692 599 644 635 q 796 633 769 599 q 822 744 822 668 l 1007 744 q 957 528 1007 600 q 794 436 907 456 q 807 329 807 389 q 713 74 807 161 q 419 -14 618 -14 m 419 176 q 512 213 483 176 q 540 329 540 249 q 512 445 540 408 q 419 482 483 482 q 329 445 357 482 q 301 329 301 408 q 329 213 301 249 q 419 176 357 176 z "},"ợ":{"ha":1021,"x_min":35,"x_max":1007,"o":"m 419 -14 q 128 74 222 -14 q 35 329 35 161 q 129 584 35 496 q 419 672 224 672 q 577 653 510 672 q 692 599 644 635 q 796 633 769 599 q 822 744 822 668 l 1007 744 q 957 528 1007 600 q 794 436 907 456 q 807 329 807 389 q 713 74 807 161 q 419 -14 618 -14 m 419 176 q 512 213 483 176 q 540 329 540 249 q 512 445 540 408 q 419 482 483 482 q 329 445 357 482 q 301 329 301 408 q 329 213 301 249 q 419 176 357 176 m 326 -244 l 326 -64 l 525 -64 l 525 -244 l 326 -244 z "},"ờ":{"ha":1021,"x_min":35,"x_max":1007,"o":"m 322 725 l 182 1025 l 414 1025 l 542 725 l 322 725 m 419 -14 q 128 74 222 -14 q 35 329 35 161 q 129 584 35 496 q 419 672 224 672 q 577 653 510 672 q 692 599 644 635 q 796 633 769 599 q 822 744 822 668 l 1007 744 q 957 528 1007 600 q 794 436 907 456 q 807 329 807 389 q 713 74 807 161 q 419 -14 618 -14 m 419 176 q 512 213 483 176 q 540 329 540 249 q 512 445 540 408 q 419 482 483 482 q 329 445 357 482 q 301 329 301 408 q 329 213 301 249 q 419 176 357 176 z "},"ở":{"ha":1021,"x_min":35,"x_max":1007,"o":"m 308 725 l 308 838 q 403 857 378 842 q 429 894 429 872 q 353 938 429 938 q 310 934 332 938 q 272 925 289 931 l 272 1044 q 346 1059 304 1054 q 443 1064 388 1064 q 594 1023 542 1064 q 646 919 646 982 q 617 827 646 858 q 531 778 589 796 l 531 725 l 308 725 m 419 -14 q 128 74 222 -14 q 35 329 35 161 q 129 584 35 496 q 419 672 224 672 q 577 653 510 672 q 692 599 644 635 q 796 633 769 599 q 822 744 822 668 l 1007 744 q 957 528 1007 600 q 794 436 907 456 q 807 329 807 389 q 713 74 807 161 q 419 -14 618 -14 m 419 176 q 512 213 483 176 q 540 329 540 249 q 512 445 540 408 q 419 482 483 482 q 329 445 357 482 q 301 329 301 408 q 329 213 301 249 q 419 176 357 176 z "},"ỡ":{"ha":1021,"x_min":35,"x_max":1007,"o":"m 574 728 q 481 743 526 728 q 392 773 435 758 q 308 788 349 788 q 228 772 263 788 q 168 732 193 757 l 168 911 q 225 944 188 931 q 304 958 263 958 q 396 944 353 958 q 481 914 439 929 q 569 899 524 899 q 649 915 615 899 q 700 956 683 932 l 700 775 q 651 742 686 757 q 574 728 617 728 m 419 -14 q 128 74 222 -14 q 35 329 35 161 q 129 584 35 496 q 419 672 224 672 q 577 653 510 672 q 692 599 644 635 q 796 633 769 599 q 822 744 822 668 l 1007 744 q 957 528 1007 600 q 794 436 907 456 q 807 329 807 389 q 713 74 807 161 q 419 -14 618 -14 m 419 176 q 512 213 483 176 q 540 329 540 249 q 512 445 540 408 q 419 482 483 482 q 329 445 357 482 q 301 329 301 408 q 329 213 301 249 q 419 176 357 176 z "},"ő":{"ha":856,"x_min":28,"x_max":828,"o":"m 99 724 l 224 993 l 476 993 l 326 724 l 99 724 m 449 724 l 574 993 l 826 993 l 676 724 l 449 724 m 426 -14 q 126 73 224 -14 q 28 329 28 160 q 126 585 28 499 q 426 672 225 672 q 728 585 629 672 q 828 329 828 499 q 729 73 828 160 q 426 -14 631 -14 m 426 201 q 500 231 476 201 q 524 329 524 260 q 500 428 524 399 q 426 457 476 457 q 355 428 378 457 q 332 329 332 399 q 355 231 332 260 q 426 201 378 201 z "},"ō":{"ha":856,"x_min":28,"x_max":828,"o":"m 185 776 l 185 951 l 656 951 l 656 776 l 185 776 m 426 -14 q 126 73 224 -14 q 28 329 28 160 q 126 585 28 499 q 426 672 225 672 q 728 585 629 672 q 828 329 828 499 q 729 73 828 160 q 426 -14 631 -14 m 426 201 q 500 231 476 201 q 524 329 524 260 q 500 428 524 399 q 426 457 476 457 q 355 428 378 457 q 332 329 332 399 q 355 231 332 260 q 426 201 378 201 z "},"ø":{"ha":856,"x_min":28,"x_max":828,"o":"m 206 -75 l 239 11 q 28 329 28 76 q 126 585 28 499 q 426 672 225 672 q 501 668 467 672 l 528 733 l 649 733 l 614 647 q 828 329 828 579 q 729 73 828 160 q 426 -14 631 -14 q 350 -10 386 -14 l 325 -75 l 206 -75 m 328 233 l 425 475 q 340 440 369 474 q 310 329 310 407 q 328 233 310 268 m 428 183 q 515 217 483 183 q 546 329 546 250 q 525 425 546 392 l 428 183 z "},"ǿ":{"ha":856,"x_min":28,"x_max":828,"o":"m 257 725 l 385 1025 l 615 1025 l 475 725 l 257 725 m 206 -75 l 239 11 q 28 329 28 76 q 126 585 28 499 q 426 672 225 672 q 501 668 467 672 l 528 733 l 649 733 l 614 647 q 828 329 828 579 q 729 73 828 160 q 426 -14 631 -14 q 350 -10 386 -14 l 325 -75 l 206 -75 m 328 233 l 425 475 q 340 440 369 474 q 310 329 310 407 q 328 233 310 268 m 428 183 q 515 217 483 183 q 546 329 546 250 q 525 425 546 392 l 428 183 z "},"õ":{"ha":856,"x_min":28,"x_max":828,"o":"m 567 758 q 474 774 519 758 q 385 803 428 789 q 301 818 342 818 q 221 803 256 818 q 161 763 186 788 l 161 942 q 218 975 181 961 q 297 989 256 989 q 389 974 346 989 q 474 944 432 960 q 563 929 517 929 q 642 946 608 929 q 693 986 676 963 l 693 806 q 644 773 679 788 q 567 758 610 758 m 426 -14 q 126 73 224 -14 q 28 329 28 160 q 126 585 28 499 q 426 672 225 672 q 728 585 629 672 q 828 329 828 499 q 729 73 828 160 q 426 -14 631 -14 m 426 201 q 500 231 476 201 q 524 329 524 260 q 500 428 524 399 q 426 457 476 457 q 355 428 378 457 q 332 329 332 399 q 355 231 332 260 q 426 201 378 201 z "},"œ":{"ha":1310,"x_min":28,"x_max":1281,"o":"m 426 -14 q 126 73 224 -14 q 28 329 28 160 q 126 585 28 499 q 426 672 225 672 q 692 613 594 672 q 794 657 736 642 q 924 672 851 672 q 1185 590 1089 672 q 1281 358 1281 507 l 1281 244 l 833 244 q 1036 168 869 168 q 1154 178 1097 168 q 1246 203 1211 189 l 1246 33 q 960 -14 1147 -14 q 701 51 804 -14 q 426 -14 603 -14 m 833 400 l 1025 400 l 1025 418 q 1005 468 1025 447 q 933 489 985 489 q 856 465 878 489 q 833 400 833 442 m 426 201 q 500 231 476 201 q 524 329 524 260 q 500 428 524 399 q 426 457 476 457 q 355 428 378 457 q 332 329 332 399 q 355 231 332 260 q 426 201 378 201 z "},"p":{"ha":857,"x_min":56,"x_max":829,"o":"m 56 -289 l 56 658 l 314 658 l 328 610 q 413 656 367 639 q 521 672 458 672 q 749 593 669 672 q 829 336 829 514 q 744 73 829 160 q 508 -14 658 -14 q 425 -6 467 -14 q 354 17 383 3 l 354 -289 l 56 -289 m 433 201 q 501 231 478 201 q 525 333 525 261 q 502 431 525 404 q 435 457 479 457 q 354 426 389 457 l 354 228 q 390 208 372 214 q 433 201 407 201 z "},"þ":{"ha":857,"x_min":56,"x_max":829,"o":"m 56 -300 l 56 972 l 354 972 l 354 640 q 428 664 383 656 q 515 672 474 672 q 747 589 664 672 q 829 328 829 506 q 744 69 829 151 q 508 -14 658 -14 q 425 -6 467 -14 q 354 17 383 3 l 354 -300 l 56 -300 m 433 201 q 501 231 478 201 q 525 333 525 261 q 502 431 525 404 q 435 457 479 457 q 354 426 389 457 l 354 228 q 390 208 372 214 q 433 201 407 201 z "},"q":{"ha":847,"x_min":28,"x_max":917,"o":"m 743 -336 q 560 -281 618 -336 q 503 -108 503 -226 l 503 17 q 431 -6 474 3 q 349 -14 389 -14 q 113 61 199 -14 q 28 313 28 136 q 114 581 28 490 q 340 672 200 672 q 447 656 403 672 q 528 610 490 639 l 543 658 l 801 658 l 801 -71 q 812 -114 801 -101 q 850 -126 822 -126 q 917 -114 886 -126 l 917 -304 q 841 -328 878 -321 q 743 -336 804 -336 m 424 201 q 468 208 450 201 q 503 228 486 214 l 503 426 q 468 449 485 442 q 426 457 451 457 q 357 421 382 457 q 332 314 332 385 q 356 222 332 242 q 424 201 381 201 z "},"r":{"ha":590,"x_min":56,"x_max":576,"o":"m 56 0 l 56 658 l 346 658 l 353 613 q 451 653 390 635 q 576 672 513 671 l 576 451 q 499 444 542 450 q 419 431 457 439 q 354 413 381 424 l 354 0 l 56 0 z "},"ŕ":{"ha":576,"x_min":56,"x_max":576,"o":"m 82 725 l 210 1025 l 440 1025 l 300 725 l 82 725 m 56 0 l 56 658 l 346 658 l 353 613 q 451 653 390 635 q 576 672 513 671 l 576 451 q 499 444 542 450 q 419 431 457 439 q 354 413 381 424 l 354 0 l 56 0 z "},"ř":{"ha":576,"x_min":-4,"x_max":631,"o":"m 225 724 l -4 1013 l 213 1013 l 314 863 l 419 1013 l 631 1013 l 401 724 l 225 724 m 56 0 l 56 658 l 346 658 l 353 613 q 451 653 390 635 q 576 672 513 671 l 576 451 q 499 444 542 450 q 419 431 457 439 q 354 413 381 424 l 354 0 l 56 0 z "},"ŗ":{"ha":596,"x_min":53,"x_max":596,"o":"m 75 0 l 75 658 l 365 658 l 372 613 q 471 653 410 635 q 596 672 532 671 l 596 451 q 519 444 561 450 q 438 431 476 439 q 374 413 400 424 l 374 0 l 75 0 m 53 -381 l 101 -51 l 332 -51 l 247 -381 l 53 -381 z "},"ṛ":{"ha":576,"x_min":56,"x_max":576,"o":"m 56 0 l 56 658 l 346 658 l 353 613 q 451 653 390 635 q 576 672 513 671 l 576 451 q 499 444 542 450 q 419 431 457 439 q 354 413 381 424 l 354 0 l 56 0 m 104 -244 l 104 -64 l 303 -64 l 303 -244 l 104 -244 z "},"ṝ":{"ha":576,"x_min":21,"x_max":576,"o":"m 21 765 l 21 940 l 492 940 l 492 765 l 21 765 m 56 0 l 56 658 l 346 658 l 353 613 q 451 653 390 635 q 576 672 513 671 l 576 451 q 499 444 542 450 q 419 431 457 439 q 354 413 381 424 l 354 0 l 56 0 m 111 -243 l 111 -62 l 310 -62 l 310 -243 l 111 -243 z "},"ṟ":{"ha":576,"x_min":-26,"x_max":576,"o":"m 56 0 l 56 658 l 346 658 l 353 613 q 451 653 390 635 q 576 672 513 671 l 576 451 q 499 444 542 450 q 419 431 457 439 q 354 413 381 424 l 354 0 l 56 0 m -26 -244 l -26 -69 l 444 -69 l 444 -244 l -26 -244 z "},"s":{"ha":690,"x_min":28,"x_max":663,"o":"m 325 -14 q 157 -1 236 -14 q 35 31 78 13 l 35 231 q 110 202 68 214 q 196 185 153 190 q 269 179 239 179 q 333 181 310 179 q 357 200 357 183 q 335 222 357 214 q 279 240 314 231 q 203 263 244 249 q 70 338 113 296 q 28 461 28 381 q 110 618 28 564 q 367 672 193 672 q 458 667 410 672 q 551 656 507 663 q 621 639 594 649 l 621 442 q 528 470 578 461 q 438 479 478 479 q 367 476 401 479 q 332 457 332 474 q 373 431 332 439 q 474 403 414 422 q 588 356 547 382 q 646 292 629 329 q 663 200 663 254 q 577 43 663 100 q 325 -14 492 -14 z "},"ś":{"ha":690,"x_min":28,"x_max":663,"o":"m 204 725 l 332 1025 l 563 1025 l 422 725 l 204 725 m 325 -14 q 157 -1 236 -14 q 35 31 78 13 l 35 231 q 110 202 68 214 q 196 185 153 190 q 269 179 239 179 q 333 181 310 179 q 357 200 357 183 q 335 222 357 214 q 279 240 314 231 q 203 263 244 249 q 70 338 113 296 q 28 461 28 381 q 110 618 28 564 q 367 672 193 672 q 458 667 410 672 q 551 656 507 663 q 621 639 594 649 l 621 442 q 528 470 578 461 q 438 479 478 479 q 367 476 401 479 q 332 457 332 474 q 373 431 332 439 q 474 403 414 422 q 588 356 547 382 q 646 292 629 329 q 663 200 663 254 q 577 43 663 100 q 325 -14 492 -14 z "},"š":{"ha":731,"x_min":50,"x_max":704,"o":"m 279 724 l 50 1013 l 267 1013 l 368 863 l 474 1013 l 685 1013 l 456 724 l 279 724 m 367 -14 q 199 -1 278 -14 q 76 31 119 13 l 76 231 q 152 202 110 214 q 238 185 194 190 q 311 179 281 179 q 375 181 351 179 q 399 200 399 183 q 377 222 399 214 q 321 240 356 231 q 244 263 286 249 q 112 338 154 296 q 69 461 69 381 q 152 618 69 564 q 408 672 235 672 q 500 667 451 672 q 592 656 549 663 q 663 639 636 649 l 663 442 q 569 470 619 461 q 479 479 519 479 q 408 476 443 479 q 374 457 374 474 q 415 431 374 439 q 515 403 456 422 q 630 356 589 382 q 688 292 671 329 q 704 200 704 254 q 619 43 704 100 q 367 -14 533 -14 z "},"ş":{"ha":690,"x_min":28,"x_max":663,"o":"m 306 -333 q 242 -330 281 -333 q 188 -322 203 -326 l 188 -218 q 269 -229 228 -229 q 365 -181 365 -229 q 348 -148 365 -156 q 303 -140 331 -140 l 207 -140 l 244 -11 q 123 6 178 -6 q 35 31 68 17 l 35 231 q 110 202 68 214 q 196 185 153 190 q 269 179 239 179 q 333 181 310 179 q 357 200 357 183 q 335 222 357 214 q 279 240 314 231 q 203 263 244 249 q 70 338 113 296 q 28 461 28 381 q 110 618 28 564 q 367 672 193 672 q 458 667 410 672 q 551 656 507 663 q 621 639 594 649 l 621 442 q 528 470 578 461 q 438 479 478 479 q 367 476 401 479 q 332 457 332 474 q 373 431 332 439 q 474 403 414 422 q 588 356 547 382 q 646 292 629 329 q 663 200 663 254 q 596 56 663 111 q 399 -11 529 1 l 383 -54 q 498 -92 460 -54 q 536 -186 536 -129 q 478 -294 536 -254 q 306 -333 421 -333 z "},"ŝ":{"ha":719,"x_min":35,"x_max":690,"o":"m 35 724 l 264 1013 l 440 1013 l 669 724 l 458 724 l 353 874 l 251 724 l 35 724 m 353 -14 q 185 -1 264 -14 q 63 31 106 13 l 63 231 q 138 202 96 214 q 224 185 181 190 q 297 179 267 179 q 361 181 338 179 q 385 200 385 183 q 363 222 385 214 q 307 240 342 231 q 231 263 272 249 q 98 338 140 296 q 56 461 56 381 q 138 618 56 564 q 394 672 221 672 q 486 667 438 672 q 578 656 535 663 q 649 639 622 649 l 649 442 q 556 470 606 461 q 465 479 506 479 q 394 476 429 479 q 360 457 360 474 q 401 431 360 439 q 501 403 442 422 q 616 356 575 382 q 674 292 657 329 q 690 200 690 254 q 605 43 690 100 q 353 -14 519 -14 z "},"ș":{"ha":690,"x_min":28,"x_max":663,"o":"m 325 -14 q 157 -1 236 -14 q 35 31 78 13 l 35 231 q 110 202 68 214 q 196 185 153 190 q 269 179 239 179 q 333 181 310 179 q 357 200 357 183 q 335 222 357 214 q 279 240 314 231 q 203 263 244 249 q 70 338 113 296 q 28 461 28 381 q 110 618 28 564 q 367 672 193 672 q 458 667 410 672 q 551 656 507 663 q 621 639 594 649 l 621 442 q 528 470 578 461 q 438 479 478 479 q 367 476 401 479 q 332 457 332 474 q 373 431 332 439 q 474 403 414 422 q 588 356 547 382 q 646 292 629 329 q 663 200 663 254 q 577 43 663 100 q 325 -14 492 -14 m 185 -331 l 231 -56 l 474 -56 l 406 -331 l 185 -331 z "},"ṡ":{"ha":690,"x_min":28,"x_max":663,"o":"m 224 764 l 224 946 l 422 946 l 422 764 l 224 764 m 325 -14 q 157 -1 236 -14 q 35 31 78 13 l 35 231 q 110 202 68 214 q 196 185 153 190 q 269 179 239 179 q 333 181 310 179 q 357 200 357 183 q 335 222 357 214 q 279 240 314 231 q 203 263 244 249 q 70 338 113 296 q 28 461 28 381 q 110 618 28 564 q 367 672 193 672 q 458 667 410 672 q 551 656 507 663 q 621 639 594 649 l 621 442 q 528 470 578 461 q 438 479 478 479 q 367 476 401 479 q 332 457 332 474 q 373 431 332 439 q 474 403 414 422 q 588 356 547 382 q 646 292 629 329 q 663 200 663 254 q 577 43 663 100 q 325 -14 492 -14 z "},"ṣ":{"ha":690,"x_min":28,"x_max":663,"o":"m 325 -14 q 157 -1 236 -14 q 35 31 78 13 l 35 231 q 110 202 68 214 q 196 185 153 190 q 269 179 239 179 q 333 181 310 179 q 357 200 357 183 q 335 222 357 214 q 279 240 314 231 q 203 263 244 249 q 70 338 113 296 q 28 461 28 381 q 110 618 28 564 q 367 672 193 672 q 458 667 410 672 q 551 656 507 663 q 621 639 594 649 l 621 442 q 528 470 578 461 q 438 479 478 479 q 367 476 401 479 q 332 457 332 474 q 373 431 332 439 q 474 403 414 422 q 588 356 547 382 q 646 292 629 329 q 663 200 663 254 q 577 43 663 100 q 325 -14 492 -14 m 251 -244 l 251 -64 l 450 -64 l 450 -244 l 251 -244 z "},"ß":{"ha":906,"x_min":49,"x_max":878,"o":"m 569 -14 q 466 -6 515 -14 q 385 17 417 3 l 385 222 q 435 210 406 214 q 489 206 465 206 q 553 226 533 206 q 572 285 572 247 q 550 339 572 322 q 479 356 528 356 l 397 356 l 397 551 l 464 551 q 557 636 557 551 q 535 694 557 669 q 451 719 513 719 q 360 690 389 719 q 332 603 332 660 l 332 0 l 49 0 l 49 622 q 96 805 49 726 q 231 928 143 883 q 439 972 318 972 q 667 925 576 972 q 801 805 757 878 q 846 651 846 732 q 822 535 846 583 q 757 458 797 486 q 845 390 813 433 q 878 268 878 346 q 797 64 878 142 q 569 -14 715 -14 z "},"t":{"ha":544,"x_min":3,"x_max":542,"o":"m 351 -14 q 147 56 210 -14 q 85 246 85 126 l 85 440 l 3 440 l 3 658 l 85 658 l 85 790 l 383 856 l 383 658 l 526 658 l 518 440 l 383 440 l 383 264 q 458 197 383 197 q 542 211 500 197 l 542 19 q 456 -6 501 3 q 351 -14 410 -14 z "},"ŧ":{"ha":539,"x_min":0,"x_max":539,"o":"m 349 -14 q 144 56 207 -14 q 82 246 82 126 l 82 256 l 0 256 l 0 414 l 82 414 l 82 457 l 0 457 l 0 658 l 82 658 l 82 790 l 381 856 l 381 658 l 524 658 l 515 457 l 381 457 l 381 414 l 524 414 l 524 256 l 381 256 q 456 197 385 197 q 539 211 497 197 l 539 19 q 453 -6 499 3 q 349 -14 407 -14 z "},"ť":{"ha":571,"x_min":0,"x_max":761,"o":"m 482 775 l 531 1104 l 761 1104 l 676 775 l 482 775 m 349 -14 q 144 56 207 -14 q 82 246 82 126 l 82 440 l 0 440 l 0 658 l 82 658 l 82 790 l 381 856 l 381 658 l 524 658 l 515 440 l 381 440 l 381 264 q 456 197 381 197 q 539 211 497 197 l 539 19 q 453 -6 499 3 q 349 -14 407 -14 z "},"ţ":{"ha":543,"x_min":0,"x_max":561,"o":"m 331 -333 q 267 -330 306 -333 q 213 -322 228 -326 l 213 -218 q 294 -229 253 -229 q 390 -181 390 -229 q 373 -148 390 -156 q 328 -140 356 -140 l 232 -140 l 271 -7 q 126 78 171 11 q 82 246 82 144 l 82 440 l 0 440 l 0 658 l 82 658 l 82 790 l 381 856 l 381 658 l 524 658 l 515 440 l 381 440 l 381 264 q 456 197 381 197 q 539 211 497 197 l 539 19 q 424 -10 486 -3 l 408 -54 q 523 -92 485 -54 q 561 -186 561 -129 q 503 -294 561 -254 q 331 -333 446 -333 z "},"ț":{"ha":539,"x_min":0,"x_max":539,"o":"m 349 -14 q 144 56 207 -14 q 82 246 82 126 l 82 440 l 0 440 l 0 658 l 82 658 l 82 790 l 381 856 l 381 658 l 524 658 l 515 440 l 381 440 l 381 264 q 456 197 381 197 q 539 211 497 197 l 539 19 q 453 -6 499 3 q 349 -14 407 -14 m 175 -385 l 224 -56 l 454 -56 l 369 -385 l 175 -385 z "},"ẗ":{"ha":551,"x_min":13,"x_max":551,"o":"m 13 894 l 13 1076 l 213 1076 l 213 894 l 13 894 m 326 894 l 326 1076 l 525 1076 l 525 894 l 326 894 m 361 -14 q 157 56 219 -14 q 94 246 94 126 l 94 440 l 13 440 l 13 658 l 94 658 l 94 790 l 393 856 l 393 658 l 536 658 l 528 440 l 393 440 l 393 264 q 468 197 393 197 q 551 211 510 197 l 551 19 q 465 -6 511 3 q 361 -14 419 -14 z "},"ṭ":{"ha":539,"x_min":0,"x_max":539,"o":"m 349 -14 q 144 56 207 -14 q 82 246 82 126 l 82 440 l 0 440 l 0 658 l 82 658 l 82 790 l 381 856 l 381 658 l 524 658 l 515 440 l 381 440 l 381 264 q 456 197 381 197 q 539 211 497 197 l 539 19 q 453 -6 499 3 q 349 -14 407 -14 m 194 -244 l 194 -64 l 393 -64 l 393 -244 l 194 -244 z "},"ṯ":{"ha":539,"x_min":0,"x_max":539,"o":"m 349 -14 q 144 56 207 -14 q 82 246 82 126 l 82 440 l 0 440 l 0 658 l 82 658 l 82 790 l 381 856 l 381 658 l 524 658 l 515 440 l 381 440 l 381 264 q 456 197 381 197 q 539 211 497 197 l 539 19 q 453 -6 499 3 q 349 -14 407 -14 m 33 -244 l 33 -69 l 504 -69 l 504 -244 l 33 -244 z "},"u":{"ha":854,"x_min":49,"x_max":799,"o":"m 292 -14 q 113 51 178 -14 q 49 242 49 117 l 49 658 l 347 658 l 347 271 q 414 206 347 206 q 462 217 438 206 q 500 243 486 228 l 500 658 l 799 658 l 799 0 l 518 0 l 511 43 q 417 2 474 18 q 292 -14 361 -14 z "},"ú":{"ha":854,"x_min":49,"x_max":799,"o":"m 285 725 l 413 1025 l 643 1025 l 503 725 l 285 725 m 292 -14 q 113 51 178 -14 q 49 242 49 117 l 49 658 l 347 658 l 347 271 q 414 206 347 206 q 462 217 438 206 q 500 243 486 228 l 500 658 l 799 658 l 799 0 l 518 0 l 511 43 q 417 2 474 18 q 292 -14 361 -14 z "},"ŭ":{"ha":863,"x_min":57,"x_max":807,"o":"m 436 724 q 231 797 308 724 q 153 1007 153 869 l 344 1007 q 365 923 344 958 q 436 888 385 888 q 509 923 489 888 q 529 1007 529 958 l 722 1007 q 644 797 722 869 q 436 724 565 724 m 300 -14 q 122 51 186 -14 q 57 242 57 117 l 57 658 l 356 658 l 356 271 q 422 206 356 206 q 470 217 446 206 q 508 243 494 228 l 508 658 l 807 658 l 807 0 l 526 0 l 519 43 q 426 2 482 18 q 300 -14 369 -14 z "},"ǔ":{"ha":886,"x_min":81,"x_max":831,"o":"m 368 724 l 139 1013 l 356 1013 l 457 863 l 563 1013 l 774 1013 l 544 724 l 368 724 m 324 -14 q 145 51 210 -14 q 81 242 81 117 l 81 658 l 379 658 l 379 271 q 446 206 379 206 q 494 217 469 206 q 532 243 518 228 l 532 658 l 831 658 l 831 0 l 550 0 l 543 43 q 449 2 506 18 q 324 -14 393 -14 z "},"û":{"ha":854,"x_min":49,"x_max":799,"o":"m 104 725 l 333 1014 l 510 1014 l 739 725 l 528 725 l 422 875 l 321 725 l 104 725 m 292 -14 q 113 51 178 -14 q 49 242 49 117 l 49 658 l 347 658 l 347 271 q 414 206 347 206 q 462 217 438 206 q 500 243 486 228 l 500 658 l 799 658 l 799 0 l 518 0 l 511 43 q 417 2 474 18 q 292 -14 361 -14 z "},"ü":{"ha":854,"x_min":49,"x_max":799,"o":"m 168 764 l 168 946 l 368 946 l 368 764 l 168 764 m 482 764 l 482 946 l 681 946 l 681 764 l 482 764 m 292 -14 q 113 51 178 -14 q 49 242 49 117 l 49 658 l 347 658 l 347 271 q 414 206 347 206 q 462 217 438 206 q 500 243 486 228 l 500 658 l 799 658 l 799 0 l 518 0 l 511 43 q 417 2 474 18 q 292 -14 361 -14 z "},"ǘ":{"ha":854,"x_min":49,"x_max":799,"o":"m 311 974 l 390 1169 l 611 1169 l 511 974 l 311 974 m 165 764 l 165 935 l 360 935 l 360 764 l 165 764 m 474 764 l 474 935 l 668 935 l 668 764 l 474 764 m 292 -14 q 113 51 178 -14 q 49 242 49 117 l 49 658 l 347 658 l 347 271 q 414 206 347 206 q 462 217 438 206 q 500 243 486 228 l 500 658 l 799 658 l 799 0 l 518 0 l 511 43 q 417 2 474 18 q 292 -14 361 -14 z "},"ǚ":{"ha":854,"x_min":49,"x_max":799,"o":"m 325 933 l 135 1126 l 353 1126 l 428 1025 l 507 1126 l 721 1126 l 529 933 l 325 933 m 171 725 l 171 896 l 365 896 l 365 725 l 171 725 m 479 725 l 479 896 l 674 896 l 674 725 l 479 725 m 292 -14 q 113 51 178 -14 q 49 242 49 117 l 49 658 l 347 658 l 347 271 q 414 206 347 206 q 462 217 438 206 q 500 243 486 228 l 500 658 l 799 658 l 799 0 l 518 0 l 511 43 q 417 2 474 18 q 292 -14 361 -14 z "},"ǜ":{"ha":854,"x_min":49,"x_max":799,"o":"m 333 974 l 233 1169 l 454 1169 l 533 974 l 333 974 m 176 764 l 176 935 l 371 935 l 371 764 l 176 764 m 485 764 l 485 935 l 679 935 l 679 764 l 485 764 m 292 -14 q 113 51 178 -14 q 49 242 49 117 l 49 658 l 347 658 l 347 271 q 414 206 347 206 q 462 217 438 206 q 500 243 486 228 l 500 658 l 799 658 l 799 0 l 518 0 l 511 43 q 417 2 474 18 q 292 -14 361 -14 z "},"ǖ":{"ha":854,"x_min":49,"x_max":799,"o":"m 190 993 l 190 1168 l 661 1168 l 661 993 l 190 993 m 169 739 l 169 921 l 369 921 l 369 739 l 169 739 m 483 739 l 483 921 l 682 921 l 682 739 l 483 739 m 292 -14 q 113 51 178 -14 q 49 242 49 117 l 49 658 l 347 658 l 347 271 q 414 206 347 206 q 462 217 438 206 q 500 243 486 228 l 500 658 l 799 658 l 799 0 l 518 0 l 511 43 q 417 2 474 18 q 292 -14 361 -14 z "},"ụ":{"ha":854,"x_min":49,"x_max":799,"o":"m 292 -14 q 113 51 178 -14 q 49 242 49 117 l 49 658 l 347 658 l 347 271 q 414 206 347 206 q 462 217 438 206 q 500 243 486 228 l 500 658 l 799 658 l 799 0 l 518 0 l 511 43 q 417 2 474 18 q 292 -14 361 -14 m 321 -244 l 321 -64 l 519 -64 l 519 -244 l 321 -244 z "},"ù":{"ha":854,"x_min":49,"x_max":799,"o":"m 342 725 l 201 1025 l 433 1025 l 561 725 l 342 725 m 292 -14 q 113 51 178 -14 q 49 242 49 117 l 49 658 l 347 658 l 347 271 q 414 206 347 206 q 462 217 438 206 q 500 243 486 228 l 500 658 l 799 658 l 799 0 l 518 0 l 511 43 q 417 2 474 18 q 292 -14 361 -14 z "},"ủ":{"ha":854,"x_min":49,"x_max":799,"o":"m 314 725 l 314 838 q 409 857 383 842 q 435 894 435 872 q 358 938 435 938 q 316 934 338 938 q 278 925 294 931 l 278 1044 q 351 1059 310 1054 q 449 1064 393 1064 q 599 1023 547 1064 q 651 919 651 982 q 623 827 651 858 q 536 778 594 796 l 536 725 l 314 725 m 292 -14 q 113 51 178 -14 q 49 242 49 117 l 49 658 l 347 658 l 347 271 q 414 206 347 206 q 462 217 438 206 q 500 243 486 228 l 500 658 l 799 658 l 799 0 l 518 0 l 511 43 q 417 2 474 18 q 292 -14 361 -14 z "},"ư":{"ha":1075,"x_min":56,"x_max":1061,"o":"m 301 -14 q 121 51 186 -14 q 56 243 56 117 l 56 658 l 317 658 l 317 264 q 404 178 317 178 q 467 192 436 178 q 515 226 497 206 l 515 658 l 776 658 l 776 600 q 856 641 835 607 q 876 744 876 675 l 1061 744 q 995 508 1061 579 q 776 429 929 436 l 776 0 l 532 0 l 525 50 q 430 4 486 22 q 301 -14 374 -14 z "},"ứ":{"ha":1075,"x_min":56,"x_max":1061,"o":"m 300 725 l 428 1025 l 658 1025 l 518 725 l 300 725 m 301 -14 q 121 51 186 -14 q 56 243 56 117 l 56 658 l 317 658 l 317 264 q 404 178 317 178 q 467 192 436 178 q 515 226 497 206 l 515 658 l 776 658 l 776 600 q 856 641 835 607 q 876 744 876 675 l 1061 744 q 995 508 1061 579 q 776 429 929 436 l 776 0 l 532 0 l 525 50 q 430 4 486 22 q 301 -14 374 -14 z "},"ự":{"ha":1075,"x_min":56,"x_max":1061,"o":"m 301 -14 q 121 51 186 -14 q 56 243 56 117 l 56 658 l 317 658 l 317 264 q 404 178 317 178 q 467 192 436 178 q 515 226 497 206 l 515 658 l 776 658 l 776 600 q 856 641 835 607 q 876 744 876 675 l 1061 744 q 995 508 1061 579 q 776 429 929 436 l 776 0 l 532 0 l 525 50 q 430 4 486 22 q 301 -14 374 -14 m 326 -244 l 326 -64 l 525 -64 l 525 -244 l 326 -244 z "},"ừ":{"ha":1075,"x_min":56,"x_max":1061,"o":"m 297 725 l 157 1025 l 389 1025 l 517 725 l 297 725 m 301 -14 q 121 51 186 -14 q 56 243 56 117 l 56 658 l 317 658 l 317 264 q 404 178 317 178 q 467 192 436 178 q 515 226 497 206 l 515 658 l 776 658 l 776 600 q 856 641 835 607 q 876 744 876 675 l 1061 744 q 995 508 1061 579 q 776 429 929 436 l 776 0 l 532 0 l 525 50 q 430 4 486 22 q 301 -14 374 -14 z "},"ử":{"ha":1075,"x_min":56,"x_max":1061,"o":"m 292 725 l 292 838 q 387 857 361 842 q 413 894 413 872 q 336 938 413 938 q 294 934 315 938 q 256 925 272 931 l 256 1044 q 329 1059 288 1054 q 426 1064 371 1064 q 577 1023 525 1064 q 629 919 629 982 q 601 827 629 858 q 514 778 572 796 l 514 725 l 292 725 m 301 -14 q 121 51 186 -14 q 56 243 56 117 l 56 658 l 317 658 l 317 264 q 404 178 317 178 q 467 192 436 178 q 515 226 497 206 l 515 658 l 776 658 l 776 600 q 856 641 835 607 q 876 744 876 675 l 1061 744 q 995 508 1061 579 q 776 429 929 436 l 776 0 l 532 0 l 525 50 q 430 4 486 22 q 301 -14 374 -14 z "},"ữ":{"ha":1075,"x_min":56,"x_max":1061,"o":"m 565 728 q 472 743 518 728 q 383 773 426 758 q 300 788 340 788 q 219 772 254 788 q 160 732 185 757 l 160 911 q 217 944 179 931 q 296 958 254 958 q 388 944 344 958 q 473 914 431 929 q 561 899 515 899 q 641 915 607 899 q 692 956 675 932 l 692 775 q 643 742 678 757 q 565 728 608 728 m 301 -14 q 121 51 186 -14 q 56 243 56 117 l 56 658 l 317 658 l 317 264 q 404 178 317 178 q 467 192 436 178 q 515 226 497 206 l 515 658 l 776 658 l 776 600 q 856 641 835 607 q 876 744 876 675 l 1061 744 q 995 508 1061 579 q 776 429 929 436 l 776 0 l 532 0 l 525 50 q 430 4 486 22 q 301 -14 374 -14 z "},"ű":{"ha":876,"x_min":71,"x_max":872,"o":"m 144 724 l 269 993 l 522 993 l 372 724 l 144 724 m 494 724 l 619 993 l 872 993 l 722 724 l 494 724 m 314 -14 q 135 51 200 -14 q 71 242 71 117 l 71 658 l 369 658 l 369 271 q 436 206 369 206 q 484 217 460 206 q 522 243 508 228 l 522 658 l 821 658 l 821 0 l 540 0 l 533 43 q 440 2 496 18 q 314 -14 383 -14 z "},"ū":{"ha":854,"x_min":49,"x_max":799,"o":"m 190 776 l 190 951 l 661 951 l 661 776 l 190 776 m 292 -14 q 113 51 178 -14 q 49 242 49 117 l 49 658 l 347 658 l 347 271 q 414 206 347 206 q 462 217 438 206 q 500 243 486 228 l 500 658 l 799 658 l 799 0 l 518 0 l 511 43 q 417 2 474 18 q 292 -14 361 -14 z "},"ų":{"ha":847,"x_min":49,"x_max":799,"o":"m 292 -14 q 113 51 178 -14 q 49 242 49 117 l 49 658 l 347 658 l 347 271 q 414 206 347 206 q 462 217 438 206 q 500 243 486 228 l 500 658 l 799 658 l 799 0 l 704 0 q 651 -53 672 -25 q 631 -115 631 -82 q 693 -164 631 -164 q 731 -160 711 -164 q 763 -149 750 -156 l 763 -282 q 699 -298 740 -290 q 608 -306 657 -306 q 468 -272 522 -306 q 414 -167 414 -239 q 444 -69 414 -112 q 518 0 474 -26 l 511 43 q 417 2 474 18 q 292 -14 361 -14 z "},"ů":{"ha":854,"x_min":49,"x_max":799,"o":"m 422 724 q 272 778 325 724 q 219 914 219 833 q 272 1051 219 996 q 422 1106 325 1106 q 574 1051 521 1106 q 626 914 626 996 q 574 778 626 833 q 422 724 521 724 m 422 842 q 480 863 461 842 q 499 914 499 885 q 480 965 499 943 q 422 988 461 988 q 365 965 385 988 q 346 914 346 943 q 365 863 346 885 q 422 842 385 842 m 292 -14 q 113 51 178 -14 q 49 242 49 117 l 49 658 l 347 658 l 347 271 q 414 206 347 206 q 462 217 438 206 q 500 243 486 228 l 500 658 l 799 658 l 799 0 l 518 0 l 511 43 q 417 2 474 18 q 292 -14 361 -14 z "},"ũ":{"ha":854,"x_min":49,"x_max":799,"o":"m 561 733 q 468 749 514 733 q 379 778 422 764 q 296 793 336 793 q 215 778 250 793 q 156 738 181 763 l 156 917 q 213 950 175 936 q 292 964 250 964 q 383 949 340 964 q 469 919 426 935 q 557 904 511 904 q 637 921 603 904 q 688 961 671 938 l 688 781 q 639 748 674 763 q 561 733 604 733 m 292 -14 q 113 51 178 -14 q 49 242 49 117 l 49 658 l 347 658 l 347 271 q 414 206 347 206 q 462 217 438 206 q 500 243 486 228 l 500 658 l 799 658 l 799 0 l 518 0 l 511 43 q 417 2 474 18 q 292 -14 361 -14 z "},"v":{"ha":888,"x_min":28,"x_max":860,"o":"m 288 0 l 28 658 l 339 658 l 443 314 l 549 658 l 860 658 l 600 0 l 288 0 z "},"w":{"ha":1108,"x_min":28,"x_max":1081,"o":"m 201 0 l 28 658 l 314 658 l 381 382 l 439 560 l 439 658 l 656 658 l 731 382 l 794 658 l 1081 658 l 907 0 l 642 0 l 556 256 l 469 0 l 201 0 z "},"ẃ":{"ha":1108,"x_min":28,"x_max":1081,"o":"m 435 725 l 563 1025 l 793 1025 l 653 725 l 435 725 m 201 0 l 28 658 l 314 658 l 381 382 l 439 560 l 439 658 l 656 658 l 731 382 l 794 658 l 1081 658 l 907 0 l 642 0 l 556 256 l 469 0 l 201 0 z "},"ŵ":{"ha":1108,"x_min":28,"x_max":1081,"o":"m 239 724 l 468 1013 l 644 1013 l 874 724 l 663 724 l 557 874 l 456 724 l 239 724 m 201 0 l 28 658 l 314 658 l 381 382 l 439 560 l 439 658 l 656 658 l 731 382 l 794 658 l 1081 658 l 907 0 l 642 0 l 556 256 l 469 0 l 201 0 z "},"ẅ":{"ha":1108,"x_min":28,"x_max":1081,"o":"m 300 764 l 300 946 l 500 946 l 500 764 l 300 764 m 614 764 l 614 946 l 813 946 l 813 764 l 614 764 m 201 0 l 28 658 l 314 658 l 381 382 l 439 560 l 439 658 l 656 658 l 731 382 l 794 658 l 1081 658 l 907 0 l 642 0 l 556 256 l 469 0 l 201 0 z "},"ẁ":{"ha":1108,"x_min":28,"x_max":1081,"o":"m 435 725 l 294 1025 l 526 1025 l 654 725 l 435 725 m 201 0 l 28 658 l 314 658 l 381 382 l 439 560 l 439 658 l 656 658 l 731 382 l 794 658 l 1081 658 l 907 0 l 642 0 l 556 256 l 469 0 l 201 0 z "},"x":{"ha":849,"x_min":14,"x_max":835,"o":"m 14 0 l 268 335 l 24 658 l 321 658 l 424 519 l 528 658 l 824 658 l 581 335 l 835 0 l 535 0 l 424 147 l 313 0 l 14 0 z "},"y":{"ha":915,"x_min":28,"x_max":915,"o":"m 300 -244 q 199 -238 239 -244 q 118 -215 158 -232 l 118 -19 q 159 -31 139 -28 q 201 -33 179 -33 q 277 -23 250 -33 q 326 18 304 -12 l 28 658 l 340 658 l 475 300 l 604 658 l 915 658 l 681 71 q 533 -160 622 -75 q 300 -244 444 -244 z "},"ý":{"ha":915,"x_min":28,"x_max":915,"o":"m 360 725 l 488 1025 l 718 1025 l 578 725 l 360 725 m 300 -244 q 199 -238 239 -244 q 118 -215 158 -232 l 118 -19 q 159 -31 139 -28 q 201 -33 179 -33 q 277 -23 250 -33 q 326 18 304 -12 l 28 658 l 340 658 l 475 300 l 604 658 l 915 658 l 681 71 q 533 -160 622 -75 q 300 -244 444 -244 z "},"ŷ":{"ha":915,"x_min":28,"x_max":915,"o":"m 158 724 l 388 1013 l 564 1013 l 793 724 l 582 724 l 476 874 l 375 724 l 158 724 m 300 -244 q 199 -238 239 -244 q 118 -215 158 -232 l 118 -19 q 159 -31 139 -28 q 201 -33 179 -33 q 277 -23 250 -33 q 326 18 304 -12 l 28 658 l 340 658 l 475 300 l 604 658 l 915 658 l 681 71 q 533 -160 622 -75 q 300 -244 444 -244 z "},"ÿ":{"ha":915,"x_min":28,"x_max":915,"o":"m 218 797 l 218 979 l 418 979 l 418 797 l 218 797 m 532 797 l 532 979 l 731 979 l 731 797 l 532 797 m 300 -244 q 199 -238 239 -244 q 118 -215 158 -232 l 118 -19 q 159 -31 139 -28 q 201 -33 179 -33 q 277 -23 250 -33 q 326 18 304 -12 l 28 658 l 340 658 l 475 300 l 604 658 l 915 658 l 681 71 q 533 -160 622 -75 q 300 -244 444 -244 z "},"ẏ":{"ha":915,"x_min":28,"x_max":915,"o":"m 375 764 l 375 946 l 574 946 l 574 764 l 375 764 m 300 -244 q 199 -238 239 -244 q 118 -215 158 -232 l 118 -19 q 159 -31 139 -28 q 201 -33 179 -33 q 277 -23 250 -33 q 326 18 304 -12 l 28 658 l 340 658 l 475 300 l 604 658 l 915 658 l 681 71 q 533 -160 622 -75 q 300 -244 444 -244 z "},"ỵ":{"ha":915,"x_min":28,"x_max":915,"o":"m 300 -244 q 199 -238 239 -244 q 118 -215 158 -232 l 118 -19 q 159 -31 139 -28 q 201 -33 179 -33 q 277 -23 250 -33 q 326 18 304 -12 l 28 658 l 340 658 l 475 300 l 604 658 l 915 658 l 681 71 q 533 -160 622 -75 q 300 -244 444 -244 m 644 -244 l 644 -64 l 843 -64 l 843 -244 l 644 -244 z "},"ỳ":{"ha":915,"x_min":28,"x_max":915,"o":"m 360 725 l 219 1025 l 451 1025 l 579 725 l 360 725 m 300 -244 q 199 -238 239 -244 q 118 -215 158 -232 l 118 -19 q 159 -31 139 -28 q 201 -33 179 -33 q 277 -23 250 -33 q 326 18 304 -12 l 28 658 l 340 658 l 475 300 l 604 658 l 915 658 l 681 71 q 533 -160 622 -75 q 300 -244 444 -244 z "},"ỷ":{"ha":915,"x_min":28,"x_max":915,"o":"m 365 725 l 365 838 q 460 857 435 842 q 486 894 486 872 q 410 938 486 938 q 367 934 389 938 q 329 925 346 931 l 329 1044 q 403 1059 361 1054 q 500 1064 444 1064 q 651 1023 599 1064 q 703 919 703 982 q 674 827 703 858 q 588 778 646 796 l 588 725 l 365 725 m 300 -244 q 199 -238 239 -244 q 118 -215 158 -232 l 118 -19 q 159 -31 139 -28 q 201 -33 179 -33 q 277 -23 250 -33 q 326 18 304 -12 l 28 658 l 340 658 l 475 300 l 604 658 l 915 658 l 681 71 q 533 -160 622 -75 q 300 -244 444 -244 z "},"ỹ":{"ha":915,"x_min":28,"x_max":915,"o":"m 615 733 q 522 749 568 733 q 433 778 476 764 q 350 793 390 793 q 269 778 304 793 q 210 738 235 763 l 210 917 q 267 950 229 936 q 346 964 304 964 q 438 949 394 964 q 523 919 481 935 q 611 904 565 904 q 691 921 657 904 q 742 961 725 938 l 742 781 q 693 748 728 763 q 615 733 658 733 m 300 -244 q 199 -238 239 -244 q 118 -215 158 -232 l 118 -19 q 159 -31 139 -28 q 201 -33 179 -33 q 277 -23 250 -33 q 326 18 304 -12 l 28 658 l 340 658 l 475 300 l 604 658 l 915 658 l 681 71 q 533 -160 622 -75 q 300 -244 444 -244 z "},"z":{"ha":694,"x_min":28,"x_max":667,"o":"m 28 0 l 28 160 l 276 429 l 36 429 l 36 658 l 657 658 l 657 488 l 418 221 l 667 221 l 667 0 l 28 0 z "},"ź":{"ha":694,"x_min":28,"x_max":667,"o":"m 222 725 l 350 1025 l 581 1025 l 440 725 l 222 725 m 28 0 l 28 160 l 276 429 l 36 429 l 36 658 l 657 658 l 657 488 l 418 221 l 667 221 l 667 0 l 28 0 z "},"ž":{"ha":713,"x_min":36,"x_max":678,"o":"m 265 724 l 36 1013 l 253 1013 l 354 863 l 460 1013 l 671 1013 l 442 724 l 265 724 m 39 0 l 39 160 l 288 429 l 47 429 l 47 658 l 668 658 l 668 488 l 429 221 l 678 221 l 678 0 l 39 0 z "},"ż":{"ha":694,"x_min":28,"x_max":667,"o":"m 246 764 l 246 946 l 444 946 l 444 764 l 246 764 m 28 0 l 28 160 l 276 429 l 36 429 l 36 658 l 657 658 l 657 488 l 418 221 l 667 221 l 667 0 l 28 0 z "},"ẓ":{"ha":694,"x_min":28,"x_max":667,"o":"m 28 0 l 28 160 l 276 429 l 36 429 l 36 658 l 657 658 l 657 488 l 418 221 l 667 221 l 667 0 l 28 0 m 229 -244 l 229 -64 l 428 -64 l 428 -244 l 229 -244 z "},"ﬁ":{"ha":833,"x_min":0,"x_max":778,"o":"m 81 0 l 81 440 l 0 440 l 0 658 l 81 658 l 81 685 q 115 819 81 757 q 220 921 150 882 q 396 960 290 960 q 600 929 521 960 l 600 733 q 558 744 583 740 q 508 749 532 749 q 412 730 444 749 q 379 679 379 711 l 379 658 l 778 658 l 778 0 l 479 0 l 479 440 l 379 440 l 379 0 l 81 0 z "},"ﬂ":{"ha":833,"x_min":0,"x_max":778,"o":"m 81 0 l 81 440 l 0 440 l 0 658 l 81 658 l 81 685 q 116 822 81 760 q 219 922 151 885 q 383 958 286 958 q 485 951 438 958 q 575 929 533 943 l 778 929 l 778 0 l 483 0 l 483 440 l 376 440 l 376 0 l 81 0 m 374 658 l 488 658 l 488 736 q 465 742 479 739 q 436 744 450 744 q 388 726 401 744 q 374 679 374 708 l 374 658 z "},"ª":{"ha":461,"x_min":28,"x_max":433,"o":"m 157 528 q 66 556 104 528 q 28 647 28 583 q 183 771 28 771 l 272 771 l 272 775 q 256 798 272 790 q 200 806 239 806 q 74 786 136 806 l 74 881 q 147 901 103 893 q 235 908 192 908 q 378 872 322 908 q 433 757 433 835 l 433 536 l 285 536 l 278 563 q 229 537 258 546 q 157 528 200 528 m 218 622 q 272 646 253 622 l 272 683 l 226 683 q 182 653 182 683 q 218 622 182 622 z "},"º":{"ha":500,"x_min":28,"x_max":472,"o":"m 249 528 q 28 718 28 528 q 249 908 28 908 q 472 718 472 908 q 249 528 472 528 m 249 649 q 288 664 276 649 q 300 718 300 679 q 288 771 300 756 q 249 786 276 786 q 210 771 222 786 q 199 718 199 756 q 210 664 199 679 q 249 649 222 649 z "},"ⁿ":{"ha":481,"x_min":35,"x_max":453,"o":"m 35 536 l 35 900 l 190 900 l 193 876 q 252 898 217 889 q 326 907 288 907 q 453 771 453 907 l 453 536 l 286 536 l 286 749 q 251 783 286 783 q 225 778 240 783 q 200 764 210 772 l 200 536 l 35 536 z "},"Δ":{"ha":881,"x_min":28,"x_max":853,"o":"m 28 0 l 28 156 l 319 894 l 558 894 l 853 154 l 853 0 l 28 0 m 310 226 l 567 226 l 439 549 l 310 226 z "},"Ω":{"ha":1036,"x_min":28,"x_max":1008,"o":"m 38 0 l 38 221 l 164 221 q 28 513 28 325 q 154 844 28 724 q 518 965 281 965 q 882 844 756 965 q 1008 513 1008 724 q 976 346 1008 419 q 871 221 944 272 l 999 221 l 999 0 l 554 0 l 554 231 q 670 344 636 279 q 704 494 704 408 q 658 654 704 597 q 518 711 611 711 q 378 654 425 711 q 332 494 332 597 q 366 344 332 408 q 481 231 400 279 l 481 0 l 38 0 z "},"μ":{"ha":861,"x_min":56,"x_max":806,"o":"m 56 -199 l 56 658 l 354 658 l 354 271 q 421 206 354 206 q 469 217 444 206 q 507 243 493 228 l 507 658 l 806 658 l 806 0 l 525 0 l 518 43 q 472 2 501 18 q 407 -14 443 -14 q 354 -6 376 -14 l 354 -199 l 56 -199 z "},"π":{"ha":969,"x_min":14,"x_max":956,"o":"m 768 -14 q 563 59 626 -14 q 499 264 499 132 l 499 422 l 394 422 l 394 0 l 96 0 l 96 422 l 14 422 l 14 658 l 881 658 l 881 422 l 797 422 l 797 281 q 872 213 797 213 q 956 226 914 213 l 956 19 q 873 -5 917 4 q 768 -14 829 -14 z "},"ก":{"ha":892,"x_min":28,"x_max":836,"o":"m 46 0 l 46 235 q 71 329 46 285 q 147 392 96 374 l 28 432 l 28 638 q 195 724 93 685 q 426 764 297 764 q 663 723 574 764 q 794 612 753 682 q 836 451 836 542 l 836 0 l 531 0 l 531 436 q 503 525 531 499 q 408 551 475 551 q 338 542 371 551 q 281 519 304 533 l 281 513 l 422 464 l 422 338 q 367 301 385 326 q 349 229 349 275 l 349 0 l 46 0 z "},"ข":{"ha":856,"x_min":28,"x_max":800,"o":"m 421 -14 q 148 63 249 -14 q 47 274 47 139 l 47 304 q 69 394 47 357 q 112 458 90 431 q 133 510 133 486 q 125 538 133 529 q 94 546 117 546 l 28 546 l 51 750 l 296 750 q 408 715 375 750 q 442 614 442 679 q 425 535 442 571 q 386 469 408 500 q 347 407 364 438 q 331 342 331 376 l 331 297 q 355 236 331 256 q 421 217 379 217 q 494 241 471 217 q 517 306 517 265 l 517 750 l 800 750 l 800 279 q 699 62 800 138 q 421 -14 599 -14 z "},"ฃ":{"ha":875,"x_min":28,"x_max":819,"o":"m 440 -14 q 167 51 268 -14 q 65 244 65 115 l 65 267 q 89 349 65 311 q 143 420 113 388 q 197 479 174 453 q 221 524 221 506 q 199 550 221 550 q 172 536 185 550 l 172 483 l 28 483 l 28 750 l 192 750 l 192 711 q 249 738 211 725 q 328 750 288 750 q 438 715 399 750 q 476 614 476 679 q 458 517 476 558 q 413 445 439 476 q 369 385 388 414 q 350 325 350 357 l 350 300 q 374 237 350 257 q 440 217 399 217 q 512 241 489 217 q 535 306 535 265 l 535 750 l 819 750 l 819 279 q 719 62 819 138 q 440 -14 618 -14 z "},"ค":{"ha":883,"x_min":63,"x_max":828,"o":"m 63 0 l 63 444 q 163 683 63 603 q 446 764 263 764 q 728 683 628 764 q 828 444 828 603 l 828 0 l 567 0 l 567 451 q 537 541 567 508 q 446 574 507 574 q 353 542 382 574 q 324 451 324 510 l 324 368 q 372 388 343 382 q 426 394 400 394 l 499 394 l 506 190 l 424 190 q 369 185 396 190 q 324 168 343 179 l 324 0 l 63 0 z "},"ฅ":{"ha":883,"x_min":63,"x_max":828,"o":"m 63 0 l 63 540 q 115 703 63 642 q 271 764 168 764 q 364 748 318 764 q 444 693 410 732 q 527 748 478 732 q 624 764 576 764 q 778 705 729 764 q 828 540 828 646 l 828 0 l 567 0 l 567 513 q 559 558 567 543 q 526 574 551 574 q 496 563 507 574 q 476 536 485 551 l 414 536 q 399 563 408 551 q 371 574 390 574 q 324 513 324 574 l 324 368 q 372 388 343 382 q 426 394 400 394 l 499 394 l 506 190 l 424 190 q 369 185 396 190 q 324 168 343 179 l 324 0 l 63 0 z "},"ฆ":{"ha":892,"x_min":28,"x_max":836,"o":"m 574 -14 q 444 5 501 -14 q 346 51 386 24 l 336 0 l 58 0 l 58 242 q 83 331 58 289 q 140 410 107 374 q 197 474 172 446 q 221 524 221 503 q 199 550 221 550 q 172 536 185 550 l 172 483 l 28 483 l 28 750 l 207 750 l 207 711 q 264 738 226 725 q 342 750 301 750 q 447 713 411 750 q 483 610 483 675 q 465 502 483 546 q 420 425 446 458 q 376 362 394 392 q 357 296 357 332 l 357 246 q 403 217 372 229 q 460 206 433 206 q 542 286 542 206 l 542 750 l 836 750 l 836 246 q 763 53 836 119 q 574 -14 689 -14 z "},"ง":{"ha":829,"x_min":-14,"x_max":801,"o":"m 389 -14 q 285 -6 343 -14 q 186 15 226 1 l -14 521 l 269 521 l 399 193 q 496 394 496 217 q 466 503 496 472 q 372 533 436 533 l 321 533 l 321 750 l 438 750 q 706 662 611 750 q 801 396 801 574 q 749 162 801 253 q 605 28 697 71 q 389 -14 513 -14 z "},"จ":{"ha":803,"x_min":28,"x_max":775,"o":"m 390 -14 q 287 -6 339 -14 q 208 15 235 3 l 129 231 l 28 231 l 39 447 l 296 447 l 386 207 q 448 263 426 222 q 469 379 469 304 q 427 513 469 474 q 278 553 385 553 q 158 543 222 553 q 33 517 93 533 l 33 713 q 193 751 107 738 q 353 764 279 764 q 602 719 510 764 q 735 589 694 675 q 775 378 775 503 q 742 207 775 281 q 655 84 710 133 q 531 10 600 35 q 390 -14 463 -14 z "},"ฉ":{"ha":871,"x_min":42,"x_max":815,"o":"m 297 -14 q 116 51 185 -14 q 47 242 47 115 l 47 417 l 346 417 l 346 289 q 364 226 346 247 q 422 206 382 206 q 478 217 453 206 q 517 246 503 228 l 517 394 q 476 517 517 481 q 324 553 435 553 q 237 548 288 553 q 134 535 186 543 q 42 515 82 526 l 42 711 q 215 751 118 738 q 400 764 311 764 q 644 722 553 764 q 775 597 735 679 q 815 393 815 514 l 815 0 l 539 0 l 529 51 q 431 5 489 24 q 297 -14 372 -14 z "},"ช":{"ha":867,"x_min":28,"x_max":811,"o":"m 426 -14 q 151 60 254 -14 q 47 269 47 135 l 47 300 q 69 392 47 354 q 112 458 90 429 q 133 510 133 486 q 125 538 133 529 q 94 546 117 546 l 28 546 l 51 750 l 286 750 q 399 715 365 750 q 432 614 432 679 q 417 531 432 567 q 381 466 401 496 q 346 406 361 436 q 331 339 331 376 l 331 297 q 426 217 331 217 q 528 300 528 217 l 528 347 q 513 399 528 383 q 469 414 497 414 l 444 414 l 458 617 l 469 617 q 515 635 501 617 q 528 701 528 653 l 528 764 l 811 764 l 811 713 q 794 594 811 643 q 726 517 776 546 q 794 444 776 489 q 811 342 811 399 l 811 282 q 708 65 811 144 q 426 -14 604 -14 z "},"ซ":{"ha":868,"x_min":28,"x_max":813,"o":"m 433 -14 q 160 52 261 -14 q 58 244 58 118 l 58 267 q 82 349 58 311 q 136 420 106 388 q 190 479 167 453 q 214 524 214 506 q 192 550 214 550 q 165 536 178 550 l 165 483 l 28 483 l 28 750 l 192 750 l 192 711 q 247 738 211 725 q 324 750 283 750 q 429 714 393 750 q 467 617 465 678 l 476 617 q 517 635 506 617 q 528 701 528 653 l 528 764 l 813 764 l 813 713 q 794 594 813 643 q 726 517 776 546 q 795 444 778 489 q 813 342 813 399 l 813 279 q 712 62 813 138 q 433 -14 611 -14 m 433 217 q 505 241 482 217 q 528 306 528 265 l 528 357 q 472 422 528 422 l 451 422 l 463 567 q 435 487 454 521 q 395 426 417 453 q 358 374 374 399 q 343 322 343 350 l 343 297 q 367 236 343 256 q 433 217 392 217 z "},"ฌ":{"ha":1329,"x_min":28,"x_max":1274,"o":"m 1017 -14 q 891 5 944 -14 q 796 51 838 24 l 786 0 l 514 0 l 514 436 q 491 525 514 499 q 401 551 468 551 q 333 542 363 551 q 281 519 304 533 l 281 513 l 422 464 l 422 338 q 367 305 385 326 q 349 244 349 283 l 349 221 q 388 182 349 182 l 432 182 l 432 0 l 193 0 q 85 40 125 0 q 46 144 46 81 l 46 235 q 71 329 46 285 q 147 392 96 374 l 28 432 l 28 638 q 192 724 93 685 q 418 764 290 764 q 651 723 565 764 q 772 612 736 682 q 808 451 808 542 l 808 246 q 850 217 824 229 q 901 206 876 206 q 958 225 942 206 q 975 286 975 244 l 975 750 l 1274 750 l 1274 246 q 1202 53 1274 119 q 1017 -14 1131 -14 z "},"ญ":{"ha":1347,"x_min":28,"x_max":1300,"o":"m 921 -119 q 800 -112 861 -119 q 687 -90 739 -104 q 599 -60 635 -76 l 599 131 q 688 97 635 111 q 800 75 740 82 q 913 68 860 68 q 1035 82 1004 68 q 1067 121 1067 96 q 1057 150 1067 140 q 973 133 1022 140 q 882 125 924 125 q 613 195 711 125 q 514 424 514 265 l 514 443 q 491 526 514 500 q 401 551 468 551 q 333 542 363 551 q 281 519 304 533 l 281 513 l 422 464 l 422 338 q 367 305 385 326 q 349 244 349 283 l 349 221 q 388 182 349 182 l 432 182 l 432 0 l 193 0 q 85 40 125 0 q 46 144 46 81 l 46 235 q 71 329 46 285 q 147 392 96 374 l 28 432 l 28 638 q 195 724 93 685 q 425 764 297 764 q 656 725 572 764 q 774 619 739 686 q 808 465 808 551 l 808 444 q 899 349 808 349 q 972 373 950 349 q 993 444 993 397 l 993 750 l 1292 750 l 1292 446 q 1276 342 1292 392 q 1225 256 1260 292 q 1300 106 1300 201 q 1201 -60 1300 0 q 921 -119 1101 -119 z "},"ฎ":{"ha":928,"x_min":28,"x_max":872,"o":"m 196 -278 l 196 -65 q 303 -33 249 -43 q 429 -22 358 -22 q 507 -28 465 -22 q 567 -42 549 -35 l 567 436 q 540 525 567 499 q 446 551 513 551 q 374 542 407 551 q 317 519 340 533 l 317 513 l 458 464 l 458 338 q 413 305 424 326 q 403 243 403 283 l 403 154 q 358 41 403 82 q 239 0 313 0 l 28 0 l 28 189 l 60 189 q 97 228 97 189 l 97 253 q 115 338 97 301 q 183 392 133 374 l 64 432 l 64 638 q 232 724 129 685 q 463 764 335 764 q 700 723 610 764 q 831 612 790 682 q 872 451 872 542 l 872 -269 l 607 -269 q 522 -240 567 -250 q 414 -231 476 -231 q 300 -243 358 -231 q 196 -278 242 -256 z "},"ฏ":{"ha":928,"x_min":28,"x_max":872,"o":"m 608 -278 q 479 -259 532 -278 q 394 -215 426 -240 q 335 -256 372 -242 q 240 -269 297 -269 l 132 -269 l 146 -71 l 215 -71 q 265 -59 249 -71 q 289 -24 282 -47 l 465 -24 q 483 -59 471 -46 q 519 -72 496 -72 q 567 -22 567 -72 l 567 436 q 540 525 567 499 q 446 551 513 551 q 374 542 407 551 q 317 519 340 533 l 317 513 l 458 464 l 458 338 q 413 305 424 326 q 403 243 403 283 l 403 154 q 358 41 403 82 q 239 0 313 0 l 28 0 l 28 189 l 60 189 q 97 228 97 189 l 97 253 q 115 338 97 301 q 183 392 133 374 l 64 432 l 64 638 q 232 724 129 685 q 463 764 335 764 q 700 723 610 764 q 831 612 790 682 q 872 451 872 542 l 872 -19 q 839 -149 872 -90 q 747 -243 806 -208 q 608 -278 688 -278 z "},"ฐ":{"ha":865,"x_min":28,"x_max":838,"o":"m 390 -14 q 287 -6 339 -14 q 208 15 235 3 l 129 231 l 28 231 l 39 447 l 296 447 l 386 207 q 448 263 426 222 q 469 379 469 304 q 427 513 469 474 q 278 553 385 553 q 158 543 222 553 q 33 517 93 533 l 33 713 q 193 751 107 738 q 353 764 279 764 q 433 760 396 764 q 504 750 471 757 l 838 750 l 824 539 l 742 539 q 767 463 760 504 q 775 378 775 422 q 742 207 775 281 q 655 84 710 133 q 531 10 600 35 q 390 -14 463 -14 m 500 -307 q 389 -290 438 -307 q 310 -249 340 -274 q 175 -303 264 -303 l 38 -303 l 49 -104 l 144 -104 q 192 -94 176 -104 q 215 -57 208 -83 l 389 -57 q 410 -94 394 -79 q 457 -110 426 -110 q 501 -96 485 -110 q 518 -60 518 -82 l 518 -29 l 749 -29 l 749 -62 q 721 -186 749 -131 q 638 -274 693 -242 q 500 -307 583 -307 z "},"ฑ":{"ha":886,"x_min":28,"x_max":831,"o":"m 85 0 l 85 219 q 106 317 85 272 q 153 399 126 361 q 200 468 179 438 q 221 524 221 499 q 199 550 221 550 q 172 536 185 550 l 172 483 l 28 483 l 28 750 l 192 750 l 192 711 q 243 738 211 725 q 315 750 275 750 q 371 742 343 750 q 419 717 399 733 q 492 750 447 736 q 585 764 536 764 q 768 699 706 764 q 831 507 831 633 l 831 0 l 533 0 l 533 507 q 526 540 533 531 q 499 550 518 550 q 467 536 481 550 q 454 446 467 483 q 425 376 442 408 q 396 308 408 344 q 383 219 383 271 l 383 0 l 85 0 z "},"ฒ":{"ha":1389,"x_min":28,"x_max":1333,"o":"m 358 -14 q 186 22 261 -14 q 69 139 111 58 q 28 351 28 219 q 103 662 28 560 q 308 764 179 764 q 399 747 361 764 q 468 693 438 729 q 554 747 503 729 q 656 764 606 764 q 815 707 763 764 q 868 560 868 650 l 868 246 q 910 217 883 229 q 961 206 936 206 q 1018 225 1001 206 q 1035 286 1035 244 l 1035 750 l 1333 750 l 1333 246 q 1262 53 1333 119 q 1076 -14 1190 -14 q 951 5 1004 -14 q 856 51 897 24 l 846 0 l 578 0 l 578 464 q 571 511 578 496 q 540 526 564 526 q 499 492 513 526 l 428 492 q 413 517 421 507 q 388 526 404 526 q 343 477 356 526 q 331 351 331 428 q 354 233 331 268 q 436 197 378 197 q 476 200 456 197 q 513 208 496 203 l 513 14 q 448 -6 486 1 q 358 -14 410 -14 z "},"ณ":{"ha":1335,"x_min":28,"x_max":1279,"o":"m 772 -14 q 586 53 658 -14 q 514 246 514 119 l 514 436 q 491 525 514 499 q 401 551 468 551 q 333 542 363 551 q 281 519 304 533 l 281 513 l 422 464 l 422 338 q 367 305 385 326 q 349 244 349 283 l 349 221 q 388 182 349 182 l 432 182 l 432 0 l 193 0 q 85 40 125 0 q 46 144 46 81 l 46 235 q 71 329 46 285 q 147 392 96 374 l 28 432 l 28 638 q 192 724 93 685 q 418 764 290 764 q 651 723 565 764 q 774 612 738 682 q 811 451 811 542 l 811 286 q 829 225 813 244 q 886 206 846 206 q 939 217 911 206 q 981 246 967 229 l 981 750 l 1279 750 l 1279 0 l 1001 0 l 992 51 q 898 5 951 24 q 772 -14 844 -14 z "},"ด":{"ha":921,"x_min":28,"x_max":865,"o":"m 358 -14 q 186 21 261 -14 q 69 135 111 56 q 28 346 28 214 q 134 657 28 550 q 465 764 240 764 q 697 721 608 764 q 825 608 785 678 q 865 457 865 539 l 865 0 l 575 0 l 575 413 q 553 494 575 463 q 458 526 531 526 q 362 484 392 526 q 332 346 332 442 q 355 230 332 263 q 436 197 378 197 q 476 200 456 197 q 513 208 496 203 l 513 14 q 448 -6 486 1 q 358 -14 410 -14 z "},"ต":{"ha":931,"x_min":28,"x_max":875,"o":"m 358 -14 q 186 22 261 -14 q 69 139 111 58 q 28 351 28 219 q 104 662 28 560 q 310 764 181 764 q 401 747 363 764 q 471 693 440 729 q 558 747 506 729 q 660 764 610 764 q 821 707 767 764 q 875 560 875 650 l 875 0 l 583 0 l 583 464 q 576 511 583 496 q 544 526 568 526 q 501 492 515 526 l 431 492 q 415 517 424 507 q 389 526 406 526 q 344 477 357 526 q 331 351 331 428 q 354 233 331 268 q 436 197 378 197 q 476 200 456 197 q 513 208 496 203 l 513 14 q 448 -6 486 1 q 358 -14 410 -14 z "},"ถ":{"ha":892,"x_min":28,"x_max":836,"o":"m 193 0 q 85 40 125 0 q 46 144 46 81 l 46 235 q 71 329 46 285 q 147 392 96 374 l 28 432 l 28 638 q 195 724 93 685 q 426 764 297 764 q 663 723 574 764 q 794 612 753 682 q 836 451 836 542 l 836 0 l 531 0 l 531 436 q 503 525 531 499 q 408 551 475 551 q 338 542 371 551 q 281 519 304 533 l 281 513 l 422 464 l 422 338 q 367 305 385 326 q 349 244 349 283 l 349 221 q 388 182 349 182 l 432 182 l 432 0 l 193 0 z "},"ท":{"ha":892,"x_min":56,"x_max":836,"o":"m 56 0 l 56 750 l 332 750 l 342 699 q 444 745 383 726 q 576 764 504 764 q 766 697 696 764 q 836 503 836 629 l 836 0 l 538 0 l 538 463 q 456 544 538 544 q 399 533 429 544 q 354 504 369 521 l 354 0 l 56 0 z "},"ธ":{"ha":775,"x_min":28,"x_max":747,"o":"m 394 -14 q 198 4 293 -14 q 40 51 103 22 l 40 304 l 293 304 l 293 201 q 333 193 307 196 q 379 190 360 190 q 450 202 426 190 q 474 243 474 214 q 412 296 474 279 q 243 338 350 313 q 83 406 139 361 q 28 539 28 451 q 113 703 28 642 q 400 764 199 764 q 581 753 501 764 q 703 729 661 743 l 703 526 q 630 548 674 539 q 541 561 586 557 q 458 565 496 565 q 368 562 407 565 q 329 535 329 558 q 364 507 329 519 q 450 484 399 494 q 549 460 501 474 q 700 384 653 433 q 747 236 747 335 q 655 50 747 114 q 394 -14 563 -14 z "},"น":{"ha":892,"x_min":56,"x_max":836,"o":"m 315 -14 q 128 53 201 -14 q 56 246 56 119 l 56 750 l 354 750 l 354 286 q 436 206 354 206 q 494 217 464 206 q 538 246 524 229 l 538 750 l 836 750 l 836 0 l 560 0 l 550 51 q 448 5 508 24 q 315 -14 388 -14 z "},"บ":{"ha":908,"x_min":56,"x_max":853,"o":"m 454 -14 q 247 24 338 -14 q 106 138 157 61 q 56 329 56 214 l 56 750 l 354 750 l 354 331 q 376 243 354 269 q 454 217 399 217 q 531 243 508 217 q 554 331 554 269 l 554 750 l 853 750 l 853 329 q 802 138 853 214 q 662 24 751 61 q 454 -14 572 -14 z "},"ป":{"ha":908,"x_min":56,"x_max":853,"o":"m 454 -14 q 247 24 338 -14 q 106 138 157 61 q 56 329 56 214 l 56 750 l 354 750 l 354 331 q 376 243 354 269 q 454 217 399 217 q 531 243 508 217 q 554 331 554 269 l 554 972 l 853 972 l 853 329 q 802 138 853 214 q 662 24 751 61 q 454 -14 572 -14 z "},"ผ":{"ha":910,"x_min":56,"x_max":854,"o":"m 56 0 l 56 619 q 83 711 56 672 q 168 750 111 750 l 408 750 l 418 567 l 357 567 q 314 521 314 567 l 314 354 l 408 521 l 501 521 l 596 354 l 596 750 l 854 750 l 854 0 l 600 0 l 454 264 l 310 0 l 56 0 z "},"ฝ":{"ha":910,"x_min":56,"x_max":854,"o":"m 56 0 l 56 619 q 83 711 56 672 q 168 750 111 750 l 408 750 l 418 567 l 357 567 q 314 521 314 567 l 314 354 l 408 521 l 501 521 l 596 354 l 596 972 l 854 972 l 854 0 l 600 0 l 454 264 l 310 0 l 56 0 z "},"พ":{"ha":1039,"x_min":14,"x_max":1025,"o":"m 179 0 l 14 750 l 276 750 l 354 408 l 403 593 l 403 750 l 611 750 l 689 408 l 764 750 l 1025 750 l 858 0 l 614 0 l 522 292 l 424 0 l 179 0 z "},"ฟ":{"ha":1039,"x_min":14,"x_max":1053,"o":"m 179 0 l 14 750 l 276 750 l 354 408 l 403 593 l 403 750 l 611 750 l 689 408 l 792 972 l 1053 972 l 858 0 l 614 0 l 522 292 l 424 0 l 179 0 z "},"ภ":{"ha":928,"x_min":28,"x_max":872,"o":"m 28 0 l 28 189 l 60 189 q 97 228 97 189 l 97 253 q 115 338 97 301 q 183 392 133 374 l 64 432 l 64 638 q 232 724 129 685 q 463 764 335 764 q 700 723 610 764 q 831 612 790 682 q 872 451 872 542 l 872 0 l 567 0 l 567 436 q 540 525 567 499 q 446 551 513 551 q 374 542 407 551 q 317 519 340 533 l 317 513 l 458 464 l 458 338 q 413 305 424 326 q 403 243 403 283 l 403 154 q 361 41 403 82 q 244 0 319 0 l 28 0 z "},"ม":{"ha":892,"x_min":56,"x_max":836,"o":"m 574 -14 q 442 5 501 -14 q 342 51 383 24 l 332 0 l 56 0 l 56 750 l 354 750 l 354 246 q 399 217 369 229 q 456 206 429 206 q 538 286 538 206 l 538 750 l 836 750 l 836 246 q 763 53 836 119 q 574 -14 689 -14 z "},"ย":{"ha":894,"x_min":28,"x_max":839,"o":"m 435 -14 q 132 55 236 -14 q 28 244 28 124 q 97 388 28 338 q 50 444 69 408 q 31 532 31 481 q 107 706 31 647 q 321 764 183 764 q 410 757 371 764 q 476 740 450 750 l 476 560 q 440 565 461 563 q 403 568 419 568 q 353 558 371 568 q 336 524 336 549 q 352 489 336 499 q 394 479 368 479 l 460 479 l 464 299 l 393 299 q 333 247 333 299 q 355 207 333 221 q 433 193 376 193 q 540 279 540 193 l 540 750 l 839 750 l 839 286 q 732 60 839 135 q 435 -14 625 -14 z "},"ร":{"ha":701,"x_min":28,"x_max":674,"o":"m 331 -14 q 160 -1 240 -14 q 35 31 79 13 l 35 240 q 153 201 86 217 q 272 186 221 186 q 347 194 325 186 q 368 221 368 201 q 328 264 368 249 q 210 308 288 279 q 72 394 117 344 q 28 528 28 443 q 113 697 28 631 q 372 764 197 764 q 519 753 444 764 q 635 731 593 743 l 635 524 q 534 553 590 543 q 438 563 478 563 q 361 556 390 563 q 332 525 332 549 q 372 485 332 499 q 482 446 413 472 q 600 388 558 418 q 658 319 642 358 q 674 218 674 279 q 586 49 674 113 q 331 -14 499 -14 z "},"ฤ":{"ha":892,"x_min":28,"x_max":836,"o":"m 531 -222 l 531 436 q 503 525 531 499 q 408 551 475 551 q 338 542 371 551 q 281 519 304 533 l 281 513 l 422 464 l 422 338 q 367 305 385 326 q 349 244 349 283 l 349 221 q 388 182 349 182 l 432 182 l 432 0 l 193 0 q 85 40 125 0 q 46 144 46 81 l 46 235 q 71 329 46 285 q 147 392 96 374 l 28 432 l 28 638 q 195 724 93 685 q 426 764 297 764 q 663 723 574 764 q 794 612 753 682 q 836 451 836 542 l 836 -222 l 531 -222 z "},"ล":{"ha":851,"x_min":28,"x_max":796,"o":"m 289 -14 q 158 10 217 -14 q 63 89 99 35 q 28 231 28 143 q 105 415 28 353 q 328 478 182 478 l 504 478 l 504 496 q 361 556 504 556 q 231 545 299 556 q 101 515 163 535 l 101 713 q 252 750 163 736 q 424 764 342 764 q 701 685 606 764 q 796 447 796 607 l 796 0 l 504 0 l 504 292 l 406 292 q 348 279 368 292 q 328 231 328 267 q 344 186 328 199 q 390 174 360 174 q 421 175 407 174 q 450 181 435 176 l 450 8 q 382 -8 422 -1 q 289 -14 342 -14 z "},"ฦ":{"ha":928,"x_min":28,"x_max":872,"o":"m 567 -222 l 567 436 q 540 525 567 499 q 446 551 513 551 q 374 542 407 551 q 317 519 340 533 l 317 513 l 458 464 l 458 338 q 413 305 424 326 q 403 243 403 283 l 403 154 q 361 41 403 82 q 244 0 319 0 l 28 0 l 28 189 l 60 189 q 97 228 97 189 l 97 253 q 115 338 97 301 q 183 392 133 374 l 64 432 l 64 638 q 232 724 129 685 q 463 764 335 764 q 700 723 610 764 q 831 612 790 682 q 872 451 872 542 l 872 -222 l 567 -222 z "},"ว":{"ha":756,"x_min":28,"x_max":728,"o":"m 319 -14 q 163 -2 236 -14 q 28 39 90 10 l 28 278 q 135 238 76 253 q 244 224 193 224 q 381 258 338 224 q 424 375 424 293 q 381 492 424 457 q 247 526 338 526 q 135 515 193 526 q 29 481 78 504 l 29 711 q 167 750 92 736 q 321 764 242 764 q 626 672 524 764 q 728 375 728 579 q 625 78 728 169 q 319 -14 522 -14 z "},"ศ":{"ha":914,"x_min":63,"x_max":900,"o":"m 63 0 l 63 444 q 163 683 63 603 q 446 764 263 764 q 517 760 483 764 q 582 750 551 757 l 900 750 l 888 560 l 806 560 q 823 503 818 533 q 828 440 828 472 l 828 0 l 567 0 l 567 451 q 537 541 567 508 q 446 574 507 574 q 353 542 382 574 q 324 451 324 510 l 324 368 q 372 388 343 382 q 426 394 400 394 l 499 394 l 506 190 l 424 190 q 369 185 396 190 q 324 168 343 179 l 324 0 l 63 0 z "},"ษ":{"ha":926,"x_min":56,"x_max":926,"o":"m 454 -14 q 247 24 338 -14 q 106 138 157 61 q 56 329 56 214 l 56 750 l 354 750 l 354 331 q 376 243 354 269 q 454 217 399 217 q 531 243 508 217 q 554 331 554 269 l 554 371 l 453 371 l 453 588 l 554 588 l 554 750 l 853 750 l 853 588 l 926 588 l 908 371 l 853 371 l 853 329 q 802 138 853 214 q 662 24 751 61 q 454 -14 572 -14 z "},"ส":{"ha":881,"x_min":28,"x_max":867,"o":"m 289 -14 q 158 10 217 -14 q 63 85 99 33 q 28 225 28 138 q 105 413 28 347 q 328 478 182 478 l 504 478 l 504 496 q 361 556 504 556 q 231 545 299 556 q 101 515 163 535 l 101 713 q 252 750 163 736 q 424 764 342 764 q 496 760 461 764 q 561 750 531 757 l 867 750 l 851 539 l 776 539 q 791 488 786 519 q 796 421 796 456 l 796 0 l 504 0 l 504 292 l 406 292 q 348 279 368 292 q 328 231 328 267 q 344 186 328 199 q 390 174 360 174 q 421 175 407 174 q 450 181 435 176 l 450 8 q 382 -8 422 -1 q 289 -14 342 -14 z "},"ห":{"ha":874,"x_min":56,"x_max":818,"o":"m 56 0 l 56 750 l 354 750 l 354 557 l 446 557 q 503 578 486 557 q 519 638 519 599 l 519 750 l 818 750 l 818 611 q 800 512 818 556 q 739 444 782 468 q 799 381 781 422 q 817 288 817 340 l 817 0 l 518 0 l 518 246 q 501 306 518 286 q 444 326 485 326 l 354 326 l 354 0 l 56 0 z "},"ฬ":{"ha":1039,"x_min":14,"x_max":1058,"o":"m 179 0 l 14 750 l 276 750 l 354 401 l 408 565 l 408 678 l 606 678 l 689 401 l 726 597 q 724 679 738 656 q 667 703 711 703 l 632 703 l 660 864 l 711 864 q 772 881 756 864 q 799 938 789 899 l 806 972 l 1058 972 l 1043 904 q 939 772 1021 799 q 979 607 1004 731 l 858 0 l 614 0 l 522 268 l 424 0 l 179 0 z "},"อ":{"ha":850,"x_min":42,"x_max":822,"o":"m 397 -14 q 199 4 296 -14 q 42 51 103 22 l 42 451 l 408 451 l 418 269 l 321 269 l 321 203 q 393 193 351 193 q 491 235 465 193 q 517 369 517 276 q 469 516 517 479 q 319 553 422 553 q 190 543 264 553 q 50 514 115 533 l 50 713 q 162 742 101 731 q 282 758 222 753 q 392 764 342 764 q 719 665 615 764 q 822 369 822 565 q 723 83 822 179 q 397 -14 624 -14 z "},"ฮ":{"ha":897,"x_min":42,"x_max":883,"o":"m 397 -14 q 199 4 296 -14 q 42 51 103 22 l 42 451 l 408 451 l 418 269 l 321 269 l 321 203 q 393 193 351 193 q 491 235 465 193 q 517 369 517 276 q 469 516 517 479 q 319 553 422 553 q 190 543 264 553 q 50 514 115 533 l 50 713 q 162 742 101 731 q 282 758 222 753 q 392 764 342 764 q 473 760 435 764 q 546 749 511 756 l 546 750 l 883 750 l 868 539 l 786 539 q 813 462 804 506 q 822 369 822 418 q 723 83 822 179 q 397 -14 624 -14 z "},"ะ":{"ha":453,"x_min":28,"x_max":425,"o":"m 28 408 l 28 672 l 244 672 l 244 606 l 425 606 l 415 408 l 28 408 m 28 54 l 28 318 l 244 318 l 244 251 l 425 251 l 417 54 l 28 54 z "},"า":{"ha":633,"x_min":0,"x_max":578,"o":"m 294 0 l 294 418 q 269 506 294 479 q 181 532 243 532 q 84 521 131 532 q 0 494 38 510 l 0 711 q 108 749 42 733 q 243 764 175 764 q 498 685 418 764 q 578 454 578 607 l 578 0 l 294 0 z "},"ำ":{"ha":635,"x_min":-406,"x_max":579,"o":"m -204 794 q -306 819 -260 794 q -378 885 -351 843 q -406 983 -406 928 q -378 1083 -406 1040 q -306 1149 -351 1125 q -204 1172 -260 1172 q -103 1149 -149 1172 q -31 1083 -58 1125 q -4 983 -4 1040 q -31 885 -4 928 q -103 819 -58 843 q -204 794 -149 794 m -204 935 q -170 950 -185 935 q -156 983 -156 965 q -170 1017 -156 1003 q -204 1032 -185 1032 q -239 1017 -224 1032 q -254 983 -254 1003 q -239 950 -254 965 q -204 935 -224 935 m 294 0 l 294 418 q 269 506 294 479 q 182 532 244 532 q 84 521 131 532 q 0 494 38 510 l 0 711 q 110 749 43 733 q 244 764 176 764 q 499 685 418 764 q 579 454 579 607 l 579 0 l 294 0 z "},"เ":{"ha":472,"x_min":56,"x_max":444,"o":"m 203 0 q 95 40 135 0 q 56 144 56 81 l 56 750 l 357 750 l 357 228 q 396 189 357 189 l 444 189 l 444 0 l 203 0 z "},"แ":{"ha":869,"x_min":56,"x_max":842,"o":"m 614 0 q 506 40 546 0 q 467 144 467 81 l 467 750 l 763 750 l 763 228 q 801 189 763 189 l 842 189 l 842 0 l 614 0 m 203 0 q 95 40 135 0 q 56 144 56 81 l 56 750 l 350 750 l 350 228 q 389 189 350 189 l 431 189 l 431 0 l 203 0 z "},"โ":{"ha":475,"x_min":-35,"x_max":482,"o":"m 235 0 q 127 40 167 0 q 88 144 88 81 l 88 771 q 57 882 88 842 q -35 936 26 922 l -35 1103 l 482 1103 l 482 914 l 331 914 q 379 783 379 869 l 379 228 q 418 189 379 189 l 465 189 l 465 0 l 235 0 z "},"ใ":{"ha":449,"x_min":-42,"x_max":463,"o":"m 179 0 q 72 40 111 0 q 32 144 32 81 l 32 592 q 50 681 32 643 q 92 749 68 719 q 135 803 117 779 q 153 851 153 828 q 94 890 153 890 q 22 880 58 890 q -42 851 -14 869 l -42 1046 q 214 1107 61 1107 q 397 1061 331 1107 q 463 925 463 1015 q 442 833 463 872 q 393 759 421 793 q 344 687 365 725 q 324 599 324 649 l 324 228 q 363 189 324 189 l 410 189 l 410 0 l 179 0 z "},"ไ":{"ha":458,"x_min":-35,"x_max":472,"o":"m 214 0 q 106 40 146 0 q 67 144 67 81 l 67 774 q 80 853 67 815 q 117 914 93 892 l -35 914 l -35 1103 l 472 1103 l 472 936 q 385 877 411 922 q 358 760 358 832 l 358 228 q 397 189 358 189 l 444 189 l 444 0 l 214 0 z "},"ๅ":{"ha":633,"x_min":0,"x_max":578,"o":"m 294 -222 l 294 418 q 269 506 294 479 q 181 532 243 532 q 84 521 131 532 q 0 494 38 510 l 0 711 q 108 749 42 733 q 243 764 175 764 q 498 685 418 764 q 578 454 578 607 l 578 -222 l 294 -222 z "},"ℊ":{"ha":857,"x_min":28,"x_max":801,"o":"m 332 -244 q 271 -242 310 -244 q 194 -237 232 -240 q 138 -231 157 -233 l 138 -29 q 212 -42 165 -36 q 292 -47 258 -47 q 452 -31 401 -47 q 503 19 503 -14 l 503 31 q 431 6 475 17 q 347 -4 388 -4 q 178 26 250 -4 q 67 128 107 57 q 28 317 28 199 q 68 511 28 432 q 180 631 108 590 q 344 672 251 672 q 449 656 404 672 q 529 611 494 639 l 543 658 l 801 658 l 801 103 q 758 -76 801 3 q 612 -199 714 -154 q 332 -244 510 -244 m 422 203 q 503 231 471 203 l 503 426 q 469 449 486 442 q 428 457 451 457 q 355 424 378 457 q 332 318 332 390 q 356 224 332 246 q 422 203 379 203 z "},"₀":{"ha":518,"x_min":28,"x_max":490,"o":"m 258 -178 q 83 -126 139 -178 q 28 24 28 -74 q 83 175 28 122 q 258 228 138 228 q 435 175 381 228 q 490 24 490 122 q 435 -126 490 -74 q 258 -178 379 -178 m 258 -49 q 297 -31 286 -49 q 308 24 308 -14 q 297 80 308 61 q 258 99 286 99 q 220 80 231 99 q 210 24 210 61 q 220 -31 210 -14 q 258 -49 231 -49 z "},"₁":{"ha":315,"x_min":28,"x_max":315,"o":"m 100 -167 l 100 28 l 28 14 l 28 171 l 315 228 l 315 -167 l 100 -167 z "}}}
